<svg id="svg" version="1.1" xmlns="http://www.w3.org/2000/svg" xmlns:xlink="http://www.w3.org/1999/xlink" width="400" height="400" viewBox="0, 0, 400,400"><g id="svgg"><path id="path0" d="M202.036 106.016 C 201.964 106.230,201.597 107.988,201.221 109.922 L 200.537 113.438 198.131 113.438 C 193.603 113.438,189.773 116.340,187.150 121.759 C 182.291 131.797,189.777 136.892,196.400 128.055 C 197.257 126.913,197.983 126.004,198.016 126.037 C 198.048 126.069,197.810 127.361,197.487 128.907 C 197.164 130.453,196.894 131.824,196.887 131.953 C 196.881 132.082,198.060 132.188,199.509 132.188 L 202.143 132.188 202.483 130.547 C 202.670 129.645,203.852 123.668,205.108 117.266 L 207.393 105.625 204.780 105.625 C 202.969 105.625,202.128 105.745,202.036 106.016 M111.744 107.192 C 108.090 108.619,105.945 112.479,106.878 115.951 C 107.271 117.414,108.362 118.624,112.577 122.274 C 117.951 126.926,113.618 131.230,106.241 128.569 C 103.645 127.633,103.842 127.555,103.440 129.676 C 102.968 132.165,102.923 132.095,105.240 132.509 C 114.122 134.096,120.924 130.772,120.924 124.844 C 120.924 121.973,120.354 121.192,114.582 116.154 C 109.766 111.949,113.446 108.317,120.176 110.632 C 121.187 110.979,122.178 111.200,122.380 111.123 C 122.669 111.012,123.284 108.237,123.184 107.500 C 123.051 106.527,114.067 106.285,111.744 107.192 M139.063 110.072 C 137.113 110.424,137.007 110.529,136.727 112.395 C 136.528 113.725,136.502 113.750,135.314 113.750 C 134.039 113.750,134.009 113.786,133.592 115.859 C 133.388 116.873,133.390 116.875,134.669 116.875 C 135.838 116.875,135.935 116.936,135.783 117.578 C 132.702 130.611,133.136 132.465,139.278 132.489 C 142.492 132.501,142.357 132.578,142.661 130.547 L 142.883 129.063 141.464 129.063 C 140.154 129.063,139.063 128.506,139.063 127.839 C 139.063 127.592,140.794 118.853,141.096 117.578 C 141.245 116.947,141.451 116.875,143.110 116.875 C 145.097 116.875,145.034 116.931,145.470 114.766 L 145.675 113.750 143.740 113.750 L 141.805 113.750 142.023 112.578 C 142.142 111.934,142.316 111.020,142.409 110.547 C 142.603 109.560,142.208 109.504,139.063 110.072 M281.875 110.072 C 279.926 110.424,279.820 110.529,279.540 112.395 C 279.340 113.725,279.314 113.750,278.127 113.750 C 276.852 113.750,276.822 113.786,276.405 115.859 C 276.201 116.873,276.203 116.875,277.481 116.875 C 278.650 116.875,278.747 116.936,278.596 117.578 C 275.514 130.611,275.949 132.465,282.091 132.489 C 285.304 132.501,285.170 132.578,285.474 130.547 L 285.696 129.063 284.277 129.063 C 282.966 129.063,281.875 128.506,281.875 127.839 C 281.875 127.592,283.607 118.853,283.908 117.578 C 284.057 116.947,284.264 116.875,285.922 116.875 C 287.910 116.875,287.847 116.931,288.283 114.766 L 288.487 113.750 286.553 113.750 L 284.618 113.750 284.835 112.578 C 284.955 111.934,285.128 111.020,285.221 110.547 C 285.416 109.560,285.020 109.504,281.875 110.072 M224.131 114.089 C 216.037 117.275,213.312 129.929,220.229 132.211 C 223.157 133.178,231.998 131.724,232.339 130.220 C 233.297 125.991,233.438 126.170,230.316 127.636 C 226.387 129.479,222.808 129.512,221.943 127.714 C 221.158 126.081,221.237 125.625,222.307 125.625 C 229.650 125.625,235.817 118.226,231.699 114.356 C 230.548 113.275,226.557 113.134,224.131 114.089 M257.813 114.052 C 256.551 114.728,254.177 117.105,252.998 118.872 C 252.051 120.291,252.059 120.366,252.783 116.629 L 253.345 113.727 250.666 113.817 L 247.987 113.906 246.348 122.344 C 245.447 126.984,244.632 131.098,244.536 131.484 C 244.367 132.172,244.422 132.188,247.019 132.188 C 249.517 132.188,249.685 132.146,249.839 131.484 C 249.928 131.098,250.213 129.752,250.470 128.493 C 251.036 125.727,253.724 121.594,256.545 119.152 C 258.927 117.089,258.838 119.500,256.087 131.484 C 255.866 132.448,261.088 132.603,261.366 131.641 C 262.217 128.700,264.103 117.720,263.979 116.429 C 263.710 113.625,260.742 112.481,257.813 114.052 M158.172 115.234 C 154.909 130.519,155.011 132.500,159.061 132.500 C 161.661 132.500,163.903 130.914,166.524 127.219 C 167.061 126.462,167.500 125.926,167.500 126.026 C 167.500 126.216,166.689 130.245,166.401 131.484 C 166.178 132.448,171.400 132.603,171.679 131.641 C 171.766 131.340,172.557 127.438,173.438 122.969 C 174.318 118.500,175.109 114.598,175.196 114.297 C 175.338 113.806,175.079 113.750,172.683 113.750 C 170.168 113.750,170.003 113.791,169.855 114.453 C 169.769 114.840,169.485 116.115,169.224 117.287 C 168.222 121.786,161.250 130.291,161.250 127.015 C 161.250 126.574,163.245 116.124,163.648 114.453 C 163.814 113.766,163.758 113.750,161.154 113.750 L 158.489 113.750 158.172 115.234 M199.443 118.395 C 199.274 121.028,193.573 127.699,191.720 127.434 C 189.828 127.162,192.421 119.717,195.079 117.792 C 196.187 116.989,196.619 116.861,197.957 116.939 L 199.531 117.031 199.443 118.395 M227.819 117.512 C 228.800 119.345,225.844 122.188,222.958 122.188 C 221.937 122.188,221.852 122.122,222.043 121.484 C 223.047 118.116,226.772 115.555,227.819 117.512 M107.279 160.703 C 106.767 162.121,103.409 171.613,99.815 181.795 L 93.281 200.309 86.711 200.311 C 66.191 200.316,53.190 206.554,47.534 219.106 C 41.580 232.319,49.079 241.875,65.401 241.875 C 83.560 241.875,96.606 232.601,106.173 212.891 L 108.486 208.125 116.382 208.125 L 124.278 208.125 119.825 220.547 L 115.373 232.969 124.140 233.052 C 128.962 233.098,132.956 233.085,133.017 233.024 C 133.122 232.919,141.875 208.405,141.875 208.216 C 141.875 208.166,148.951 208.125,157.600 208.125 C 174.838 208.125,175.224 208.089,177.740 206.266 C 179.202 205.207,180.572 203.069,180.838 201.430 L 181.019 200.313 162.853 200.313 C 152.862 200.313,144.688 200.274,144.688 200.226 C 144.688 200.178,147.430 192.432,150.781 183.013 C 154.133 173.593,156.875 165.755,156.875 165.594 C 156.875 165.419,153.362 165.336,148.051 165.386 L 139.227 165.469 133.105 182.813 L 126.984 200.156 118.961 200.240 C 114.220 200.289,110.938 200.205,110.938 200.035 C 110.938 199.776,124.382 162.103,125.476 159.297 L 125.932 158.125 117.070 158.125 L 108.208 158.125 107.279 160.703 M173.050 166.016 C 171.819 167.899,166.250 177.153,166.250 177.315 C 166.250 177.417,171.242 177.500,177.344 177.500 C 186.387 177.500,188.438 177.577,188.438 177.917 C 188.438 178.498,183.818 229.460,183.580 231.510 L 183.386 233.176 188.967 233.073 C 198.651 232.892,197.585 233.925,213.286 209.507 L 225.156 191.045 225.237 212.113 L 225.317 233.180 230.237 233.074 C 239.504 232.875,237.624 235.220,257.868 198.594 C 266.798 182.438,274.593 168.340,275.192 167.266 L 276.281 165.313 270.250 165.325 L 264.219 165.337 252.969 186.184 L 241.719 207.031 241.638 186.143 L 241.558 165.255 236.951 165.362 C 228.728 165.553,229.820 164.421,214.242 188.896 C 207.728 199.130,202.354 207.459,202.300 207.404 C 202.245 207.349,202.979 200.141,203.932 191.386 C 205.843 173.815,205.875 172.531,204.463 169.915 C 202.166 165.657,200.753 165.313,185.604 165.313 L 173.509 165.313 173.050 166.016 M278.138 166.797 C 277.633 167.613,275.961 170.320,274.423 172.813 L 271.627 177.344 298.079 177.519 C 326.560 177.708,326.520 177.706,329.201 179.365 C 334.611 182.714,333.959 190.612,327.872 195.457 C 324.775 197.922,321.200 199.574,312.188 202.704 C 309.174 203.751,307.372 204.533,307.418 204.775 C 307.563 205.528,318.145 228.481,318.874 229.623 C 319.857 231.163,320.857 232.055,322.260 232.641 C 323.626 233.212,346.157 233.364,348.129 232.816 C 351.329 231.928,354.146 229.156,354.582 226.466 L 354.768 225.322 345.186 225.239 L 335.604 225.156 331.396 216.124 C 326.499 205.612,326.817 206.784,328.672 206.099 C 339.564 202.072,349.435 194.851,352.498 188.671 C 356.342 180.913,353.487 172.199,345.876 168.459 C 339.693 165.420,338.332 165.313,306.177 165.313 L 279.057 165.313 278.138 166.797 M296.400 184.141 C 296.321 184.355,292.405 195.430,287.698 208.750 L 279.139 232.969 287.898 233.052 C 292.715 233.098,296.717 233.074,296.791 233.001 C 296.912 232.879,314.375 184.060,314.375 183.842 C 314.375 183.499,296.526 183.796,296.400 184.141 M89.333 211.328 C 85.544 221.081,79.106 229.756,73.754 232.321 C 66.599 235.750,62.125 231.684,64.216 223.654 C 66.260 215.807,75.753 209.308,86.406 208.462 C 88.125 208.326,89.767 208.194,90.055 208.169 C 90.491 208.132,90.372 208.655,89.333 211.328 M282.708 259.141 C 282.614 259.527,281.123 267.016,279.397 275.781 C 277.670 284.547,276.182 292.035,276.091 292.422 C 275.927 293.119,275.957 293.125,279.369 293.125 C 281.263 293.125,282.813 293.086,282.813 293.039 C 282.813 292.991,284.359 285.226,286.250 275.781 C 288.141 266.337,289.688 258.571,289.688 258.524 C 289.688 257.928,282.857 258.531,282.708 259.141 M114.852 260.996 C 114.773 261.222,113.362 268.297,111.715 276.719 C 110.068 285.141,108.646 292.282,108.555 292.589 C 108.401 293.104,108.656 293.139,111.920 293.057 L 115.451 292.969 116.700 286.641 L 117.950 280.313 120.784 280.313 C 128.514 280.313,133.740 276.533,135.498 269.671 C 136.442 265.983,135.329 262.867,132.583 261.514 C 130.767 260.621,115.143 260.164,114.852 260.996 M220.625 264.327 L 217.969 264.844 217.531 266.953 L 217.094 269.063 215.454 269.063 L 213.814 269.063 213.470 271.041 C 213.280 272.130,213.125 273.114,213.125 273.229 C 213.125 273.344,213.828 273.438,214.688 273.438 C 215.547 273.438,216.250 273.481,216.250 273.534 C 216.250 273.587,215.617 276.715,214.844 280.486 C 212.581 291.518,213.266 293.471,219.481 293.700 C 223.756 293.857,224.447 293.601,224.892 291.699 C 225.570 288.797,225.557 288.770,223.589 288.973 C 221.438 289.195,220.625 288.620,220.625 286.879 C 220.625 285.912,222.273 277.096,222.977 274.297 C 223.189 273.450,223.230 273.438,225.653 273.438 C 228.401 273.438,228.076 273.746,228.698 270.547 L 228.987 269.063 226.525 269.063 C 223.595 269.063,223.724 269.420,224.852 264.453 C 225.049 263.588,224.501 263.572,220.625 264.327 M126.117 265.489 C 131.860 266.350,127.289 275.097,120.747 275.764 L 118.838 275.959 119.934 270.475 L 121.030 264.992 123.093 265.168 C 124.228 265.265,125.589 265.409,126.117 265.489 M155.359 269.045 C 146.380 272.364,140.989 285.613,146.344 291.199 C 148.992 293.962,155.449 294.650,159.688 292.622 C 167.837 288.722,172.331 276.126,167.406 270.988 C 165.031 268.511,159.304 267.587,155.359 269.045 M198.035 269.245 C 196.134 270.235,193.334 273.027,191.633 275.630 C 190.907 276.742,190.313 277.566,190.313 277.462 C 190.313 277.358,190.664 275.547,191.094 273.438 C 191.523 271.328,191.875 269.480,191.875 269.332 C 191.875 269.184,190.345 269.063,188.474 269.063 L 185.073 269.063 182.834 280.547 C 181.602 286.863,180.521 292.277,180.432 292.578 C 180.285 293.076,180.582 293.125,183.729 293.125 C 185.631 293.125,187.188 293.074,187.188 293.012 C 187.188 290.736,188.942 284.884,190.162 283.092 C 194.274 277.051,197.076 274.586,199.656 274.740 L 201.386 274.844 202.231 272.188 C 203.448 268.364,203.465 268.435,201.328 268.452 C 200.043 268.462,199.105 268.688,198.035 269.245 M250.539 269.184 C 247.052 270.638,244.170 273.359,241.760 277.473 C 233.092 292.262,244.229 300.746,253.698 286.566 C 254.414 285.494,255.000 284.754,255.000 284.921 C 255.000 285.089,254.648 286.953,254.219 289.063 C 253.789 291.172,253.438 292.949,253.438 293.012 C 253.438 293.074,254.964 293.125,256.829 293.125 L 260.220 293.125 262.477 281.797 C 263.718 275.566,264.805 270.165,264.893 269.793 C 265.049 269.139,264.942 269.112,261.511 268.930 C 259.563 268.827,256.703 268.672,255.156 268.587 C 252.680 268.449,252.128 268.521,250.539 269.184 M160.776 273.619 C 163.418 275.350,162.307 283.573,158.951 287.136 C 155.374 290.933,151.428 289.392,151.451 284.208 C 151.482 277.075,156.813 271.022,160.776 273.619 M257.034 273.442 C 258.645 276.048,248.866 288.451,246.052 287.371 C 243.904 286.547,248.167 276.149,251.528 274.017 C 253.000 273.084,256.581 272.710,257.034 273.442 " stroke="none" fill="#f50c0c" fill-rule="evenodd"></path><path id="path1" d="M202.036 106.016 C 201.964 106.230,201.597 107.988,201.221 109.922 L 200.537 113.438 198.131 113.438 C 193.603 113.438,189.773 116.340,187.150 121.759 C 182.291 131.797,189.777 136.892,196.400 128.055 C 197.257 126.913,197.983 126.004,198.016 126.037 C 198.048 126.069,197.810 127.361,197.487 128.907 C 197.164 130.453,196.894 131.824,196.887 131.953 C 196.881 132.082,198.060 132.188,199.509 132.188 L 202.143 132.188 202.483 130.547 C 202.670 129.645,203.852 123.668,205.108 117.266 L 207.393 105.625 204.780 105.625 C 202.969 105.625,202.128 105.745,202.036 106.016 M111.744 107.192 C 108.090 108.619,105.945 112.479,106.878 115.951 C 107.271 117.414,108.362 118.624,112.577 122.274 C 117.951 126.926,113.618 131.230,106.241 128.569 C 103.645 127.633,103.842 127.555,103.440 129.676 C 102.968 132.165,102.923 132.095,105.240 132.509 C 114.122 134.096,120.924 130.772,120.924 124.844 C 120.924 121.973,120.354 121.192,114.582 116.154 C 109.766 111.949,113.446 108.317,120.176 110.632 C 121.187 110.979,122.178 111.200,122.380 111.123 C 122.669 111.012,123.284 108.237,123.184 107.500 C 123.051 106.527,114.067 106.285,111.744 107.192 M139.063 110.072 C 137.113 110.424,137.007 110.529,136.727 112.395 C 136.528 113.725,136.502 113.750,135.314 113.750 C 134.039 113.750,134.009 113.786,133.592 115.859 C 133.388 116.873,133.390 116.875,134.669 116.875 C 135.838 116.875,135.935 116.936,135.783 117.578 C 132.702 130.611,133.136 132.465,139.278 132.489 C 142.492 132.501,142.357 132.578,142.661 130.547 L 142.883 129.063 141.464 129.063 C 140.154 129.063,139.063 128.506,139.063 127.839 C 139.063 127.592,140.794 118.853,141.096 117.578 C 141.245 116.947,141.451 116.875,143.110 116.875 C 145.097 116.875,145.034 116.931,145.470 114.766 L 145.675 113.750 143.740 113.750 L 141.805 113.750 142.023 112.578 C 142.142 111.934,142.316 111.020,142.409 110.547 C 142.603 109.560,142.208 109.504,139.063 110.072 M281.875 110.072 C 279.926 110.424,279.820 110.529,279.540 112.395 C 279.340 113.725,279.314 113.750,278.127 113.750 C 276.852 113.750,276.822 113.786,276.405 115.859 C 276.201 116.873,276.203 116.875,277.481 116.875 C 278.650 116.875,278.747 116.936,278.596 117.578 C 275.514 130.611,275.949 132.465,282.091 132.489 C 285.304 132.501,285.170 132.578,285.474 130.547 L 285.696 129.063 284.277 129.063 C 282.966 129.063,281.875 128.506,281.875 127.839 C 281.875 127.592,283.607 118.853,283.908 117.578 C 284.057 116.947,284.264 116.875,285.922 116.875 C 287.910 116.875,287.847 116.931,288.283 114.766 L 288.487 113.750 286.553 113.750 L 284.618 113.750 284.835 112.578 C 284.955 111.934,285.128 111.020,285.221 110.547 C 285.416 109.560,285.020 109.504,281.875 110.072 M224.131 114.089 C 216.037 117.275,213.312 129.929,220.229 132.211 C 223.157 133.178,231.998 131.724,232.339 130.220 C 233.297 125.991,233.438 126.170,230.316 127.636 C 226.387 129.479,222.808 129.512,221.943 127.714 C 221.158 126.081,221.237 125.625,222.307 125.625 C 229.650 125.625,235.817 118.226,231.699 114.356 C 230.548 113.275,226.557 113.134,224.131 114.089 M257.813 114.052 C 256.551 114.728,254.177 117.105,252.998 118.872 C 252.051 120.291,252.059 120.366,252.783 116.629 L 253.345 113.727 250.666 113.817 L 247.987 113.906 246.348 122.344 C 245.447 126.984,244.632 131.098,244.536 131.484 C 244.367 132.172,244.422 132.188,247.019 132.188 C 249.517 132.188,249.685 132.146,249.839 131.484 C 249.928 131.098,250.213 129.752,250.470 128.493 C 251.036 125.727,253.724 121.594,256.545 119.152 C 258.927 117.089,258.838 119.500,256.087 131.484 C 255.866 132.448,261.088 132.603,261.366 131.641 C 262.217 128.700,264.103 117.720,263.979 116.429 C 263.710 113.625,260.742 112.481,257.813 114.052 M158.172 115.234 C 154.909 130.519,155.011 132.500,159.061 132.500 C 161.661 132.500,163.903 130.914,166.524 127.219 C 167.061 126.462,167.500 125.926,167.500 126.026 C 167.500 126.216,166.689 130.245,166.401 131.484 C 166.178 132.448,171.400 132.603,171.679 131.641 C 171.766 131.340,172.557 127.438,173.438 122.969 C 174.318 118.500,175.109 114.598,175.196 114.297 C 175.338 113.806,175.079 113.750,172.683 113.750 C 170.168 113.750,170.003 113.791,169.855 114.453 C 169.769 114.840,169.485 116.115,169.224 117.287 C 168.222 121.786,161.250 130.291,161.250 127.015 C 161.250 126.574,163.245 116.124,163.648 114.453 C 163.814 113.766,163.758 113.750,161.154 113.750 L 158.489 113.750 158.172 115.234 M199.443 118.395 C 199.274 121.028,193.573 127.699,191.720 127.434 C 189.828 127.162,192.421 119.717,195.079 117.792 C 196.187 116.989,196.619 116.861,197.957 116.939 L 199.531 117.031 199.443 118.395 M227.819 117.512 C 228.800 119.345,225.844 122.188,222.958 122.188 C 221.937 122.188,221.852 122.122,222.043 121.484 C 223.047 118.116,226.772 115.555,227.819 117.512 M107.279 160.703 C 106.767 162.121,103.409 171.613,99.815 181.795 L 93.281 200.309 86.711 200.311 C 66.191 200.316,53.190 206.554,47.534 219.106 C 41.580 232.319,49.079 241.875,65.401 241.875 C 83.560 241.875,96.606 232.601,106.173 212.891 L 108.486 208.125 116.382 208.125 L 124.278 208.125 119.825 220.547 L 115.373 232.969 124.140 233.052 C 128.962 233.098,132.956 233.085,133.017 233.024 C 133.122 232.919,141.875 208.405,141.875 208.216 C 141.875 208.166,148.951 208.125,157.600 208.125 C 174.838 208.125,175.224 208.089,177.740 206.266 C 179.202 205.207,180.572 203.069,180.838 201.430 L 181.019 200.313 162.853 200.313 C 152.862 200.313,144.688 200.274,144.688 200.226 C 144.688 200.178,147.430 192.432,150.781 183.013 C 154.133 173.593,156.875 165.755,156.875 165.594 C 156.875 165.419,153.362 165.336,148.051 165.386 L 139.227 165.469 133.105 182.813 L 126.984 200.156 118.961 200.240 C 114.220 200.289,110.938 200.205,110.938 200.035 C 110.938 199.776,124.382 162.103,125.476 159.297 L 125.932 158.125 117.070 158.125 L 108.208 158.125 107.279 160.703 M173.050 166.016 C 171.819 167.899,166.250 177.153,166.250 177.315 C 166.250 177.417,171.242 177.500,177.344 177.500 C 186.387 177.500,188.438 177.577,188.438 177.917 C 188.438 178.498,183.818 229.460,183.580 231.510 L 183.386 233.176 188.967 233.073 C 198.651 232.892,197.585 233.925,213.286 209.507 L 225.156 191.045 225.237 212.113 L 225.317 233.180 230.237 233.074 C 239.504 232.875,237.624 235.220,257.868 198.594 C 266.798 182.438,274.593 168.340,275.192 167.266 L 276.281 165.313 270.250 165.325 L 264.219 165.337 252.969 186.184 L 241.719 207.031 241.638 186.143 L 241.558 165.255 236.951 165.362 C 228.728 165.553,229.820 164.421,214.242 188.896 C 207.728 199.130,202.354 207.459,202.300 207.404 C 202.245 207.349,202.979 200.141,203.932 191.386 C 205.843 173.815,205.875 172.531,204.463 169.915 C 202.166 165.657,200.753 165.313,185.604 165.313 L 173.509 165.313 173.050 166.016 M278.138 166.797 C 277.633 167.613,275.961 170.320,274.423 172.813 L 271.627 177.344 298.079 177.519 C 326.560 177.708,326.520 177.706,329.201 179.365 C 334.611 182.714,333.959 190.612,327.872 195.457 C 324.775 197.922,321.200 199.574,312.188 202.704 C 309.174 203.751,307.372 204.533,307.418 204.775 C 307.563 205.528,318.145 228.481,318.874 229.623 C 319.857 231.163,320.857 232.055,322.260 232.641 C 323.626 233.212,346.157 233.364,348.129 232.816 C 351.329 231.928,354.146 229.156,354.582 226.466 L 354.768 225.322 345.186 225.239 L 335.604 225.156 331.396 216.124 C 326.499 205.612,326.817 206.784,328.672 206.099 C 339.564 202.072,349.435 194.851,352.498 188.671 C 356.342 180.913,353.487 172.199,345.876 168.459 C 339.693 165.420,338.332 165.313,306.177 165.313 L 279.057 165.313 278.138 166.797 M296.400 184.141 C 296.321 184.355,292.405 195.430,287.698 208.750 L 279.139 232.969 287.898 233.052 C 292.715 233.098,296.717 233.074,296.791 233.001 C 296.912 232.879,314.375 184.060,314.375 183.842 C 314.375 183.499,296.526 183.796,296.400 184.141 M89.333 211.328 C 85.544 221.081,79.106 229.756,73.754 232.321 C 66.599 235.750,62.125 231.684,64.216 223.654 C 66.260 215.807,75.753 209.308,86.406 208.462 C 88.125 208.326,89.767 208.194,90.055 208.169 C 90.491 208.132,90.372 208.655,89.333 211.328 M282.708 259.141 C 282.614 259.527,281.123 267.016,279.397 275.781 C 277.670 284.547,276.182 292.035,276.091 292.422 C 275.927 293.119,275.957 293.125,279.369 293.125 C 281.263 293.125,282.813 293.086,282.813 293.039 C 282.813 292.991,284.359 285.226,286.250 275.781 C 288.141 266.337,289.688 258.571,289.688 258.524 C 289.688 257.928,282.857 258.531,282.708 259.141 M114.852 260.996 C 114.773 261.222,113.362 268.297,111.715 276.719 C 110.068 285.141,108.646 292.282,108.555 292.589 C 108.401 293.104,108.656 293.139,111.920 293.057 L 115.451 292.969 116.700 286.641 L 117.950 280.313 120.784 280.313 C 128.514 280.313,133.740 276.533,135.498 269.671 C 136.442 265.983,135.329 262.867,132.583 261.514 C 130.767 260.621,115.143 260.164,114.852 260.996 M220.625 264.327 L 217.969 264.844 217.531 266.953 L 217.094 269.063 215.454 269.063 L 213.814 269.063 213.470 271.041 C 213.280 272.130,213.125 273.114,213.125 273.229 C 213.125 273.344,213.828 273.438,214.688 273.438 C 215.547 273.438,216.250 273.481,216.250 273.534 C 216.250 273.587,215.617 276.715,214.844 280.486 C 212.581 291.518,213.266 293.471,219.481 293.700 C 223.756 293.857,224.447 293.601,224.892 291.699 C 225.570 288.797,225.557 288.770,223.589 288.973 C 221.438 289.195,220.625 288.620,220.625 286.879 C 220.625 285.912,222.273 277.096,222.977 274.297 C 223.189 273.450,223.230 273.438,225.653 273.438 C 228.401 273.438,228.076 273.746,228.698 270.547 L 228.987 269.063 226.525 269.063 C 223.595 269.063,223.724 269.420,224.852 264.453 C 225.049 263.588,224.501 263.572,220.625 264.327 M126.117 265.489 C 131.860 266.350,127.289 275.097,120.747 275.764 L 118.838 275.959 119.934 270.475 L 121.030 264.992 123.093 265.168 C 124.228 265.265,125.589 265.409,126.117 265.489 M155.359 269.045 C 146.380 272.364,140.989 285.613,146.344 291.199 C 148.992 293.962,155.449 294.650,159.688 292.622 C 167.837 288.722,172.331 276.126,167.406 270.988 C 165.031 268.511,159.304 267.587,155.359 269.045 M198.035 269.245 C 196.134 270.235,193.334 273.027,191.633 275.630 C 190.907 276.742,190.313 277.566,190.313 277.462 C 190.313 277.358,190.664 275.547,191.094 273.438 C 191.523 271.328,191.875 269.480,191.875 269.332 C 191.875 269.184,190.345 269.063,188.474 269.063 L 185.073 269.063 182.834 280.547 C 181.602 286.863,180.521 292.277,180.432 292.578 C 180.285 293.076,180.582 293.125,183.729 293.125 C 185.631 293.125,187.188 293.074,187.188 293.012 C 187.188 290.736,188.942 284.884,190.162 283.092 C 194.274 277.051,197.076 274.586,199.656 274.740 L 201.386 274.844 202.231 272.188 C 203.448 268.364,203.465 268.435,201.328 268.452 C 200.043 268.462,199.105 268.688,198.035 269.245 M250.539 269.184 C 247.052 270.638,244.170 273.359,241.760 277.473 C 233.092 292.262,244.229 300.746,253.698 286.566 C 254.414 285.494,255.000 284.754,255.000 284.921 C 255.000 285.089,254.648 286.953,254.219 289.063 C 253.789 291.172,253.438 292.949,253.438 293.012 C 253.438 293.074,254.964 293.125,256.829 293.125 L 260.220 293.125 262.477 281.797 C 263.718 275.566,264.805 270.165,264.893 269.793 C 265.049 269.139,264.942 269.112,261.511 268.930 C 259.563 268.827,256.703 268.672,255.156 268.587 C 252.680 268.449,252.128 268.521,250.539 269.184 M160.776 273.619 C 163.418 275.350,162.307 283.573,158.951 287.136 C 155.374 290.933,151.428 289.392,151.451 284.208 C 151.482 277.075,156.813 271.022,160.776 273.619 M257.034 273.442 C 258.645 276.048,248.866 288.451,246.052 287.371 C 243.904 286.547,248.167 276.149,251.528 274.017 C 253.000 273.084,256.581 272.710,257.034 273.442 " stroke="none" fill="#f50c0c" fill-rule="evenodd"></path><path id="path2" d="M202.036 106.016 C 201.964 106.230,201.597 107.988,201.221 109.922 L 200.537 113.438 198.131 113.438 C 193.603 113.438,189.773 116.340,187.150 121.759 C 182.291 131.797,189.777 136.892,196.400 128.055 C 197.257 126.913,197.983 126.004,198.016 126.037 C 198.048 126.069,197.810 127.361,197.487 128.907 C 197.164 130.453,196.894 131.824,196.887 131.953 C 196.881 132.082,198.060 132.188,199.509 132.188 L 202.143 132.188 202.483 130.547 C 202.670 129.645,203.852 123.668,205.108 117.266 L 207.393 105.625 204.780 105.625 C 202.969 105.625,202.128 105.745,202.036 106.016 M111.744 107.192 C 108.090 108.619,105.945 112.479,106.878 115.951 C 107.271 117.414,108.362 118.624,112.577 122.274 C 117.951 126.926,113.618 131.230,106.241 128.569 C 103.645 127.633,103.842 127.555,103.440 129.676 C 102.968 132.165,102.923 132.095,105.240 132.509 C 114.122 134.096,120.924 130.772,120.924 124.844 C 120.924 121.973,120.354 121.192,114.582 116.154 C 109.766 111.949,113.446 108.317,120.176 110.632 C 121.187 110.979,122.178 111.200,122.380 111.123 C 122.669 111.012,123.284 108.237,123.184 107.500 C 123.051 106.527,114.067 106.285,111.744 107.192 M139.063 110.072 C 137.113 110.424,137.007 110.529,136.727 112.395 C 136.528 113.725,136.502 113.750,135.314 113.750 C 134.039 113.750,134.009 113.786,133.592 115.859 C 133.388 116.873,133.390 116.875,134.669 116.875 C 135.838 116.875,135.935 116.936,135.783 117.578 C 132.702 130.611,133.136 132.465,139.278 132.489 C 142.492 132.501,142.357 132.578,142.661 130.547 L 142.883 129.063 141.464 129.063 C 140.154 129.063,139.063 128.506,139.063 127.839 C 139.063 127.592,140.794 118.853,141.096 117.578 C 141.245 116.947,141.451 116.875,143.110 116.875 C 145.097 116.875,145.034 116.931,145.470 114.766 L 145.675 113.750 143.740 113.750 L 141.805 113.750 142.023 112.578 C 142.142 111.934,142.316 111.020,142.409 110.547 C 142.603 109.560,142.208 109.504,139.063 110.072 M281.875 110.072 C 279.926 110.424,279.820 110.529,279.540 112.395 C 279.340 113.725,279.314 113.750,278.127 113.750 C 276.852 113.750,276.822 113.786,276.405 115.859 C 276.201 116.873,276.203 116.875,277.481 116.875 C 278.650 116.875,278.747 116.936,278.596 117.578 C 275.514 130.611,275.949 132.465,282.091 132.489 C 285.304 132.501,285.170 132.578,285.474 130.547 L 285.696 129.063 284.277 129.063 C 282.966 129.063,281.875 128.506,281.875 127.839 C 281.875 127.592,283.607 118.853,283.908 117.578 C 284.057 116.947,284.264 116.875,285.922 116.875 C 287.910 116.875,287.847 116.931,288.283 114.766 L 288.487 113.750 286.553 113.750 L 284.618 113.750 284.835 112.578 C 284.955 111.934,285.128 111.020,285.221 110.547 C 285.416 109.560,285.020 109.504,281.875 110.072 M224.131 114.089 C 216.037 117.275,213.312 129.929,220.229 132.211 C 223.157 133.178,231.998 131.724,232.339 130.220 C 233.297 125.991,233.438 126.170,230.316 127.636 C 226.387 129.479,222.808 129.512,221.943 127.714 C 221.158 126.081,221.237 125.625,222.307 125.625 C 229.650 125.625,235.817 118.226,231.699 114.356 C 230.548 113.275,226.557 113.134,224.131 114.089 M257.813 114.052 C 256.551 114.728,254.177 117.105,252.998 118.872 C 252.051 120.291,252.059 120.366,252.783 116.629 L 253.345 113.727 250.666 113.817 L 247.987 113.906 246.348 122.344 C 245.447 126.984,244.632 131.098,244.536 131.484 C 244.367 132.172,244.422 132.188,247.019 132.188 C 249.517 132.188,249.685 132.146,249.839 131.484 C 249.928 131.098,250.213 129.752,250.470 128.493 C 251.036 125.727,253.724 121.594,256.545 119.152 C 258.927 117.089,258.838 119.500,256.087 131.484 C 255.866 132.448,261.088 132.603,261.366 131.641 C 262.217 128.700,264.103 117.720,263.979 116.429 C 263.710 113.625,260.742 112.481,257.813 114.052 M158.172 115.234 C 154.909 130.519,155.011 132.500,159.061 132.500 C 161.661 132.500,163.903 130.914,166.524 127.219 C 167.061 126.462,167.500 125.926,167.500 126.026 C 167.500 126.216,166.689 130.245,166.401 131.484 C 166.178 132.448,171.400 132.603,171.679 131.641 C 171.766 131.340,172.557 127.438,173.438 122.969 C 174.318 118.500,175.109 114.598,175.196 114.297 C 175.338 113.806,175.079 113.750,172.683 113.750 C 170.168 113.750,170.003 113.791,169.855 114.453 C 169.769 114.840,169.485 116.115,169.224 117.287 C 168.222 121.786,161.250 130.291,161.250 127.015 C 161.250 126.574,163.245 116.124,163.648 114.453 C 163.814 113.766,163.758 113.750,161.154 113.750 L 158.489 113.750 158.172 115.234 M199.443 118.395 C 199.274 121.028,193.573 127.699,191.720 127.434 C 189.828 127.162,192.421 119.717,195.079 117.792 C 196.187 116.989,196.619 116.861,197.957 116.939 L 199.531 117.031 199.443 118.395 M227.819 117.512 C 228.800 119.345,225.844 122.188,222.958 122.188 C 221.937 122.188,221.852 122.122,222.043 121.484 C 223.047 118.116,226.772 115.555,227.819 117.512 M107.279 160.703 C 106.767 162.121,103.409 171.613,99.815 181.795 L 93.281 200.309 86.711 200.311 C 66.191 200.316,53.190 206.554,47.534 219.106 C 41.580 232.319,49.079 241.875,65.401 241.875 C 83.560 241.875,96.606 232.601,106.173 212.891 L 108.486 208.125 116.382 208.125 L 124.278 208.125 119.825 220.547 L 115.373 232.969 124.140 233.052 C 128.962 233.098,132.956 233.085,133.017 233.024 C 133.122 232.919,141.875 208.405,141.875 208.216 C 141.875 208.166,148.951 208.125,157.600 208.125 C 174.838 208.125,175.224 208.089,177.740 206.266 C 179.202 205.207,180.572 203.069,180.838 201.430 L 181.019 200.313 162.853 200.313 C 152.862 200.313,144.688 200.274,144.688 200.226 C 144.688 200.178,147.430 192.432,150.781 183.013 C 154.133 173.593,156.875 165.755,156.875 165.594 C 156.875 165.419,153.362 165.336,148.051 165.386 L 139.227 165.469 133.105 182.813 L 126.984 200.156 118.961 200.240 C 114.220 200.289,110.938 200.205,110.938 200.035 C 110.938 199.776,124.382 162.103,125.476 159.297 L 125.932 158.125 117.070 158.125 L 108.208 158.125 107.279 160.703 M173.050 166.016 C 171.819 167.899,166.250 177.153,166.250 177.315 C 166.250 177.417,171.242 177.500,177.344 177.500 C 186.387 177.500,188.438 177.577,188.438 177.917 C 188.438 178.498,183.818 229.460,183.580 231.510 L 183.386 233.176 188.967 233.073 C 198.651 232.892,197.585 233.925,213.286 209.507 L 225.156 191.045 225.237 212.113 L 225.317 233.180 230.237 233.074 C 239.504 232.875,237.624 235.220,257.868 198.594 C 266.798 182.438,274.593 168.340,275.192 167.266 L 276.281 165.313 270.250 165.325 L 264.219 165.337 252.969 186.184 L 241.719 207.031 241.638 186.143 L 241.558 165.255 236.951 165.362 C 228.728 165.553,229.820 164.421,214.242 188.896 C 207.728 199.130,202.354 207.459,202.300 207.404 C 202.245 207.349,202.979 200.141,203.932 191.386 C 205.843 173.815,205.875 172.531,204.463 169.915 C 202.166 165.657,200.753 165.313,185.604 165.313 L 173.509 165.313 173.050 166.016 M278.138 166.797 C 277.633 167.613,275.961 170.320,274.423 172.813 L 271.627 177.344 298.079 177.519 C 326.560 177.708,326.520 177.706,329.201 179.365 C 334.611 182.714,333.959 190.612,327.872 195.457 C 324.775 197.922,321.200 199.574,312.188 202.704 C 309.174 203.751,307.372 204.533,307.418 204.775 C 307.563 205.528,318.145 228.481,318.874 229.623 C 319.857 231.163,320.857 232.055,322.260 232.641 C 323.626 233.212,346.157 233.364,348.129 232.816 C 351.329 231.928,354.146 229.156,354.582 226.466 L 354.768 225.322 345.186 225.239 L 335.604 225.156 331.396 216.124 C 326.499 205.612,326.817 206.784,328.672 206.099 C 339.564 202.072,349.435 194.851,352.498 188.671 C 356.342 180.913,353.487 172.199,345.876 168.459 C 339.693 165.420,338.332 165.313,306.177 165.313 L 279.057 165.313 278.138 166.797 M296.400 184.141 C 296.321 184.355,292.405 195.430,287.698 208.750 L 279.139 232.969 287.898 233.052 C 292.715 233.098,296.717 233.074,296.791 233.001 C 296.912 232.879,314.375 184.060,314.375 183.842 C 314.375 183.499,296.526 183.796,296.400 184.141 M89.333 211.328 C 85.544 221.081,79.106 229.756,73.754 232.321 C 66.599 235.750,62.125 231.684,64.216 223.654 C 66.260 215.807,75.753 209.308,86.406 208.462 C 88.125 208.326,89.767 208.194,90.055 208.169 C 90.491 208.132,90.372 208.655,89.333 211.328 M282.708 259.141 C 282.614 259.527,281.123 267.016,279.397 275.781 C 277.670 284.547,276.182 292.035,276.091 292.422 C 275.927 293.119,275.957 293.125,279.369 293.125 C 281.263 293.125,282.813 293.086,282.813 293.039 C 282.813 292.991,284.359 285.226,286.250 275.781 C 288.141 266.337,289.688 258.571,289.688 258.524 C 289.688 257.928,282.857 258.531,282.708 259.141 M114.852 260.996 C 114.773 261.222,113.362 268.297,111.715 276.719 C 110.068 285.141,108.646 292.282,108.555 292.589 C 108.401 293.104,108.656 293.139,111.920 293.057 L 115.451 292.969 116.700 286.641 L 117.950 280.313 120.784 280.313 C 128.514 280.313,133.740 276.533,135.498 269.671 C 136.442 265.983,135.329 262.867,132.583 261.514 C 130.767 260.621,115.143 260.164,114.852 260.996 M220.625 264.327 L 217.969 264.844 217.531 266.953 L 217.094 269.063 215.454 269.063 L 213.814 269.063 213.470 271.041 C 213.280 272.130,213.125 273.114,213.125 273.229 C 213.125 273.344,213.828 273.438,214.688 273.438 C 215.547 273.438,216.250 273.481,216.250 273.534 C 216.250 273.587,215.617 276.715,214.844 280.486 C 212.581 291.518,213.266 293.471,219.481 293.700 C 223.756 293.857,224.447 293.601,224.892 291.699 C 225.570 288.797,225.557 288.770,223.589 288.973 C 221.438 289.195,220.625 288.620,220.625 286.879 C 220.625 285.912,222.273 277.096,222.977 274.297 C 223.189 273.450,223.230 273.438,225.653 273.438 C 228.401 273.438,228.076 273.746,228.698 270.547 L 228.987 269.063 226.525 269.063 C 223.595 269.063,223.724 269.420,224.852 264.453 C 225.049 263.588,224.501 263.572,220.625 264.327 M126.117 265.489 C 131.860 266.350,127.289 275.097,120.747 275.764 L 118.838 275.959 119.934 270.475 L 121.030 264.992 123.093 265.168 C 124.228 265.265,125.589 265.409,126.117 265.489 M155.359 269.045 C 146.380 272.364,140.989 285.613,146.344 291.199 C 148.992 293.962,155.449 294.650,159.688 292.622 C 167.837 288.722,172.331 276.126,167.406 270.988 C 165.031 268.511,159.304 267.587,155.359 269.045 M198.035 269.245 C 196.134 270.235,193.334 273.027,191.633 275.630 C 190.907 276.742,190.313 277.566,190.313 277.462 C 190.313 277.358,190.664 275.547,191.094 273.438 C 191.523 271.328,191.875 269.480,191.875 269.332 C 191.875 269.184,190.345 269.063,188.474 269.063 L 185.073 269.063 182.834 280.547 C 181.602 286.863,180.521 292.277,180.432 292.578 C 180.285 293.076,180.582 293.125,183.729 293.125 C 185.631 293.125,187.188 293.074,187.188 293.012 C 187.188 290.736,188.942 284.884,190.162 283.092 C 194.274 277.051,197.076 274.586,199.656 274.740 L 201.386 274.844 202.231 272.188 C 203.448 268.364,203.465 268.435,201.328 268.452 C 200.043 268.462,199.105 268.688,198.035 269.245 M250.539 269.184 C 247.052 270.638,244.170 273.359,241.760 277.473 C 233.092 292.262,244.229 300.746,253.698 286.566 C 254.414 285.494,255.000 284.754,255.000 284.921 C 255.000 285.089,254.648 286.953,254.219 289.063 C 253.789 291.172,253.438 292.949,253.438 293.012 C 253.438 293.074,254.964 293.125,256.829 293.125 L 260.220 293.125 262.477 281.797 C 263.718 275.566,264.805 270.165,264.893 269.793 C 265.049 269.139,264.942 269.112,261.511 268.930 C 259.563 268.827,256.703 268.672,255.156 268.587 C 252.680 268.449,252.128 268.521,250.539 269.184 M160.776 273.619 C 163.418 275.350,162.307 283.573,158.951 287.136 C 155.374 290.933,151.428 289.392,151.451 284.208 C 151.482 277.075,156.813 271.022,160.776 273.619 M257.034 273.442 C 258.645 276.048,248.866 288.451,246.052 287.371 C 243.904 286.547,248.167 276.149,251.528 274.017 C 253.000 273.084,256.581 272.710,257.034 273.442 " stroke="none" fill="#f50c0c" fill-rule="evenodd"></path><path id="path3" d="M187.655 10.666 C 181.812 16.532,177.267 21.252,177.554 21.154 C 177.842 21.056,180.373 20.802,183.179 20.590 L 188.281 20.205 193.912 14.639 L 199.542 9.073 279.211 88.742 C 323.029 132.560,358.926 168.366,358.981 168.310 C 359.133 168.159,357.944 162.902,356.678 158.125 L 355.560 153.906 278.639 76.953 L 201.719 -0.000 199.999 -0.000 L 198.278 0.000 187.655 10.666 M188.438 24.587 C 109.906 30.344,45.768 85.733,28.921 162.344 C 28.751 163.113,29.769 162.230,34.592 157.424 L 40.469 151.567 42.279 146.174 C 62.392 86.255,116.753 42.095,179.688 34.551 C 191.482 33.137,209.737 32.986,217.500 34.239 C 218.526 34.405,218.284 34.104,213.597 29.395 L 208.601 24.375 199.222 24.430 C 194.064 24.460,189.211 24.531,188.438 24.587 M242.266 34.297 L 248.433 40.469 253.826 42.279 C 327.018 66.848,374.259 140.936,365.752 217.813 L 365.562 219.531 370.281 214.848 L 375.000 210.164 374.998 200.473 C 374.985 126.009,330.046 60.987,260.737 35.145 C 253.287 32.367,238.651 28.125,236.517 28.125 C 236.287 28.125,238.875 30.902,242.266 34.297 M164.219 41.762 C 163.188 42.005,160.445 42.707,158.125 43.322 L 153.906 44.440 76.953 121.361 L 0.000 198.281 0.000 200.001 L 0.000 201.722 10.965 212.658 C 21.562 223.227,21.923 223.552,21.739 222.344 C 21.634 221.656,21.357 218.861,21.124 216.133 L 20.701 211.172 14.881 205.352 L 9.062 199.533 88.202 120.391 C 138.080 70.513,167.112 41.263,166.719 41.285 C 166.375 41.304,165.250 41.518,164.219 41.762 M378.261 177.656 C 378.366 178.344,378.643 181.138,378.875 183.865 L 379.299 188.824 385.117 194.648 L 390.935 200.472 311.887 279.520 C 268.410 322.996,232.893 358.622,232.960 358.689 C 233.123 358.852,236.741 358.035,241.875 356.676 L 246.094 355.560 323.047 278.639 L 400.000 201.719 400.000 199.999 L 400.000 198.278 389.035 187.342 C 378.438 176.773,378.077 176.448,378.261 177.656 M29.594 185.249 L 25.000 189.851 25.002 199.535 C 25.015 274.027,69.952 339.013,139.337 364.883 C 147.051 367.759,163.077 372.339,163.600 371.817 C 163.670 371.747,160.955 368.938,157.567 365.576 L 151.406 359.461 145.705 357.539 C 73.755 333.277,25.648 258.556,34.048 184.108 C 34.249 182.328,34.363 180.821,34.301 180.760 C 34.239 180.698,32.121 182.718,29.594 185.249 M40.938 231.644 C 40.938 232.184,42.279 237.940,43.322 241.875 L 44.440 246.094 121.361 323.047 L 198.281 400.000 200.001 400.000 L 201.722 400.000 212.345 389.334 C 218.188 383.468,222.733 378.748,222.446 378.846 C 222.158 378.944,219.627 379.198,216.821 379.409 L 211.719 379.794 206.094 385.362 L 200.469 390.930 120.703 311.169 C 76.832 267.300,40.938 231.514,40.938 231.644 M365.263 242.746 L 359.462 248.594 357.539 254.295 C 337.445 313.884,283.072 357.926,220.313 365.449 C 208.518 366.863,190.263 367.014,182.500 365.761 C 181.473 365.595,181.711 365.892,186.406 370.630 L 191.406 375.676 202.500 375.525 C 277.447 374.511,342.645 326.659,366.238 255.350 C 368.237 249.307,371.448 237.281,371.143 236.976 C 371.100 236.933,368.454 239.530,365.263 242.746 " stroke="none" fill="#000000" fill-rule="evenodd"></path><path id="path4" d="" stroke="none" fill="#040c08" fill-rule="evenodd"></path></g></svg>