<svg id="svg" version="1.1" xmlns="http://www.w3.org/2000/svg" xmlns:xlink="http://www.w3.org/1999/xlink" width="400" height="400" viewBox="0, 0, 400,400"><g id="svgg"><path id="path0" d="M190.015 9.407 C 178.708 20.874,179.350 19.830,183.789 19.543 C 188.248 19.254,187.644 19.616,193.771 13.557 C 196.860 10.502,199.191 8.437,199.550 8.438 C 199.934 8.438,228.510 36.773,278.571 86.797 C 338.787 146.966,357.016 165.011,357.099 164.531 C 357.202 163.947,356.391 160.419,355.161 156.094 L 354.628 154.219 277.705 77.190 C 218.860 18.265,200.598 0.152,200.000 0.117 C 199.366 0.081,197.490 1.826,190.015 9.407 M158.410 44.194 C 156.418 44.761,154.544 45.362,154.245 45.529 C 152.729 46.377,-0.014 199.568,0.068 200.156 C 0.172 200.894,19.822 220.460,20.215 220.217 C 20.411 220.095,19.983 212.611,19.721 211.589 C 19.702 211.518,17.156 208.905,14.063 205.781 C 10.722 202.409,8.437 199.860,8.437 199.506 C 8.437 199.130,37.051 170.295,86.094 121.250 C 128.805 78.537,163.750 43.485,163.750 43.357 C 163.750 42.901,161.977 43.179,158.410 44.194 M107.279 154.766 C 106.767 156.184,103.409 165.675,99.815 175.858 L 93.281 194.372 86.711 194.373 C 66.191 194.379,53.190 200.616,47.534 213.169 C 41.580 226.381,49.079 235.938,65.401 235.938 C 83.560 235.938,96.606 226.663,106.173 206.953 L 108.486 202.188 116.382 202.188 L 124.278 202.188 119.825 214.609 L 115.373 227.031 124.140 227.114 C 128.962 227.160,132.956 227.148,133.017 227.087 C 133.122 226.982,141.875 202.468,141.875 202.278 C 141.875 202.228,148.951 202.188,157.600 202.188 C 174.838 202.188,175.224 202.152,177.740 200.329 C 179.202 199.270,180.572 197.131,180.838 195.492 L 181.019 194.375 162.853 194.375 C 152.862 194.375,144.688 194.336,144.688 194.289 C 144.688 194.241,147.430 186.495,150.781 177.075 C 154.133 167.655,156.875 159.817,156.875 159.657 C 156.875 159.481,153.362 159.398,148.051 159.448 L 139.227 159.531 133.105 176.875 L 126.984 194.219 118.961 194.302 C 114.220 194.351,110.938 194.268,110.938 194.098 C 110.938 193.838,124.382 156.165,125.476 153.359 L 125.932 152.188 117.070 152.188 L 108.208 152.188 107.279 154.766 M173.050 160.078 C 171.819 161.962,166.250 171.216,166.250 171.378 C 166.250 171.479,171.242 171.563,177.344 171.563 C 186.387 171.563,188.438 171.640,188.438 171.980 C 188.438 172.560,183.818 223.523,183.580 225.573 L 183.386 227.239 188.967 227.135 C 198.651 226.955,197.585 227.988,213.286 203.569 L 225.156 185.108 225.237 206.175 L 225.317 227.242 230.237 227.137 C 239.504 226.938,237.624 229.283,257.868 192.656 C 266.798 176.500,274.593 162.402,275.192 161.328 L 276.281 159.375 270.250 159.387 L 264.219 159.399 252.969 180.246 L 241.719 201.094 241.638 180.206 L 241.558 159.318 236.951 159.425 C 228.728 159.615,229.820 158.483,214.242 182.959 C 207.728 193.193,202.354 201.521,202.300 201.466 C 202.245 201.411,202.979 194.204,203.932 185.449 C 205.843 167.878,205.875 166.594,204.463 163.977 C 202.166 159.720,200.753 159.375,185.604 159.375 L 173.509 159.375 173.050 160.078 M278.138 160.859 C 277.633 161.676,275.961 164.383,274.423 166.875 L 271.627 171.406 298.079 171.582 C 326.560 171.771,326.520 171.768,329.201 173.427 C 334.611 176.776,333.959 184.675,327.872 189.520 C 324.775 191.985,321.200 193.636,312.188 196.767 C 309.174 197.814,307.372 198.596,307.418 198.837 C 307.563 199.590,318.145 222.544,318.874 223.686 C 319.857 225.226,320.857 226.118,322.260 226.704 C 323.626 227.274,346.157 227.427,348.129 226.879 C 351.329 225.990,354.146 223.218,354.582 220.529 L 354.768 219.384 345.186 219.301 L 335.604 219.219 331.396 210.186 C 326.499 199.675,326.817 200.847,328.672 200.161 C 339.564 196.134,349.435 188.914,352.498 182.734 C 356.342 174.976,353.487 166.262,345.876 162.522 C 339.693 159.483,338.332 159.375,306.177 159.375 L 279.057 159.375 278.138 160.859 M296.400 178.203 C 296.321 178.418,292.405 189.492,287.698 202.813 L 279.139 227.031 287.898 227.114 C 292.715 227.160,296.717 227.137,296.791 227.063 C 296.912 226.942,314.375 178.123,314.375 177.905 C 314.375 177.562,296.526 177.858,296.400 178.203 M379.655 179.825 C 379.549 179.930,380.122 187.796,380.279 188.411 C 380.298 188.482,382.844 191.095,385.938 194.219 C 389.278 197.591,391.563 200.140,391.563 200.494 C 391.563 200.870,362.901 229.773,313.828 278.884 C 249.730 343.031,236.216 356.699,236.790 356.797 C 237.420 356.905,238.759 356.594,244.063 355.109 C 245.767 354.632,246.422 353.987,322.502 277.939 C 364.699 235.760,399.398 201.250,399.612 201.250 C 399.856 201.250,400.000 200.788,400.000 200.000 C 400.000 199.238,399.854 198.750,399.626 198.750 C 399.420 198.750,394.948 194.461,389.688 189.219 C 384.427 183.977,380.049 179.688,379.958 179.688 C 379.866 179.688,379.730 179.749,379.655 179.825 M89.333 205.391 C 85.544 215.144,79.106 223.818,73.754 226.383 C 66.599 229.812,62.125 225.747,64.216 217.717 C 66.260 209.870,75.753 203.370,86.406 202.525 C 88.125 202.388,89.767 202.256,90.055 202.232 C 90.491 202.195,90.372 202.717,89.333 205.391 M42.932 236.511 C 43.043 237.342,43.628 239.768,44.234 241.902 L 45.334 245.781 122.042 322.502 C 164.231 364.698,198.750 399.397,198.750 399.611 C 198.750 399.857,199.211 400.000,200.000 400.000 C 200.770 400.000,201.250 399.855,201.250 399.621 C 201.250 399.413,205.426 395.058,210.530 389.943 C 215.635 384.829,219.719 380.552,219.607 380.440 C 219.494 380.328,217.744 380.337,215.717 380.461 L 212.031 380.686 206.826 385.850 C 202.522 390.118,201.439 391.034,200.580 391.134 C 199.568 391.252,197.387 389.103,121.409 313.128 C 78.438 270.157,43.156 235.000,43.006 235.000 C 42.855 235.000,42.822 235.680,42.932 236.511 M205.184 294.921 C 205.083 295.022,205.000 295.714,205.000 296.458 L 205.000 297.813 203.328 297.813 C 201.195 297.813,199.688 298.325,199.688 299.051 C 199.688 300.724,198.598 301.250,195.134 301.250 C 191.577 301.250,191.648 301.202,192.247 303.201 C 192.831 305.149,194.342 305.938,197.494 305.938 C 199.676 305.938,200.091 306.028,200.703 306.641 L 201.406 307.344 199.844 307.551 C 198.984 307.665,197.692 307.770,196.972 307.785 C 194.651 307.834,194.691 310.151,197.040 311.728 C 198.262 312.548,198.425 312.793,198.431 313.828 C 198.445 316.309,197.403 315.656,190.000 308.546 C 186.793 305.466,185.851 305.102,182.754 305.750 C 179.848 306.358,178.927 306.859,178.807 307.897 C 178.702 308.808,178.265 308.317,189.453 319.877 C 191.473 321.964,193.125 323.779,193.125 323.911 C 193.125 324.043,189.926 324.096,186.016 324.028 L 178.906 323.906 178.935 325.000 C 178.993 327.220,179.382 328.306,180.548 329.513 C 182.798 331.838,182.925 331.873,189.330 331.874 C 194.433 331.875,195.046 331.930,194.877 332.369 C 194.773 332.641,194.688 334.680,194.688 336.901 L 194.688 340.938 193.811 340.938 C 192.754 340.938,190.236 342.474,189.531 343.550 C 188.981 344.389,188.613 346.621,188.274 351.172 L 188.059 354.063 187.006 354.063 C 184.605 354.063,181.875 357.085,181.875 359.743 L 181.875 361.250 187.422 361.257 L 192.969 361.263 196.479 357.585 L 199.988 353.906 199.994 351.681 L 200.000 349.456 201.375 349.071 C 203.499 348.477,207.494 350.265,207.499 351.812 C 207.499 352.036,207.715 352.633,207.977 353.141 L 208.454 354.063 207.220 354.063 C 204.646 354.063,201.875 357.084,201.875 359.890 L 201.875 361.563 207.280 361.563 L 212.684 361.563 216.226 358.189 L 219.768 354.815 219.635 349.186 C 219.485 342.844,219.267 342.176,216.994 341.097 L 215.851 340.555 216.080 329.457 L 216.309 318.360 217.372 316.290 C 218.670 313.761,218.700 312.692,217.539 310.382 C 216.534 308.380,215.938 305.969,215.938 303.901 C 215.938 301.165,213.865 298.880,210.874 298.319 C 210.196 298.192,208.832 297.414,207.546 296.420 C 206.348 295.494,205.285 294.820,205.184 294.921 " stroke="none" fill="#b8b488" fill-rule="evenodd"></path><path id="path1" d="" stroke="none" fill="#b4dbeb" fill-rule="evenodd"></path><path id="path2" d="M190.015 9.407 C 178.708 20.874,179.350 19.830,183.789 19.543 C 188.248 19.254,187.644 19.616,193.771 13.557 C 196.860 10.502,199.191 8.437,199.550 8.438 C 199.934 8.438,228.510 36.773,278.571 86.797 C 338.787 146.966,357.016 165.011,357.099 164.531 C 357.202 163.947,356.391 160.419,355.161 156.094 L 354.628 154.219 277.705 77.190 C 218.860 18.265,200.598 0.152,200.000 0.117 C 199.366 0.081,197.490 1.826,190.015 9.407 M158.410 44.194 C 156.418 44.761,154.544 45.362,154.245 45.529 C 152.729 46.377,-0.014 199.568,0.068 200.156 C 0.172 200.894,19.822 220.460,20.215 220.217 C 20.411 220.095,19.983 212.611,19.721 211.589 C 19.702 211.518,17.156 208.905,14.063 205.781 C 10.722 202.409,8.437 199.860,8.437 199.506 C 8.437 199.130,37.051 170.295,86.094 121.250 C 128.805 78.537,163.750 43.485,163.750 43.357 C 163.750 42.901,161.977 43.179,158.410 44.194 M107.279 154.766 C 106.767 156.184,103.409 165.675,99.815 175.858 L 93.281 194.372 86.711 194.373 C 66.191 194.379,53.190 200.616,47.534 213.169 C 41.580 226.381,49.079 235.938,65.401 235.938 C 83.560 235.938,96.606 226.663,106.173 206.953 L 108.486 202.188 116.382 202.188 L 124.278 202.188 119.825 214.609 L 115.373 227.031 124.140 227.114 C 128.962 227.160,132.956 227.148,133.017 227.087 C 133.122 226.982,141.875 202.468,141.875 202.278 C 141.875 202.228,148.951 202.188,157.600 202.188 C 174.838 202.188,175.224 202.152,177.740 200.329 C 179.202 199.270,180.572 197.131,180.838 195.492 L 181.019 194.375 162.853 194.375 C 152.862 194.375,144.688 194.336,144.688 194.289 C 144.688 194.241,147.430 186.495,150.781 177.075 C 154.133 167.655,156.875 159.817,156.875 159.657 C 156.875 159.481,153.362 159.398,148.051 159.448 L 139.227 159.531 133.105 176.875 L 126.984 194.219 118.961 194.302 C 114.220 194.351,110.938 194.268,110.938 194.098 C 110.938 193.838,124.382 156.165,125.476 153.359 L 125.932 152.188 117.070 152.188 L 108.208 152.188 107.279 154.766 M173.050 160.078 C 171.819 161.962,166.250 171.216,166.250 171.378 C 166.250 171.479,171.242 171.563,177.344 171.563 C 186.387 171.563,188.438 171.640,188.438 171.980 C 188.438 172.560,183.818 223.523,183.580 225.573 L 183.386 227.239 188.967 227.135 C 198.651 226.955,197.585 227.988,213.286 203.569 L 225.156 185.108 225.237 206.175 L 225.317 227.242 230.237 227.137 C 239.504 226.938,237.624 229.283,257.868 192.656 C 266.798 176.500,274.593 162.402,275.192 161.328 L 276.281 159.375 270.250 159.387 L 264.219 159.399 252.969 180.246 L 241.719 201.094 241.638 180.206 L 241.558 159.318 236.951 159.425 C 228.728 159.615,229.820 158.483,214.242 182.959 C 207.728 193.193,202.354 201.521,202.300 201.466 C 202.245 201.411,202.979 194.204,203.932 185.449 C 205.843 167.878,205.875 166.594,204.463 163.977 C 202.166 159.720,200.753 159.375,185.604 159.375 L 173.509 159.375 173.050 160.078 M278.138 160.859 C 277.633 161.676,275.961 164.383,274.423 166.875 L 271.627 171.406 298.079 171.582 C 326.560 171.771,326.520 171.768,329.201 173.427 C 334.611 176.776,333.959 184.675,327.872 189.520 C 324.775 191.985,321.200 193.636,312.188 196.767 C 309.174 197.814,307.372 198.596,307.418 198.837 C 307.563 199.590,318.145 222.544,318.874 223.686 C 319.857 225.226,320.857 226.118,322.260 226.704 C 323.626 227.274,346.157 227.427,348.129 226.879 C 351.329 225.990,354.146 223.218,354.582 220.529 L 354.768 219.384 345.186 219.301 L 335.604 219.219 331.396 210.186 C 326.499 199.675,326.817 200.847,328.672 200.161 C 339.564 196.134,349.435 188.914,352.498 182.734 C 356.342 174.976,353.487 166.262,345.876 162.522 C 339.693 159.483,338.332 159.375,306.177 159.375 L 279.057 159.375 278.138 160.859 M296.400 178.203 C 296.321 178.418,292.405 189.492,287.698 202.813 L 279.139 227.031 287.898 227.114 C 292.715 227.160,296.717 227.137,296.791 227.063 C 296.912 226.942,314.375 178.123,314.375 177.905 C 314.375 177.562,296.526 177.858,296.400 178.203 M379.655 179.825 C 379.549 179.930,380.122 187.796,380.279 188.411 C 380.298 188.482,382.844 191.095,385.938 194.219 C 389.278 197.591,391.563 200.140,391.563 200.494 C 391.563 200.870,362.901 229.773,313.828 278.884 C 249.730 343.031,236.216 356.699,236.790 356.797 C 237.420 356.905,238.759 356.594,244.063 355.109 C 245.767 354.632,246.422 353.987,322.502 277.939 C 364.699 235.760,399.398 201.250,399.612 201.250 C 399.856 201.250,400.000 200.788,400.000 200.000 C 400.000 199.238,399.854 198.750,399.626 198.750 C 399.420 198.750,394.948 194.461,389.688 189.219 C 384.427 183.977,380.049 179.688,379.958 179.688 C 379.866 179.688,379.730 179.749,379.655 179.825 M89.333 205.391 C 85.544 215.144,79.106 223.818,73.754 226.383 C 66.599 229.812,62.125 225.747,64.216 217.717 C 66.260 209.870,75.753 203.370,86.406 202.525 C 88.125 202.388,89.767 202.256,90.055 202.232 C 90.491 202.195,90.372 202.717,89.333 205.391 M42.932 236.511 C 43.043 237.342,43.628 239.768,44.234 241.902 L 45.334 245.781 122.042 322.502 C 164.231 364.698,198.750 399.397,198.750 399.611 C 198.750 399.857,199.211 400.000,200.000 400.000 C 200.770 400.000,201.250 399.855,201.250 399.621 C 201.250 399.413,205.426 395.058,210.530 389.943 C 215.635 384.829,219.719 380.552,219.607 380.440 C 219.494 380.328,217.744 380.337,215.717 380.461 L 212.031 380.686 206.826 385.850 C 202.522 390.118,201.439 391.034,200.580 391.134 C 199.568 391.252,197.387 389.103,121.409 313.128 C 78.438 270.157,43.156 235.000,43.006 235.000 C 42.855 235.000,42.822 235.680,42.932 236.511 M205.184 294.921 C 205.083 295.022,205.000 295.714,205.000 296.458 L 205.000 297.813 203.328 297.813 C 201.195 297.813,199.688 298.325,199.688 299.051 C 199.688 300.724,198.598 301.250,195.134 301.250 C 191.577 301.250,191.648 301.202,192.247 303.201 C 192.831 305.149,194.342 305.938,197.494 305.938 C 199.676 305.938,200.091 306.028,200.703 306.641 L 201.406 307.344 199.844 307.551 C 198.984 307.665,197.692 307.770,196.972 307.785 C 194.651 307.834,194.691 310.151,197.040 311.728 C 198.262 312.548,198.425 312.793,198.431 313.828 C 198.445 316.309,197.403 315.656,190.000 308.546 C 186.793 305.466,185.851 305.102,182.754 305.750 C 179.848 306.358,178.927 306.859,178.807 307.897 C 178.702 308.808,178.265 308.317,189.453 319.877 C 191.473 321.964,193.125 323.779,193.125 323.911 C 193.125 324.043,189.926 324.096,186.016 324.028 L 178.906 323.906 178.935 325.000 C 178.993 327.220,179.382 328.306,180.548 329.513 C 182.798 331.838,182.925 331.873,189.330 331.874 C 194.433 331.875,195.046 331.930,194.877 332.369 C 194.773 332.641,194.688 334.680,194.688 336.901 L 194.688 340.938 193.811 340.938 C 192.754 340.938,190.236 342.474,189.531 343.550 C 188.981 344.389,188.613 346.621,188.274 351.172 L 188.059 354.063 187.006 354.063 C 184.605 354.063,181.875 357.085,181.875 359.743 L 181.875 361.250 187.422 361.257 L 192.969 361.263 196.479 357.585 L 199.988 353.906 199.994 351.681 L 200.000 349.456 201.375 349.071 C 203.499 348.477,207.494 350.265,207.499 351.812 C 207.499 352.036,207.715 352.633,207.977 353.141 L 208.454 354.063 207.220 354.063 C 204.646 354.063,201.875 357.084,201.875 359.890 L 201.875 361.563 207.280 361.563 L 212.684 361.563 216.226 358.189 L 219.768 354.815 219.635 349.186 C 219.485 342.844,219.267 342.176,216.994 341.097 L 215.851 340.555 216.080 329.457 L 216.309 318.360 217.372 316.290 C 218.670 313.761,218.700 312.692,217.539 310.382 C 216.534 308.380,215.938 305.969,215.938 303.901 C 215.938 301.165,213.865 298.880,210.874 298.319 C 210.196 298.192,208.832 297.414,207.546 296.420 C 206.348 295.494,205.285 294.820,205.184 294.921 " stroke="none" fill="#b8b488" fill-rule="evenodd"></path><path id="path3" d="M187.655 10.631 C 178.989 19.302,177.204 21.229,177.969 21.086 C 178.484 20.990,181.062 20.732,183.698 20.513 L 188.489 20.115 194.004 14.511 L 199.519 8.906 279.199 88.659 C 323.023 132.523,358.925 168.367,358.981 168.311 C 359.135 168.156,357.931 162.861,356.651 158.067 L 355.509 153.789 278.574 76.856 C 230.375 28.656,201.480 -0.018,201.211 0.083 C 200.941 0.184,229.312 28.798,277.705 77.231 L 354.628 154.219 355.161 156.094 C 356.391 160.419,357.202 163.947,357.099 164.531 C 357.016 165.011,338.787 146.966,278.571 86.797 C 228.510 36.773,199.934 8.438,199.550 8.438 C 199.191 8.437,196.860 10.502,193.771 13.557 C 190.923 16.373,188.313 18.820,187.969 18.995 C 187.180 19.396,180.313 19.858,180.313 19.510 C 180.313 19.368,184.531 15.018,189.688 9.844 C 194.844 4.669,199.063 0.337,199.063 0.218 C 199.063 -0.610,197.068 1.211,187.655 10.631 M188.438 24.587 C 109.906 30.344,45.768 85.733,28.921 162.344 C 28.751 163.113,29.769 162.230,34.592 157.424 L 40.469 151.567 42.279 146.174 C 62.392 86.255,116.753 42.095,179.688 34.551 C 191.482 33.137,209.737 32.986,217.500 34.239 C 218.526 34.405,218.284 34.104,213.597 29.395 L 208.601 24.375 199.222 24.430 C 194.064 24.460,189.211 24.531,188.438 24.587 M211.767 28.811 C 215.410 32.405,216.032 33.373,214.453 32.989 C 210.533 32.037,188.709 32.508,178.906 33.756 C 115.731 41.801,62.036 85.512,41.546 145.574 L 39.645 151.144 35.302 155.479 C 32.914 157.863,30.851 159.705,30.719 159.573 C 30.381 159.235,32.251 152.123,34.403 145.563 C 56.706 77.577,116.656 30.764,188.125 25.525 C 188.898 25.468,193.736 25.397,198.876 25.367 L 208.221 25.313 211.767 28.811 M242.266 34.297 L 248.433 40.469 253.826 42.279 C 327.018 66.848,374.259 140.936,365.752 217.813 L 365.562 219.531 370.281 214.848 L 375.000 210.164 374.998 200.473 C 374.985 126.009,330.046 60.987,260.737 35.145 C 253.287 32.367,238.651 28.125,236.517 28.125 C 236.287 28.125,238.875 30.902,242.266 34.297 M243.946 30.754 C 320.216 50.013,374.046 120.085,374.061 200.129 L 374.063 209.789 370.643 213.246 C 368.763 215.148,367.134 216.614,367.025 216.504 C 366.915 216.394,366.977 214.526,367.162 212.354 C 373.508 138.096,325.899 65.941,254.471 41.564 L 248.906 39.665 244.297 35.071 C 239.953 30.741,238.946 29.436,240.234 29.800 C 240.535 29.885,242.206 30.315,243.946 30.754 M160.625 42.703 C 157.617 43.483,154.863 44.191,154.504 44.275 C 153.553 44.499,-0.116 198.260,0.083 198.789 C 0.184 199.059,28.798 170.688,77.231 122.295 C 153.567 46.023,154.233 45.368,155.938 44.891 C 161.241 43.406,162.580 43.095,163.210 43.203 C 163.784 43.301,150.270 56.969,86.172 121.116 C 37.099 170.227,8.438 199.130,8.438 199.506 C 8.438 199.860,10.722 202.409,14.063 205.781 C 17.156 208.905,19.702 211.518,19.721 211.589 C 19.983 212.611,20.411 220.095,20.215 220.217 C 20.067 220.308,15.511 215.972,10.090 210.582 C 3.861 204.388,0.176 200.939,0.078 201.211 C -0.018 201.474,4.184 205.891,10.926 212.617 C 21.559 223.225,21.923 223.552,21.738 222.344 C 21.634 221.656,21.357 218.858,21.124 216.126 L 20.700 211.159 14.803 205.351 L 8.906 199.543 88.125 120.397 C 139.664 68.905,167.125 41.256,166.719 41.267 C 166.375 41.277,163.633 41.923,160.625 42.703 M378.261 177.656 C 378.366 178.344,378.643 181.142,378.876 183.874 L 379.300 188.841 385.197 194.649 L 391.094 200.457 311.966 279.512 C 268.445 322.992,232.892 358.622,232.959 358.688 C 233.123 358.852,236.738 358.036,241.875 356.676 L 246.094 355.560 323.047 278.639 C 365.371 236.333,400.000 201.614,400.000 201.485 C 400.000 200.588,391.206 209.264,322.502 277.939 C 246.422 353.987,245.767 354.632,244.063 355.109 C 238.759 356.594,237.420 356.905,236.790 356.797 C 236.216 356.699,249.730 343.031,313.828 278.884 C 362.901 229.773,391.563 200.870,391.563 200.494 C 391.563 200.140,389.278 197.591,385.938 194.219 C 382.844 191.095,380.298 188.482,380.279 188.411 C 380.018 187.390,379.589 179.905,379.785 179.784 C 379.933 179.692,384.373 183.922,389.652 189.184 C 398.244 197.746,400.000 199.329,400.000 198.514 C 400.000 198.384,395.066 193.357,389.035 187.342 C 378.438 176.773,378.077 176.448,378.261 177.656 M29.594 185.249 L 25.000 189.851 25.002 199.535 C 25.015 274.027,69.952 339.013,139.337 364.883 C 147.051 367.759,163.077 372.339,163.600 371.817 C 163.670 371.747,160.955 368.938,157.567 365.576 L 151.406 359.461 145.705 357.539 C 73.755 333.277,25.648 258.556,34.048 184.108 C 34.249 182.328,34.363 180.821,34.301 180.760 C 34.239 180.698,32.121 182.718,29.594 185.249 M33.005 184.922 C 32.101 192.271,32.494 211.181,33.756 221.094 C 41.799 284.252,85.499 337.949,145.529 358.436 L 151.094 360.335 155.703 364.929 C 160.047 369.259,161.054 370.564,159.766 370.200 C 159.465 370.115,157.794 369.685,156.054 369.246 C 79.788 349.988,25.954 279.912,25.939 199.875 L 25.938 190.219 29.279 186.828 C 33.077 182.974,33.256 182.882,33.005 184.922 M40.938 231.644 C 40.938 232.184,42.279 237.940,43.322 241.875 L 44.440 246.094 121.361 323.047 C 163.667 365.371,198.386 400.000,198.515 400.000 C 199.413 400.000,190.725 391.196,122.042 322.502 L 45.334 245.781 44.234 241.902 C 43.051 237.734,42.565 235.000,43.006 235.000 C 43.156 235.000,78.437 270.156,121.407 313.125 C 191.361 383.077,200.313 391.913,200.313 391.015 C 200.313 390.886,164.453 354.922,120.625 311.094 C 76.797 267.266,40.938 231.514,40.938 231.644 M365.263 242.746 L 359.462 248.594 357.539 254.295 C 337.445 313.884,283.072 357.926,220.313 365.449 C 208.518 366.863,190.263 367.014,182.500 365.761 C 181.473 365.595,181.711 365.892,186.406 370.630 L 191.406 375.676 202.500 375.525 C 277.447 374.511,342.645 326.659,366.238 255.350 C 368.237 249.307,371.448 237.281,371.143 236.976 C 371.100 236.933,368.454 239.530,365.263 242.746 M368.133 246.222 C 347.880 321.136,280.501 373.603,203.281 374.590 L 191.719 374.738 187.984 370.973 C 185.930 368.903,184.330 367.128,184.428 367.030 C 184.526 366.932,186.403 366.998,188.599 367.176 C 262.173 373.150,334.319 325.390,358.171 254.920 L 360.101 249.219 364.660 244.592 C 370.065 239.105,370.057 239.102,368.133 246.222 M203.051 297.721 C 203.439 297.796,204.002 297.793,204.301 297.715 C 204.599 297.636,204.281 297.575,203.594 297.579 C 202.906 297.582,202.662 297.646,203.051 297.721 M201.641 360.156 C 201.645 360.844,201.709 361.088,201.784 360.699 C 201.858 360.311,201.855 359.748,201.777 359.449 C 201.699 359.151,201.638 359.469,201.641 360.156 M218.906 379.236 C 217.016 379.452,214.634 379.642,213.613 379.658 L 211.758 379.688 206.192 385.223 C 203.130 388.268,200.625 390.869,200.625 391.004 C 200.625 391.768,201.878 390.728,206.690 385.971 L 212.031 380.691 215.717 380.464 C 217.744 380.338,219.494 380.328,219.607 380.440 C 219.719 380.552,215.635 384.829,210.530 389.943 C 202.233 398.257,200.666 400.000,201.486 400.000 C 201.616 400.000,206.502 395.219,212.344 389.375 C 218.186 383.531,222.825 378.771,222.655 378.796 C 222.484 378.822,220.797 379.020,218.906 379.236 " stroke="none" fill="#bc3e4c" fill-rule="evenodd"></path><path id="path4" d="M188.750 25.525 C 112.099 31.143,47.953 85.158,30.814 158.516 C 30.457 160.045,31.243 159.491,35.472 155.234 L 39.586 151.094 41.516 145.393 C 61.041 87.718,112.514 44.291,172.910 34.536 C 183.501 32.826,186.046 32.656,201.138 32.656 L 215.244 32.656 214.687 31.875 C 214.381 31.445,212.785 29.793,211.142 28.203 L 208.153 25.313 199.155 25.367 C 194.206 25.397,189.523 25.468,188.750 25.525 M240.226 30.810 C 240.584 31.310,242.683 33.485,244.891 35.644 L 248.906 39.569 254.607 41.508 C 315.768 62.301,359.115 116.725,366.778 182.344 C 367.366 187.378,367.594 209.321,367.107 213.984 C 366.793 216.989,366.955 216.947,370.853 213.006 L 374.063 209.761 374.061 200.427 C 374.046 121.702,323.170 53.700,248.061 32.013 C 244.844 31.084,241.618 30.229,240.893 30.113 L 239.575 29.902 240.226 30.810 M202.036 106.016 C 201.964 106.230,201.597 107.988,201.221 109.922 L 200.537 113.438 198.131 113.438 C 193.603 113.438,189.773 116.340,187.150 121.759 C 182.291 131.797,189.777 136.892,196.400 128.055 C 197.257 126.913,197.983 126.004,198.016 126.037 C 198.048 126.069,197.810 127.361,197.487 128.907 C 197.164 130.453,196.894 131.824,196.887 131.953 C 196.881 132.082,198.060 132.188,199.509 132.188 L 202.143 132.188 202.483 130.547 C 202.670 129.645,203.852 123.668,205.108 117.266 L 207.393 105.625 204.780 105.625 C 202.969 105.625,202.128 105.745,202.036 106.016 M111.744 107.192 C 108.090 108.619,105.945 112.479,106.878 115.951 C 107.271 117.414,108.362 118.624,112.577 122.274 C 117.951 126.926,113.618 131.230,106.241 128.569 C 103.645 127.633,103.842 127.555,103.440 129.676 C 102.968 132.165,102.923 132.095,105.240 132.509 C 114.122 134.096,120.924 130.772,120.924 124.844 C 120.924 121.973,120.354 121.192,114.582 116.154 C 109.766 111.949,113.446 108.317,120.176 110.632 C 121.187 110.979,122.178 111.200,122.380 111.123 C 122.669 111.012,123.284 108.237,123.184 107.500 C 123.051 106.527,114.067 106.285,111.744 107.192 M139.063 110.072 C 137.113 110.424,137.007 110.529,136.727 112.395 C 136.528 113.725,136.502 113.750,135.314 113.750 C 134.039 113.750,134.009 113.786,133.592 115.859 C 133.388 116.873,133.390 116.875,134.669 116.875 C 135.838 116.875,135.935 116.936,135.783 117.578 C 132.702 130.611,133.136 132.465,139.278 132.489 C 142.492 132.501,142.357 132.578,142.661 130.547 L 142.883 129.063 141.464 129.063 C 140.154 129.063,139.063 128.506,139.063 127.839 C 139.063 127.592,140.794 118.853,141.096 117.578 C 141.245 116.947,141.451 116.875,143.110 116.875 C 145.097 116.875,145.034 116.931,145.470 114.766 L 145.675 113.750 143.740 113.750 L 141.805 113.750 142.023 112.578 C 142.142 111.934,142.316 111.020,142.409 110.547 C 142.603 109.560,142.208 109.504,139.063 110.072 M281.875 110.072 C 279.926 110.424,279.820 110.529,279.540 112.395 C 279.340 113.725,279.314 113.750,278.127 113.750 C 276.852 113.750,276.822 113.786,276.405 115.859 C 276.201 116.873,276.203 116.875,277.481 116.875 C 278.650 116.875,278.747 116.936,278.596 117.578 C 275.514 130.611,275.949 132.465,282.091 132.489 C 285.304 132.501,285.170 132.578,285.474 130.547 L 285.696 129.063 284.277 129.063 C 282.966 129.063,281.875 128.506,281.875 127.839 C 281.875 127.592,283.607 118.853,283.908 117.578 C 284.057 116.947,284.264 116.875,285.922 116.875 C 287.910 116.875,287.847 116.931,288.283 114.766 L 288.487 113.750 286.553 113.750 L 284.618 113.750 284.835 112.578 C 284.955 111.934,285.128 111.020,285.221 110.547 C 285.416 109.560,285.020 109.504,281.875 110.072 M224.131 114.089 C 216.037 117.275,213.312 129.929,220.229 132.211 C 223.157 133.178,231.998 131.724,232.339 130.220 C 233.297 125.991,233.438 126.170,230.316 127.636 C 226.387 129.479,222.808 129.512,221.943 127.714 C 221.158 126.081,221.237 125.625,222.307 125.625 C 229.650 125.625,235.817 118.226,231.699 114.356 C 230.548 113.275,226.557 113.134,224.131 114.089 M257.813 114.052 C 256.551 114.728,254.177 117.105,252.998 118.872 C 252.051 120.291,252.059 120.366,252.783 116.629 L 253.345 113.727 250.666 113.817 L 247.987 113.906 246.348 122.344 C 245.447 126.984,244.632 131.098,244.536 131.484 C 244.367 132.172,244.422 132.188,247.019 132.188 C 249.517 132.188,249.685 132.146,249.839 131.484 C 249.928 131.098,250.213 129.752,250.470 128.493 C 251.036 125.727,253.724 121.594,256.545 119.152 C 258.927 117.089,258.838 119.500,256.087 131.484 C 255.866 132.448,261.088 132.603,261.366 131.641 C 262.217 128.700,264.103 117.720,263.979 116.429 C 263.710 113.625,260.742 112.481,257.813 114.052 M158.172 115.234 C 154.909 130.519,155.011 132.500,159.061 132.500 C 161.661 132.500,163.903 130.914,166.524 127.219 C 167.061 126.462,167.500 125.926,167.500 126.026 C 167.500 126.216,166.689 130.245,166.401 131.484 C 166.178 132.448,171.400 132.603,171.679 131.641 C 171.766 131.340,172.557 127.438,173.438 122.969 C 174.318 118.500,175.109 114.598,175.196 114.297 C 175.338 113.806,175.079 113.750,172.683 113.750 C 170.168 113.750,170.003 113.791,169.855 114.453 C 169.769 114.840,169.485 116.115,169.224 117.287 C 168.222 121.786,161.250 130.291,161.250 127.015 C 161.250 126.574,163.245 116.124,163.648 114.453 C 163.814 113.766,163.758 113.750,161.154 113.750 L 158.489 113.750 158.172 115.234 M199.443 118.395 C 199.274 121.028,193.573 127.699,191.720 127.434 C 189.828 127.162,192.421 119.717,195.079 117.792 C 196.187 116.989,196.619 116.861,197.957 116.939 L 199.531 117.031 199.443 118.395 M227.819 117.512 C 228.800 119.345,225.844 122.188,222.958 122.188 C 221.937 122.188,221.852 122.122,222.043 121.484 C 223.047 118.116,226.772 115.555,227.819 117.512 M29.147 186.994 L 25.938 190.239 25.939 199.573 C 25.954 279.293,78.172 347.954,154.603 368.753 C 161.298 370.575,161.284 370.616,155.781 365.106 L 151.094 360.413 145.393 358.483 C 84.341 337.824,40.884 283.265,33.222 217.656 C 32.634 212.622,32.406 190.679,32.893 186.016 C 33.207 183.011,33.045 183.053,29.147 186.994 M364.756 244.491 L 360.365 248.825 358.481 254.348 C 337.422 316.076,283.525 358.918,217.031 366.784 C 212.048 367.373,188.852 367.614,186.016 367.106 C 183.981 366.741,184.282 367.290,188.271 371.226 L 191.855 374.762 202.880 374.599 C 281.373 373.441,349.235 320.015,368.601 244.131 C 369.749 239.634,369.670 239.641,364.756 244.491 M282.708 259.141 C 282.614 259.527,281.123 267.016,279.397 275.781 C 277.670 284.547,276.182 292.035,276.091 292.422 C 275.927 293.119,275.957 293.125,279.369 293.125 C 281.263 293.125,282.813 293.086,282.813 293.039 C 282.813 292.991,284.359 285.226,286.250 275.781 C 288.141 266.337,289.688 258.571,289.688 258.524 C 289.688 257.928,282.857 258.531,282.708 259.141 M114.852 260.996 C 114.773 261.222,113.362 268.297,111.715 276.719 C 110.068 285.141,108.646 292.282,108.555 292.589 C 108.401 293.104,108.656 293.139,111.920 293.057 L 115.451 292.969 116.700 286.641 L 117.950 280.313 120.784 280.313 C 128.514 280.313,133.740 276.533,135.498 269.671 C 136.442 265.983,135.329 262.867,132.583 261.514 C 130.767 260.621,115.143 260.164,114.852 260.996 M220.625 264.327 L 217.969 264.844 217.531 266.953 L 217.094 269.063 215.454 269.063 L 213.814 269.063 213.470 271.041 C 213.280 272.130,213.125 273.114,213.125 273.229 C 213.125 273.344,213.828 273.438,214.688 273.438 C 215.547 273.438,216.250 273.481,216.250 273.534 C 216.250 273.587,215.617 276.715,214.844 280.486 C 212.581 291.518,213.266 293.471,219.481 293.700 C 223.756 293.857,224.447 293.601,224.892 291.699 C 225.570 288.797,225.557 288.770,223.589 288.973 C 221.438 289.195,220.625 288.620,220.625 286.879 C 220.625 285.912,222.273 277.096,222.977 274.297 C 223.189 273.450,223.230 273.438,225.653 273.438 C 228.401 273.438,228.076 273.746,228.698 270.547 L 228.987 269.063 226.525 269.063 C 223.595 269.063,223.724 269.420,224.852 264.453 C 225.049 263.588,224.501 263.572,220.625 264.327 M126.117 265.489 C 131.860 266.350,127.289 275.097,120.747 275.764 L 118.838 275.959 119.934 270.475 L 121.030 264.992 123.093 265.168 C 124.228 265.265,125.589 265.409,126.117 265.489 M155.359 269.045 C 146.380 272.364,140.989 285.613,146.344 291.199 C 148.992 293.962,155.449 294.650,159.688 292.622 C 167.837 288.722,172.331 276.126,167.406 270.988 C 165.031 268.511,159.304 267.587,155.359 269.045 M198.035 269.245 C 196.134 270.235,193.334 273.027,191.633 275.630 C 190.907 276.742,190.313 277.566,190.313 277.462 C 190.313 277.358,190.664 275.547,191.094 273.438 C 191.523 271.328,191.875 269.480,191.875 269.332 C 191.875 269.184,190.345 269.063,188.474 269.063 L 185.073 269.063 182.834 280.547 C 181.602 286.863,180.521 292.277,180.432 292.578 C 180.285 293.076,180.582 293.125,183.729 293.125 C 185.631 293.125,187.188 293.074,187.188 293.012 C 187.188 290.736,188.942 284.884,190.162 283.092 C 194.274 277.051,197.076 274.586,199.656 274.740 L 201.386 274.844 202.231 272.188 C 203.448 268.364,203.465 268.435,201.328 268.452 C 200.043 268.462,199.105 268.688,198.035 269.245 M250.539 269.184 C 247.052 270.638,244.170 273.359,241.760 277.473 C 233.092 292.262,244.229 300.746,253.698 286.566 C 254.414 285.494,255.000 284.754,255.000 284.921 C 255.000 285.089,254.648 286.953,254.219 289.063 C 253.789 291.172,253.438 292.949,253.438 293.012 C 253.438 293.074,254.964 293.125,256.829 293.125 L 260.220 293.125 262.477 281.797 C 263.718 275.566,264.805 270.165,264.893 269.793 C 265.049 269.139,264.942 269.112,261.511 268.930 C 259.563 268.827,256.703 268.672,255.156 268.587 C 252.680 268.449,252.128 268.521,250.539 269.184 M160.776 273.619 C 163.418 275.350,162.307 283.573,158.951 287.136 C 155.374 290.933,151.428 289.392,151.451 284.208 C 151.482 277.075,156.813 271.022,160.776 273.619 M257.034 273.442 C 258.645 276.048,248.866 288.451,246.052 287.371 C 243.904 286.547,248.167 276.149,251.528 274.017 C 253.000 273.084,256.581 272.710,257.034 273.442 " stroke="none" fill="#b4dbea" fill-rule="evenodd"></path></g></svg>