<svg id="svg" version="1.1" xmlns="http://www.w3.org/2000/svg" xmlns:xlink="http://www.w3.org/1999/xlink" width="400" height="400" viewBox="0, 0, 400,400"><g id="svgg"><path id="path0" d="M202.036 106.016 C 201.964 106.230,201.597 107.988,201.221 109.922 L 200.537 113.438 198.131 113.438 C 193.603 113.438,189.773 116.340,187.150 121.759 C 182.291 131.797,189.777 136.892,196.400 128.055 C 197.257 126.913,197.983 126.004,198.016 126.037 C 198.048 126.069,197.810 127.361,197.487 128.907 C 197.164 130.453,196.894 131.824,196.887 131.953 C 196.881 132.082,198.060 132.188,199.509 132.188 L 202.143 132.188 202.483 130.547 C 202.670 129.645,203.852 123.668,205.108 117.266 L 207.393 105.625 204.780 105.625 C 202.969 105.625,202.128 105.745,202.036 106.016 M111.744 107.192 C 108.090 108.619,105.945 112.479,106.878 115.951 C 107.271 117.414,108.362 118.624,112.577 122.274 C 117.951 126.926,113.618 131.230,106.241 128.569 C 103.645 127.633,103.842 127.555,103.440 129.676 C 102.968 132.165,102.923 132.095,105.240 132.509 C 114.122 134.096,120.924 130.772,120.924 124.844 C 120.924 121.973,120.354 121.192,114.582 116.154 C 109.766 111.949,113.446 108.317,120.176 110.632 C 121.187 110.979,122.178 111.200,122.380 111.123 C 122.669 111.012,123.284 108.237,123.184 107.500 C 123.051 106.527,114.067 106.285,111.744 107.192 M139.063 110.072 C 137.113 110.424,137.007 110.529,136.727 112.395 C 136.528 113.725,136.502 113.750,135.314 113.750 C 134.039 113.750,134.009 113.786,133.592 115.859 C 133.388 116.873,133.390 116.875,134.669 116.875 C 135.838 116.875,135.935 116.936,135.783 117.578 C 132.702 130.611,133.136 132.465,139.278 132.489 C 142.492 132.501,142.357 132.578,142.661 130.547 L 142.883 129.063 141.464 129.063 C 140.154 129.063,139.063 128.506,139.063 127.839 C 139.063 127.592,140.794 118.853,141.096 117.578 C 141.245 116.947,141.451 116.875,143.110 116.875 C 145.097 116.875,145.034 116.931,145.470 114.766 L 145.675 113.750 143.740 113.750 L 141.805 113.750 142.023 112.578 C 142.142 111.934,142.316 111.020,142.409 110.547 C 142.603 109.560,142.208 109.504,139.063 110.072 M281.875 110.072 C 279.926 110.424,279.820 110.529,279.540 112.395 C 279.340 113.725,279.314 113.750,278.127 113.750 C 276.852 113.750,276.822 113.786,276.405 115.859 C 276.201 116.873,276.203 116.875,277.481 116.875 C 278.650 116.875,278.747 116.936,278.596 117.578 C 275.514 130.611,275.949 132.465,282.091 132.489 C 285.304 132.501,285.170 132.578,285.474 130.547 L 285.696 129.063 284.277 129.063 C 282.966 129.063,281.875 128.506,281.875 127.839 C 281.875 127.592,283.607 118.853,283.908 117.578 C 284.057 116.947,284.264 116.875,285.922 116.875 C 287.910 116.875,287.847 116.931,288.283 114.766 L 288.487 113.750 286.553 113.750 L 284.618 113.750 284.835 112.578 C 284.955 111.934,285.128 111.020,285.221 110.547 C 285.416 109.560,285.020 109.504,281.875 110.072 M224.131 114.089 C 216.037 117.275,213.312 129.929,220.229 132.211 C 223.157 133.178,231.998 131.724,232.339 130.220 C 233.297 125.991,233.438 126.170,230.316 127.636 C 226.387 129.479,222.808 129.512,221.943 127.714 C 221.158 126.081,221.237 125.625,222.307 125.625 C 229.650 125.625,235.817 118.226,231.699 114.356 C 230.548 113.275,226.557 113.134,224.131 114.089 M257.813 114.052 C 256.551 114.728,254.177 117.105,252.998 118.872 C 252.051 120.291,252.059 120.366,252.783 116.629 L 253.345 113.727 250.666 113.817 L 247.987 113.906 246.348 122.344 C 245.447 126.984,244.632 131.098,244.536 131.484 C 244.367 132.172,244.422 132.188,247.019 132.188 C 249.517 132.188,249.685 132.146,249.839 131.484 C 249.928 131.098,250.213 129.752,250.470 128.493 C 251.036 125.727,253.724 121.594,256.545 119.152 C 258.927 117.089,258.838 119.500,256.087 131.484 C 255.866 132.448,261.088 132.603,261.366 131.641 C 262.217 128.700,264.103 117.720,263.979 116.429 C 263.710 113.625,260.742 112.481,257.813 114.052 M158.172 115.234 C 154.909 130.519,155.011 132.500,159.061 132.500 C 161.661 132.500,163.903 130.914,166.524 127.219 C 167.061 126.462,167.500 125.926,167.500 126.026 C 167.500 126.216,166.689 130.245,166.401 131.484 C 166.178 132.448,171.400 132.603,171.679 131.641 C 171.766 131.340,172.557 127.438,173.438 122.969 C 174.318 118.500,175.109 114.598,175.196 114.297 C 175.338 113.806,175.079 113.750,172.683 113.750 C 170.168 113.750,170.003 113.791,169.855 114.453 C 169.769 114.840,169.485 116.115,169.224 117.287 C 168.222 121.786,161.250 130.291,161.250 127.015 C 161.250 126.574,163.245 116.124,163.648 114.453 C 163.814 113.766,163.758 113.750,161.154 113.750 L 158.489 113.750 158.172 115.234 M199.443 118.395 C 199.274 121.028,193.573 127.699,191.720 127.434 C 189.828 127.162,192.421 119.717,195.079 117.792 C 196.187 116.989,196.619 116.861,197.957 116.939 L 199.531 117.031 199.443 118.395 M227.819 117.512 C 228.800 119.345,225.844 122.188,222.958 122.188 C 221.937 122.188,221.852 122.122,222.043 121.484 C 223.047 118.116,226.772 115.555,227.819 117.512 M107.279 160.703 C 106.767 162.121,103.409 171.613,99.815 181.795 L 93.281 200.309 86.711 200.311 C 66.191 200.316,53.190 206.554,47.534 219.106 C 41.580 232.319,49.079 241.875,65.401 241.875 C 83.560 241.875,96.606 232.601,106.173 212.891 L 108.486 208.125 116.382 208.125 L 124.278 208.125 119.825 220.547 L 115.373 232.969 124.140 233.052 C 128.962 233.098,132.956 233.085,133.017 233.024 C 133.122 232.919,141.875 208.405,141.875 208.216 C 141.875 208.166,148.951 208.125,157.600 208.125 C 174.838 208.125,175.224 208.089,177.740 206.266 C 179.202 205.207,180.572 203.069,180.838 201.430 L 181.019 200.313 162.853 200.313 C 152.862 200.313,144.688 200.274,144.688 200.226 C 144.688 200.178,147.430 192.432,150.781 183.013 C 154.133 173.593,156.875 165.755,156.875 165.594 C 156.875 165.419,153.362 165.336,148.051 165.386 L 139.227 165.469 133.105 182.813 L 126.984 200.156 118.961 200.240 C 114.220 200.289,110.938 200.205,110.938 200.035 C 110.938 199.776,124.382 162.103,125.476 159.297 L 125.932 158.125 117.070 158.125 L 108.208 158.125 107.279 160.703 M173.050 166.016 C 171.819 167.899,166.250 177.153,166.250 177.315 C 166.250 177.417,171.242 177.500,177.344 177.500 C 186.387 177.500,188.438 177.577,188.438 177.917 C 188.438 178.498,183.818 229.460,183.580 231.510 L 183.386 233.176 188.967 233.073 C 198.651 232.892,197.585 233.925,213.286 209.507 L 225.156 191.045 225.237 212.113 L 225.317 233.180 230.237 233.074 C 239.504 232.875,237.624 235.220,257.868 198.594 C 266.798 182.438,274.593 168.340,275.192 167.266 L 276.281 165.313 270.250 165.325 L 264.219 165.337 252.969 186.184 L 241.719 207.031 241.638 186.143 L 241.558 165.255 236.951 165.362 C 228.728 165.553,229.820 164.421,214.242 188.896 C 207.728 199.130,202.354 207.459,202.300 207.404 C 202.245 207.349,202.979 200.141,203.932 191.386 C 205.843 173.815,205.875 172.531,204.463 169.915 C 202.166 165.657,200.753 165.313,185.604 165.313 L 173.509 165.313 173.050 166.016 M278.138 166.797 C 277.633 167.613,275.961 170.320,274.423 172.813 L 271.627 177.344 298.079 177.519 C 326.560 177.708,326.520 177.706,329.201 179.365 C 334.611 182.714,333.959 190.612,327.872 195.457 C 324.775 197.922,321.200 199.574,312.188 202.704 C 309.174 203.751,307.372 204.533,307.418 204.775 C 307.563 205.528,318.145 228.481,318.874 229.623 C 319.857 231.163,320.857 232.055,322.260 232.641 C 323.626 233.212,346.157 233.364,348.129 232.816 C 351.329 231.928,354.146 229.156,354.582 226.466 L 354.768 225.322 345.186 225.239 L 335.604 225.156 331.396 216.124 C 326.499 205.612,326.817 206.784,328.672 206.099 C 339.564 202.072,349.435 194.851,352.498 188.671 C 356.342 180.913,353.487 172.199,345.876 168.459 C 339.693 165.420,338.332 165.313,306.177 165.313 L 279.057 165.313 278.138 166.797 M296.400 184.141 C 296.321 184.355,292.405 195.430,287.698 208.750 L 279.139 232.969 287.898 233.052 C 292.715 233.098,296.717 233.074,296.791 233.001 C 296.912 232.879,314.375 184.060,314.375 183.842 C 314.375 183.499,296.526 183.796,296.400 184.141 M89.333 211.328 C 85.544 221.081,79.106 229.756,73.754 232.321 C 66.599 235.750,62.125 231.684,64.216 223.654 C 66.260 215.807,75.753 209.308,86.406 208.462 C 88.125 208.326,89.767 208.194,90.055 208.169 C 90.491 208.132,90.372 208.655,89.333 211.328 M282.708 259.141 C 282.614 259.527,281.123 267.016,279.397 275.781 C 277.670 284.547,276.182 292.035,276.091 292.422 C 275.927 293.119,275.957 293.125,279.369 293.125 C 281.263 293.125,282.813 293.086,282.813 293.039 C 282.813 292.991,284.359 285.226,286.250 275.781 C 288.141 266.337,289.688 258.571,289.688 258.524 C 289.688 257.928,282.857 258.531,282.708 259.141 M114.852 260.996 C 114.773 261.222,113.362 268.297,111.715 276.719 C 110.068 285.141,108.646 292.282,108.555 292.589 C 108.401 293.104,108.656 293.139,111.920 293.057 L 115.451 292.969 116.700 286.641 L 117.950 280.313 120.784 280.313 C 128.514 280.313,133.740 276.533,135.498 269.671 C 136.442 265.983,135.329 262.867,132.583 261.514 C 130.767 260.621,115.143 260.164,114.852 260.996 M220.625 264.327 L 217.969 264.844 217.531 266.953 L 217.094 269.063 215.454 269.063 L 213.814 269.063 213.470 271.041 C 213.280 272.130,213.125 273.114,213.125 273.229 C 213.125 273.344,213.828 273.438,214.688 273.438 C 215.547 273.438,216.250 273.481,216.250 273.534 C 216.250 273.587,215.617 276.715,214.844 280.486 C 212.581 291.518,213.266 293.471,219.481 293.700 C 223.756 293.857,224.447 293.601,224.892 291.699 C 225.570 288.797,225.557 288.770,223.589 288.973 C 221.438 289.195,220.625 288.620,220.625 286.879 C 220.625 285.912,222.273 277.096,222.977 274.297 C 223.189 273.450,223.230 273.438,225.653 273.438 C 228.401 273.438,228.076 273.746,228.698 270.547 L 228.987 269.063 226.525 269.063 C 223.595 269.063,223.724 269.420,224.852 264.453 C 225.049 263.588,224.501 263.572,220.625 264.327 M126.117 265.489 C 131.860 266.350,127.289 275.097,120.747 275.764 L 118.838 275.959 119.934 270.475 L 121.030 264.992 123.093 265.168 C 124.228 265.265,125.589 265.409,126.117 265.489 M155.359 269.045 C 146.380 272.364,140.989 285.613,146.344 291.199 C 148.992 293.962,155.449 294.650,159.688 292.622 C 167.837 288.722,172.331 276.126,167.406 270.988 C 165.031 268.511,159.304 267.587,155.359 269.045 M198.035 269.245 C 196.134 270.235,193.334 273.027,191.633 275.630 C 190.907 276.742,190.313 277.566,190.313 277.462 C 190.313 277.358,190.664 275.547,191.094 273.438 C 191.523 271.328,191.875 269.480,191.875 269.332 C 191.875 269.184,190.345 269.063,188.474 269.063 L 185.073 269.063 182.834 280.547 C 181.602 286.863,180.521 292.277,180.432 292.578 C 180.285 293.076,180.582 293.125,183.729 293.125 C 185.631 293.125,187.188 293.074,187.188 293.012 C 187.188 290.736,188.942 284.884,190.162 283.092 C 194.274 277.051,197.076 274.586,199.656 274.740 L 201.386 274.844 202.231 272.188 C 203.448 268.364,203.465 268.435,201.328 268.452 C 200.043 268.462,199.105 268.688,198.035 269.245 M250.539 269.184 C 247.052 270.638,244.170 273.359,241.760 277.473 C 233.092 292.262,244.229 300.746,253.698 286.566 C 254.414 285.494,255.000 284.754,255.000 284.921 C 255.000 285.089,254.648 286.953,254.219 289.063 C 253.789 291.172,253.438 292.949,253.438 293.012 C 253.438 293.074,254.964 293.125,256.829 293.125 L 260.220 293.125 262.477 281.797 C 263.718 275.566,264.805 270.165,264.893 269.793 C 265.049 269.139,264.942 269.112,261.511 268.930 C 259.563 268.827,256.703 268.672,255.156 268.587 C 252.680 268.449,252.128 268.521,250.539 269.184 M160.776 273.619 C 163.418 275.350,162.307 283.573,158.951 287.136 C 155.374 290.933,151.428 289.392,151.451 284.208 C 151.482 277.075,156.813 271.022,160.776 273.619 M257.034 273.442 C 258.645 276.048,248.866 288.451,246.052 287.371 C 243.904 286.547,248.167 276.149,251.528 274.017 C 253.000 273.084,256.581 272.710,257.034 273.442 " stroke="none" fill="#f40c0c" fill-rule="evenodd"></path><path id="path1" d="M187.655 10.666 C 181.812 16.532,177.267 21.252,177.554 21.154 C 177.842 21.056,180.373 20.802,183.179 20.590 L 188.281 20.205 193.912 14.639 L 199.542 9.073 279.211 88.742 C 323.029 132.560,358.926 168.366,358.981 168.310 C 359.133 168.159,357.944 162.902,356.678 158.125 L 355.560 153.906 278.639 76.953 L 201.719 -0.000 199.999 -0.000 L 198.278 0.000 187.655 10.666 M188.438 24.587 C 109.906 30.344,45.768 85.733,28.921 162.344 C 28.751 163.113,29.769 162.230,34.592 157.424 L 40.469 151.567 42.279 146.174 C 62.392 86.255,116.753 42.095,179.688 34.551 C 191.482 33.137,209.737 32.986,217.500 34.239 C 218.526 34.405,218.284 34.104,213.597 29.395 L 208.601 24.375 199.222 24.430 C 194.064 24.460,189.211 24.531,188.438 24.587 M242.266 34.297 L 248.433 40.469 253.826 42.279 C 327.018 66.848,374.259 140.936,365.752 217.813 L 365.562 219.531 370.281 214.848 L 375.000 210.164 374.998 200.473 C 374.985 126.009,330.046 60.987,260.737 35.145 C 253.287 32.367,238.651 28.125,236.517 28.125 C 236.287 28.125,238.875 30.902,242.266 34.297 M164.219 41.762 C 163.188 42.005,160.445 42.707,158.125 43.322 L 153.906 44.440 76.953 121.361 L 0.000 198.281 0.000 200.001 L 0.000 201.722 10.965 212.658 C 21.562 223.227,21.923 223.552,21.739 222.344 C 21.634 221.656,21.357 218.861,21.124 216.133 L 20.701 211.172 14.881 205.352 L 9.062 199.533 88.202 120.391 C 138.080 70.513,167.112 41.263,166.719 41.285 C 166.375 41.304,165.250 41.518,164.219 41.762 M216.142 56.509 C 215.816 56.869,215.625 57.620,215.625 58.540 C 215.625 59.777,215.532 60.000,215.018 60.000 C 214.685 60.000,214.325 60.141,214.219 60.313 C 214.105 60.496,212.257 60.625,209.732 60.625 C 207.370 60.625,205.304 60.741,205.141 60.883 C 204.977 61.025,204.211 61.325,203.438 61.549 C 201.420 62.134,199.372 63.072,198.224 63.938 C 197.677 64.350,197.102 64.688,196.947 64.688 C 196.238 64.688,191.769 69.935,191.031 71.635 C 190.824 72.111,190.508 72.500,190.328 72.500 C 190.147 72.500,190.000 72.781,190.000 73.125 C 190.000 73.548,189.792 73.750,189.354 73.750 C 188.999 73.750,188.455 73.886,188.146 74.051 C 187.821 74.225,183.223 74.367,177.275 74.387 L 166.967 74.422 165.281 75.587 C 160.675 78.768,160.700 85.756,165.338 91.622 C 165.840 92.257,166.250 92.896,166.250 93.043 C 166.250 93.419,168.551 95.625,168.943 95.625 C 169.121 95.625,169.576 95.955,169.954 96.358 C 171.116 97.594,174.971 99.343,177.656 99.852 C 179.031 100.113,180.402 100.403,180.703 100.497 C 181.387 100.710,181.426 101.563,180.752 101.563 C 180.047 101.563,176.626 104.930,175.996 106.245 C 175.102 108.108,175.409 112.484,176.593 114.761 C 176.748 115.060,176.875 115.570,176.875 115.895 C 176.875 116.220,177.093 116.667,177.359 116.888 C 177.626 117.109,178.109 117.864,178.433 118.567 C 179.521 120.926,185.464 126.178,185.816 125.091 C 188.223 117.649,192.675 113.448,198.162 113.441 L 200.542 113.438 201.296 109.609 L 202.050 105.781 204.724 105.692 L 207.398 105.602 205.110 117.254 C 203.853 123.663,202.670 129.645,202.483 130.547 L 202.143 132.188 199.509 132.188 C 198.060 132.188,196.881 132.082,196.887 131.953 C 196.894 131.824,197.164 130.453,197.487 128.907 C 197.810 127.361,198.048 126.069,198.016 126.037 C 197.983 126.004,197.257 126.913,196.400 128.055 C 194.182 131.015,192.287 132.288,189.870 132.441 L 187.969 132.561 181.264 125.812 C 177.576 122.100,174.478 119.063,174.379 119.063 C 174.280 119.063,173.654 121.840,172.989 125.234 C 172.323 128.629,171.715 131.582,171.637 131.797 C 171.339 132.619,166.209 132.313,166.401 131.484 C 166.689 130.245,167.500 126.216,167.500 126.026 C 167.500 125.926,167.061 126.462,166.524 127.219 C 163.903 130.914,161.661 132.500,159.061 132.500 C 155.011 132.500,154.909 130.519,158.172 115.234 L 158.489 113.750 161.154 113.750 C 163.758 113.750,163.814 113.766,163.648 114.453 C 162.049 121.081,161.105 127.500,161.730 127.500 C 164.043 127.500,168.879 120.242,169.550 115.763 L 169.769 114.307 164.341 108.872 C 161.355 105.883,158.765 103.438,158.584 103.438 C 158.403 103.438,157.628 102.793,156.862 102.006 C 156.096 101.219,155.047 100.356,154.531 100.088 C 154.016 99.820,153.511 99.473,153.410 99.317 C 153.184 98.967,152.045 98.326,148.863 96.757 C 145.449 95.072,144.691 94.759,143.438 94.514 C 142.836 94.396,141.982 94.115,141.539 93.889 C 139.007 92.596,125.148 93.727,120.625 95.596 C 117.244 96.993,115.895 97.643,115.572 98.033 C 115.382 98.262,114.718 98.679,114.098 98.960 C 112.878 99.512,109.063 103.039,109.063 103.614 C 109.063 103.808,108.781 104.220,108.438 104.531 C 108.094 104.842,107.813 105.358,107.813 105.678 C 107.812 105.997,107.651 106.517,107.454 106.832 C 107.093 107.411,107.241 108.516,107.796 109.371 C 108.048 109.759,108.272 109.667,109.152 108.815 C 110.874 107.146,112.899 106.558,116.800 106.592 C 119.818 106.619,123.128 107.090,123.184 107.500 C 123.284 108.237,122.669 111.012,122.380 111.123 C 122.178 111.200,121.187 110.979,120.176 110.632 C 113.445 108.316,109.764 111.951,114.585 116.154 C 119.271 120.240,119.979 120.997,120.557 122.547 C 121.059 123.894,123.836 126.791,143.455 146.437 C 169.275 172.293,167.417 169.684,160.018 169.694 L 155.469 169.700 150.156 184.704 C 147.234 192.956,144.797 199.844,144.740 200.010 C 144.673 200.203,151.249 200.313,162.827 200.313 L 181.019 200.313 180.838 201.430 C 180.572 203.069,179.202 205.207,177.740 206.266 C 175.224 208.089,174.835 208.125,157.633 208.125 C 141.390 208.125,141.563 208.113,141.563 209.244 C 141.563 209.316,148.643 209.375,157.297 209.375 C 174.425 209.375,174.804 209.409,175.121 210.995 C 175.386 212.321,175.320 236.589,175.049 237.274 C 174.798 237.909,173.331 238.750,172.474 238.750 C 172.155 238.750,171.393 239.031,170.781 239.375 C 170.169 239.719,169.483 240.000,169.257 240.000 C 168.823 240.000,167.651 240.580,166.094 241.566 C 165.578 241.893,164.664 242.408,164.063 242.711 C 161.581 243.961,153.750 251.599,153.750 252.769 C 153.750 252.923,153.546 253.218,153.296 253.425 C 151.744 254.714,148.438 263.339,148.438 266.101 C 148.438 266.506,148.309 266.917,148.152 267.014 C 147.995 267.111,147.852 268.867,147.835 270.915 L 147.802 274.640 149.760 272.684 C 154.786 267.665,163.425 266.835,167.406 270.988 C 172.331 276.126,167.837 288.722,159.688 292.622 C 157.108 293.856,151.187 294.065,148.833 293.005 C 147.629 292.463,147.444 292.455,146.497 292.898 C 145.932 293.162,144.762 293.586,143.898 293.840 C 142.093 294.368,137.382 296.733,136.846 297.378 C 136.648 297.617,136.314 297.813,136.104 297.812 C 135.894 297.812,135.467 298.094,135.156 298.437 C 134.845 298.781,134.420 299.062,134.211 299.063 C 133.178 299.063,126.462 306.506,125.138 309.119 C 124.849 309.689,124.435 310.367,124.219 310.625 C 124.004 310.883,123.639 311.626,123.409 312.277 L 122.992 313.459 81.965 272.433 C 59.400 249.869,40.938 231.514,40.938 231.644 C 40.938 232.184,42.279 237.941,43.322 241.875 L 44.440 246.094 121.361 323.047 L 198.281 400.000 200.001 400.000 L 201.722 400.000 212.345 389.334 C 218.188 383.468,222.733 378.748,222.446 378.846 C 222.158 378.944,219.627 379.198,216.821 379.410 L 211.719 379.795 206.088 385.361 L 200.458 390.927 164.526 354.995 L 128.595 319.062 153.204 319.062 C 170.969 319.063,177.813 318.966,177.813 318.717 C 177.813 318.134,179.133 316.715,187.845 307.935 C 193.589 302.145,196.250 299.252,196.250 298.794 C 196.250 298.426,196.391 298.125,196.563 298.125 C 196.763 298.125,196.875 295.214,196.875 290.018 C 196.875 284.951,196.992 281.839,197.188 281.719 C 197.359 281.613,197.500 281.274,197.500 280.967 C 197.500 278.605,203.183 273.438,205.780 273.438 C 206.142 273.438,206.590 273.285,206.777 273.098 C 207.130 272.745,210.695 272.860,212.232 273.275 C 213.047 273.494,213.064 273.466,213.432 271.280 L 213.806 269.062 215.450 269.063 L 217.094 269.063 217.531 266.953 L 217.969 264.844 221.323 264.240 C 225.290 263.525,225.063 263.405,224.519 265.940 C 223.814 269.231,223.706 269.063,226.525 269.063 L 228.987 269.063 228.698 270.547 C 228.076 273.747,228.403 273.438,225.641 273.438 L 223.170 273.437 222.790 275.137 L 222.409 276.836 224.078 278.340 C 227.108 281.070,230.312 284.613,230.312 285.234 C 230.312 285.449,230.453 285.625,230.625 285.625 C 230.797 285.625,230.938 285.906,230.938 286.250 C 230.938 286.594,231.078 286.875,231.250 286.875 C 231.422 286.875,231.563 287.156,231.563 287.500 C 231.563 287.844,231.703 288.125,231.875 288.125 C 232.047 288.125,232.188 288.378,232.188 288.688 C 232.188 288.997,232.299 289.384,232.436 289.547 C 233.132 290.377,233.877 294.025,233.604 295.261 C 233.400 296.184,232.240 296.875,230.894 296.875 C 230.422 296.875,229.950 297.016,229.844 297.188 C 229.738 297.359,229.175 297.500,228.594 297.500 C 228.012 297.500,227.450 297.641,227.344 297.813 C 227.238 297.984,226.816 298.125,226.406 298.125 C 225.997 298.125,225.575 298.266,225.469 298.438 C 225.363 298.609,225.003 298.750,224.669 298.750 C 224.335 298.750,224.063 298.891,224.063 299.063 C 224.063 299.234,223.833 299.375,223.553 299.375 C 223.273 299.375,222.358 299.867,221.521 300.469 C 220.684 301.070,219.893 301.563,219.765 301.564 C 219.636 301.565,219.109 301.956,218.594 302.433 C 218.078 302.911,217.202 303.621,216.647 304.011 C 215.534 304.794,211.875 309.128,211.875 309.663 C 211.875 309.848,211.755 310.000,211.608 310.000 C 211.350 310.000,209.397 313.795,208.290 316.446 C 207.161 319.153,204.335 318.896,236.188 318.986 C 265.834 319.070,266.250 319.053,266.250 317.745 C 266.250 317.545,269.606 313.998,273.707 309.863 C 282.367 301.131,282.461 300.990,282.722 296.382 L 282.907 293.125 279.416 293.125 C 275.956 293.125,275.927 293.119,276.091 292.422 C 280.796 272.387,283.300 255.156,282.025 251.591 C 280.506 247.349,275.820 241.761,272.500 240.234 C 271.898 239.957,270.984 239.290,270.469 238.751 L 269.531 237.772 269.375 207.911 L 269.219 178.051 255.469 202.963 C 238.037 234.545,239.435 232.877,230.237 233.074 L 225.317 233.180 225.237 212.113 L 225.156 191.045 213.286 209.507 C 197.585 233.925,198.651 232.892,188.967 233.073 L 183.386 233.176 183.580 231.510 C 183.818 229.460,188.438 178.498,188.438 177.917 C 188.438 177.577,186.387 177.500,177.344 177.500 C 171.242 177.500,166.255 177.395,166.261 177.266 C 166.267 177.137,167.869 174.430,169.820 171.250 L 173.369 165.469 185.498 165.387 C 200.719 165.284,202.149 165.626,204.463 169.915 C 205.875 172.531,205.843 173.815,203.932 191.386 C 202.979 200.141,202.245 207.349,202.300 207.404 C 202.354 207.459,207.728 199.130,214.242 188.896 C 229.820 164.421,228.728 165.553,236.951 165.362 L 241.558 165.255 241.638 186.143 L 241.719 207.031 252.969 186.184 L 264.219 165.337 266.771 165.325 L 269.324 165.313 269.442 158.203 C 269.522 153.367,269.684 150.844,269.950 150.313 C 270.620 148.970,271.131 148.150,271.668 147.556 C 271.954 147.240,272.188 146.835,272.188 146.654 C 272.188 146.474,272.386 146.162,272.628 145.961 C 274.976 144.012,278.334 132.390,277.071 130.586 C 276.443 129.690,276.427 128.186,277.015 125.388 C 277.867 121.337,275.764 114.844,271.475 108.287 L 269.844 105.793 269.660 99.069 C 269.478 92.386,268.922 86.677,268.398 86.109 C 268.248 85.946,268.125 85.497,268.125 85.112 C 268.125 84.727,267.984 84.325,267.813 84.219 C 267.641 84.113,267.500 83.691,267.500 83.281 C 267.500 82.872,267.359 82.450,267.188 82.344 C 267.016 82.238,266.875 81.899,266.875 81.592 C 266.875 80.944,266.035 79.159,265.604 78.894 C 265.443 78.794,265.037 78.111,264.702 77.376 C 264.367 76.641,263.876 75.859,263.609 75.638 C 263.343 75.417,263.125 75.067,263.125 74.861 C 263.125 74.359,257.511 68.664,256.022 67.655 C 255.374 67.216,254.402 66.545,253.863 66.163 C 252.538 65.226,250.978 64.338,249.844 63.875 C 246.480 62.502,243.397 61.488,242.188 61.356 C 241.414 61.272,240.648 61.073,240.484 60.914 C 240.321 60.755,239.932 60.625,239.621 60.625 C 238.768 60.625,237.836 60.017,235.938 58.222 C 233.526 55.942,233.503 55.938,224.559 55.938 C 217.303 55.938,216.617 55.984,216.142 56.509 M142.409 110.547 C 142.316 111.020,142.142 111.934,142.023 112.578 L 141.805 113.750 143.740 113.750 L 145.675 113.750 145.470 114.766 C 145.034 116.931,145.097 116.875,143.110 116.875 C 141.451 116.875,141.245 116.947,141.096 117.578 C 140.794 118.853,139.063 127.592,139.063 127.839 C 139.063 128.506,140.154 129.063,141.464 129.063 L 142.883 129.063 142.661 130.547 C 142.357 132.578,142.492 132.501,139.278 132.489 C 133.136 132.465,132.702 130.611,135.783 117.578 C 135.935 116.936,135.838 116.875,134.669 116.875 C 133.390 116.875,133.388 116.873,133.592 115.859 C 134.009 113.786,134.039 113.750,135.314 113.750 C 136.502 113.750,136.528 113.725,136.727 112.395 C 137.007 110.529,137.113 110.424,139.063 110.072 C 142.208 109.504,142.603 109.560,142.409 110.547 M231.699 114.356 C 235.817 118.226,229.650 125.625,222.307 125.625 C 221.237 125.625,221.158 126.081,221.943 127.714 C 222.808 129.512,226.387 129.479,230.316 127.636 C 233.438 126.170,233.297 125.991,232.339 130.220 C 231.998 131.724,223.157 133.178,220.229 132.211 C 213.312 129.929,216.037 117.275,224.131 114.089 C 226.557 113.134,230.548 113.275,231.699 114.356 M262.991 114.159 C 264.351 115.328,264.324 116.989,262.826 124.536 C 262.110 128.143,261.453 131.340,261.366 131.641 C 261.088 132.603,255.866 132.448,256.087 131.484 C 258.838 119.500,258.927 117.089,256.545 119.152 C 253.724 121.594,251.036 125.727,250.470 128.493 C 250.213 129.752,249.928 131.098,249.839 131.484 C 249.685 132.146,249.517 132.188,247.019 132.188 C 244.422 132.188,244.367 132.172,244.536 131.484 C 244.632 131.098,245.447 126.984,246.348 122.344 L 247.987 113.906 250.666 113.817 L 253.345 113.727 252.783 116.629 C 252.059 120.366,252.051 120.291,252.998 118.872 C 256.137 114.166,260.570 112.076,262.991 114.159 M195.079 117.792 C 192.421 119.717,189.828 127.162,191.720 127.434 C 193.573 127.699,199.274 121.028,199.443 118.395 L 199.531 117.031 197.957 116.939 C 196.619 116.861,196.187 116.989,195.079 117.792 M224.758 117.541 C 223.763 118.178,222.468 120.059,222.043 121.484 C 221.597 122.978,225.317 122.173,226.918 120.429 C 229.209 117.934,227.569 115.741,224.758 117.541 M117.257 182.139 C 112.399 195.696,112.522 195.056,114.384 197.082 C 114.990 197.741,115.811 198.742,116.208 199.304 L 116.928 200.328 121.954 200.242 L 126.980 200.156 131.447 187.500 C 133.904 180.539,136.330 173.684,136.838 172.266 L 137.761 169.688 129.740 169.688 L 121.719 169.689 117.257 182.139 M378.261 177.656 C 378.366 178.344,378.643 181.138,378.875 183.865 L 379.299 188.824 385.117 194.648 L 390.935 200.472 311.887 279.520 C 268.410 322.996,232.893 358.622,232.960 358.689 C 233.123 358.852,236.741 358.035,241.875 356.676 L 246.094 355.560 323.047 278.639 L 400.000 201.719 400.000 199.999 L 400.000 198.278 389.035 187.342 C 378.438 176.773,378.077 176.448,378.261 177.656 M29.594 185.249 L 25.000 189.851 25.002 199.535 C 25.015 274.027,69.952 339.013,139.337 364.883 C 147.051 367.759,163.077 372.339,163.600 371.817 C 163.670 371.747,160.955 368.938,157.567 365.576 L 151.406 359.461 145.705 357.539 C 73.755 333.277,25.648 258.556,34.048 184.108 C 34.249 182.328,34.363 180.821,34.301 180.760 C 34.239 180.698,32.121 182.718,29.594 185.249 M365.263 242.746 L 359.462 248.594 357.539 254.295 C 337.445 313.884,283.072 357.926,220.313 365.449 C 208.518 366.863,190.263 367.014,182.500 365.761 C 181.473 365.595,181.711 365.892,186.406 370.630 L 191.406 375.676 202.500 375.525 C 277.447 374.511,342.645 326.659,366.238 255.350 C 368.237 249.307,371.448 237.281,371.143 236.976 C 371.100 236.933,368.454 239.530,365.263 242.746 M203.101 268.984 C 203.087 269.285,202.696 270.727,202.231 272.188 L 201.386 274.844 199.656 274.740 C 197.076 274.586,194.274 277.051,190.162 283.092 C 188.942 284.884,187.188 290.736,187.188 293.012 C 187.188 293.074,185.631 293.125,183.729 293.125 C 180.582 293.125,180.285 293.076,180.432 292.578 C 180.521 292.277,181.602 286.863,182.834 280.547 L 185.073 269.063 188.474 269.063 C 190.345 269.063,191.875 269.184,191.875 269.332 C 191.875 269.480,191.523 271.328,191.094 273.438 C 190.664 275.547,190.313 277.358,190.313 277.462 C 190.313 277.566,190.907 276.742,191.633 275.630 C 193.334 273.027,196.134 270.235,198.035 269.245 C 199.933 268.257,203.140 268.092,203.101 268.984 M261.511 268.930 C 264.942 269.112,265.049 269.139,264.893 269.793 C 264.805 270.165,263.718 275.566,262.477 281.797 L 260.220 293.125 256.829 293.125 C 254.964 293.125,253.438 293.074,253.438 293.012 C 253.438 292.949,253.789 291.172,254.219 289.063 C 254.648 286.953,255.000 285.089,255.000 284.921 C 255.000 284.754,254.414 285.494,253.698 286.566 C 244.229 300.746,233.092 292.262,241.760 277.473 C 245.422 271.224,249.843 268.292,255.156 268.587 C 256.703 268.672,259.563 268.827,261.511 268.930 M156.163 273.843 C 151.817 276.474,149.678 286.905,153.108 288.741 C 157.094 290.874,162.131 285.057,162.227 278.206 C 162.291 273.647,159.639 271.739,156.163 273.843 M251.528 274.017 C 248.167 276.149,243.904 286.547,246.052 287.371 C 248.866 288.451,258.645 276.048,257.034 273.442 C 256.581 272.710,253.000 273.084,251.528 274.017 M214.844 273.750 C 214.950 273.922,215.310 274.063,215.643 274.063 C 215.977 274.063,216.250 273.922,216.250 273.750 C 216.250 273.578,215.890 273.438,215.450 273.438 C 214.997 273.438,214.734 273.573,214.844 273.750 " stroke="none" fill="#000000" fill-rule="evenodd"></path><path id="path2" d="M187.655 10.666 C 181.812 16.532,177.267 21.252,177.554 21.154 C 177.842 21.056,180.373 20.802,183.179 20.590 L 188.281 20.205 193.912 14.639 L 199.542 9.073 279.211 88.742 C 323.029 132.560,358.926 168.366,358.981 168.310 C 359.133 168.159,357.944 162.902,356.678 158.125 L 355.560 153.906 278.639 76.953 L 201.719 -0.000 199.999 -0.000 L 198.278 0.000 187.655 10.666 M188.438 24.587 C 109.906 30.344,45.768 85.733,28.921 162.344 C 28.751 163.113,29.769 162.230,34.592 157.424 L 40.469 151.567 42.279 146.174 C 62.392 86.255,116.753 42.095,179.688 34.551 C 191.482 33.137,209.737 32.986,217.500 34.239 C 218.526 34.405,218.284 34.104,213.597 29.395 L 208.601 24.375 199.222 24.430 C 194.064 24.460,189.211 24.531,188.438 24.587 M242.266 34.297 L 248.433 40.469 253.826 42.279 C 327.018 66.848,374.259 140.936,365.752 217.813 L 365.562 219.531 370.281 214.848 L 375.000 210.164 374.998 200.473 C 374.985 126.009,330.046 60.987,260.737 35.145 C 253.287 32.367,238.651 28.125,236.517 28.125 C 236.287 28.125,238.875 30.902,242.266 34.297 M164.219 41.762 C 163.188 42.005,160.445 42.707,158.125 43.322 L 153.906 44.440 76.953 121.361 L 0.000 198.281 0.000 200.001 L 0.000 201.722 10.965 212.658 C 21.562 223.227,21.923 223.552,21.739 222.344 C 21.634 221.656,21.357 218.861,21.124 216.133 L 20.701 211.172 14.881 205.352 L 9.062 199.533 88.202 120.391 C 138.080 70.513,167.112 41.263,166.719 41.285 C 166.375 41.304,165.250 41.518,164.219 41.762 M216.142 56.509 C 215.816 56.869,215.625 57.620,215.625 58.540 C 215.625 59.777,215.532 60.000,215.018 60.000 C 214.685 60.000,214.325 60.141,214.219 60.313 C 214.105 60.496,212.257 60.625,209.732 60.625 C 207.370 60.625,205.304 60.741,205.141 60.883 C 204.977 61.025,204.211 61.325,203.438 61.549 C 201.420 62.134,199.372 63.072,198.224 63.938 C 197.677 64.350,197.102 64.688,196.947 64.688 C 196.238 64.688,191.769 69.935,191.031 71.635 C 190.824 72.111,190.508 72.500,190.328 72.500 C 190.147 72.500,190.000 72.781,190.000 73.125 C 190.000 73.548,189.792 73.750,189.354 73.750 C 188.999 73.750,188.455 73.886,188.146 74.051 C 187.821 74.225,183.223 74.367,177.275 74.387 L 166.967 74.422 165.281 75.587 C 160.675 78.768,160.700 85.756,165.338 91.622 C 165.840 92.257,166.250 92.896,166.250 93.043 C 166.250 93.419,168.551 95.625,168.943 95.625 C 169.121 95.625,169.576 95.955,169.954 96.358 C 171.116 97.594,174.971 99.343,177.656 99.852 C 179.031 100.113,180.402 100.403,180.703 100.497 C 181.387 100.710,181.426 101.563,180.752 101.563 C 180.047 101.563,176.626 104.930,175.996 106.245 C 175.102 108.108,175.409 112.484,176.593 114.761 C 176.748 115.060,176.875 115.570,176.875 115.895 C 176.875 116.220,177.093 116.667,177.359 116.888 C 177.626 117.109,178.109 117.864,178.433 118.567 C 179.521 120.926,185.464 126.178,185.816 125.091 C 188.223 117.649,192.675 113.448,198.162 113.441 L 200.542 113.438 201.296 109.609 L 202.050 105.781 204.724 105.692 L 207.398 105.602 205.110 117.254 C 203.853 123.663,202.670 129.645,202.483 130.547 L 202.143 132.188 199.509 132.188 C 198.060 132.188,196.881 132.082,196.887 131.953 C 196.894 131.824,197.164 130.453,197.487 128.907 C 197.810 127.361,198.048 126.069,198.016 126.037 C 197.983 126.004,197.257 126.913,196.400 128.055 C 194.182 131.015,192.287 132.288,189.870 132.441 L 187.969 132.561 181.264 125.812 C 177.576 122.100,174.478 119.063,174.379 119.063 C 174.280 119.063,173.654 121.840,172.989 125.234 C 172.323 128.629,171.715 131.582,171.637 131.797 C 171.339 132.619,166.209 132.313,166.401 131.484 C 166.689 130.245,167.500 126.216,167.500 126.026 C 167.500 125.926,167.061 126.462,166.524 127.219 C 163.903 130.914,161.661 132.500,159.061 132.500 C 155.011 132.500,154.909 130.519,158.172 115.234 L 158.489 113.750 161.154 113.750 C 163.758 113.750,163.814 113.766,163.648 114.453 C 162.049 121.081,161.105 127.500,161.730 127.500 C 164.043 127.500,168.879 120.242,169.550 115.763 L 169.769 114.307 164.341 108.872 C 161.355 105.883,158.765 103.438,158.584 103.438 C 158.403 103.438,157.628 102.793,156.862 102.006 C 156.096 101.219,155.047 100.356,154.531 100.088 C 154.016 99.820,153.511 99.473,153.410 99.317 C 153.184 98.967,152.045 98.326,148.863 96.757 C 145.449 95.072,144.691 94.759,143.438 94.514 C 142.836 94.396,141.982 94.115,141.539 93.889 C 139.007 92.596,125.148 93.727,120.625 95.596 C 117.244 96.993,115.895 97.643,115.572 98.033 C 115.382 98.262,114.718 98.679,114.098 98.960 C 112.878 99.512,109.063 103.039,109.063 103.614 C 109.063 103.808,108.781 104.220,108.438 104.531 C 108.094 104.842,107.813 105.358,107.813 105.678 C 107.812 105.997,107.651 106.517,107.454 106.832 C 107.093 107.411,107.241 108.516,107.796 109.371 C 108.048 109.759,108.272 109.667,109.152 108.815 C 110.874 107.146,112.899 106.558,116.800 106.592 C 119.818 106.619,123.128 107.090,123.184 107.500 C 123.284 108.237,122.669 111.012,122.380 111.123 C 122.178 111.200,121.187 110.979,120.176 110.632 C 113.445 108.316,109.764 111.951,114.585 116.154 C 119.271 120.240,119.979 120.997,120.557 122.547 C 121.059 123.894,123.836 126.791,143.455 146.437 C 169.275 172.293,167.417 169.684,160.018 169.694 L 155.469 169.700 150.156 184.704 C 147.234 192.956,144.797 199.844,144.740 200.010 C 144.673 200.203,151.249 200.313,162.827 200.313 L 181.019 200.313 180.838 201.430 C 180.572 203.069,179.202 205.207,177.740 206.266 C 175.224 208.089,174.835 208.125,157.633 208.125 C 141.390 208.125,141.563 208.113,141.563 209.244 C 141.563 209.316,148.643 209.375,157.297 209.375 C 174.425 209.375,174.804 209.409,175.121 210.995 C 175.386 212.321,175.320 236.589,175.049 237.274 C 174.798 237.909,173.331 238.750,172.474 238.750 C 172.155 238.750,171.393 239.031,170.781 239.375 C 170.169 239.719,169.483 240.000,169.257 240.000 C 168.823 240.000,167.651 240.580,166.094 241.566 C 165.578 241.893,164.664 242.408,164.063 242.711 C 161.581 243.961,153.750 251.599,153.750 252.769 C 153.750 252.923,153.546 253.218,153.296 253.425 C 151.744 254.714,148.438 263.339,148.438 266.101 C 148.438 266.506,148.309 266.917,148.152 267.014 C 147.995 267.111,147.852 268.867,147.835 270.915 L 147.802 274.640 149.760 272.684 C 154.786 267.665,163.425 266.835,167.406 270.988 C 172.331 276.126,167.837 288.722,159.688 292.622 C 157.108 293.856,151.187 294.065,148.833 293.005 C 147.629 292.463,147.444 292.455,146.497 292.898 C 145.932 293.162,144.762 293.586,143.898 293.840 C 142.093 294.368,137.382 296.733,136.846 297.378 C 136.648 297.617,136.314 297.813,136.104 297.812 C 135.894 297.812,135.467 298.094,135.156 298.437 C 134.845 298.781,134.420 299.062,134.211 299.063 C 133.178 299.063,126.462 306.506,125.138 309.119 C 124.849 309.689,124.435 310.367,124.219 310.625 C 124.004 310.883,123.639 311.626,123.409 312.277 L 122.992 313.459 81.965 272.433 C 59.400 249.869,40.938 231.514,40.938 231.644 C 40.938 232.184,42.279 237.941,43.322 241.875 L 44.440 246.094 121.361 323.047 L 198.281 400.000 200.001 400.000 L 201.722 400.000 212.345 389.334 C 218.188 383.468,222.733 378.748,222.446 378.846 C 222.158 378.944,219.627 379.198,216.821 379.410 L 211.719 379.795 206.088 385.361 L 200.458 390.927 164.526 354.995 L 128.595 319.062 153.204 319.062 C 170.969 319.063,177.813 318.966,177.813 318.717 C 177.813 318.134,179.133 316.715,187.845 307.935 C 193.589 302.145,196.250 299.252,196.250 298.794 C 196.250 298.426,196.391 298.125,196.563 298.125 C 196.763 298.125,196.875 295.214,196.875 290.018 C 196.875 284.951,196.992 281.839,197.188 281.719 C 197.359 281.613,197.500 281.274,197.500 280.967 C 197.500 278.605,203.183 273.438,205.780 273.438 C 206.142 273.438,206.590 273.285,206.777 273.098 C 207.130 272.745,210.695 272.860,212.232 273.275 C 213.047 273.494,213.064 273.466,213.432 271.280 L 213.806 269.062 215.450 269.063 L 217.094 269.063 217.531 266.953 L 217.969 264.844 221.323 264.240 C 225.290 263.525,225.063 263.405,224.519 265.940 C 223.814 269.231,223.706 269.063,226.525 269.063 L 228.987 269.063 228.698 270.547 C 228.076 273.747,228.403 273.438,225.641 273.438 L 223.170 273.437 222.790 275.137 L 222.409 276.836 224.078 278.340 C 227.108 281.070,230.312 284.613,230.312 285.234 C 230.312 285.449,230.453 285.625,230.625 285.625 C 230.797 285.625,230.938 285.906,230.938 286.250 C 230.938 286.594,231.078 286.875,231.250 286.875 C 231.422 286.875,231.563 287.156,231.563 287.500 C 231.563 287.844,231.703 288.125,231.875 288.125 C 232.047 288.125,232.188 288.378,232.188 288.688 C 232.188 288.997,232.299 289.384,232.436 289.547 C 233.132 290.377,233.877 294.025,233.604 295.261 C 233.400 296.184,232.240 296.875,230.894 296.875 C 230.422 296.875,229.950 297.016,229.844 297.188 C 229.738 297.359,229.175 297.500,228.594 297.500 C 228.012 297.500,227.450 297.641,227.344 297.813 C 227.238 297.984,226.816 298.125,226.406 298.125 C 225.997 298.125,225.575 298.266,225.469 298.438 C 225.363 298.609,225.003 298.750,224.669 298.750 C 224.335 298.750,224.063 298.891,224.063 299.063 C 224.063 299.234,223.833 299.375,223.553 299.375 C 223.273 299.375,222.358 299.867,221.521 300.469 C 220.684 301.070,219.893 301.563,219.765 301.564 C 219.636 301.565,219.109 301.956,218.594 302.433 C 218.078 302.911,217.202 303.621,216.647 304.011 C 215.534 304.794,211.875 309.128,211.875 309.663 C 211.875 309.848,211.755 310.000,211.608 310.000 C 211.350 310.000,209.397 313.795,208.290 316.446 C 207.161 319.153,204.335 318.896,236.188 318.986 C 265.834 319.070,266.250 319.053,266.250 317.745 C 266.250 317.545,269.606 313.998,273.707 309.863 C 282.367 301.131,282.461 300.990,282.722 296.382 L 282.907 293.125 279.416 293.125 C 275.956 293.125,275.927 293.119,276.091 292.422 C 280.796 272.387,283.300 255.156,282.025 251.591 C 280.506 247.349,275.820 241.761,272.500 240.234 C 271.898 239.957,270.984 239.290,270.469 238.751 L 269.531 237.772 269.375 207.911 L 269.219 178.051 255.469 202.963 C 238.037 234.545,239.435 232.877,230.237 233.074 L 225.317 233.180 225.237 212.113 L 225.156 191.045 213.286 209.507 C 197.585 233.925,198.651 232.892,188.967 233.073 L 183.386 233.176 183.580 231.510 C 183.818 229.460,188.438 178.498,188.438 177.917 C 188.438 177.577,186.387 177.500,177.344 177.500 C 171.242 177.500,166.255 177.395,166.261 177.266 C 166.267 177.137,167.869 174.430,169.820 171.250 L 173.369 165.469 185.498 165.387 C 200.719 165.284,202.149 165.626,204.463 169.915 C 205.875 172.531,205.843 173.815,203.932 191.386 C 202.979 200.141,202.245 207.349,202.300 207.404 C 202.354 207.459,207.728 199.130,214.242 188.896 C 229.820 164.421,228.728 165.553,236.951 165.362 L 241.558 165.255 241.638 186.143 L 241.719 207.031 252.969 186.184 L 264.219 165.337 266.771 165.325 L 269.324 165.313 269.442 158.203 C 269.522 153.367,269.684 150.844,269.950 150.313 C 270.620 148.970,271.131 148.150,271.668 147.556 C 271.954 147.240,272.188 146.835,272.188 146.654 C 272.188 146.474,272.386 146.162,272.628 145.961 C 274.976 144.012,278.334 132.390,277.071 130.586 C 276.443 129.690,276.427 128.186,277.015 125.388 C 277.867 121.337,275.764 114.844,271.475 108.287 L 269.844 105.793 269.660 99.069 C 269.478 92.386,268.922 86.677,268.398 86.109 C 268.248 85.946,268.125 85.497,268.125 85.112 C 268.125 84.727,267.984 84.325,267.813 84.219 C 267.641 84.113,267.500 83.691,267.500 83.281 C 267.500 82.872,267.359 82.450,267.188 82.344 C 267.016 82.238,266.875 81.899,266.875 81.592 C 266.875 80.944,266.035 79.159,265.604 78.894 C 265.443 78.794,265.037 78.111,264.702 77.376 C 264.367 76.641,263.876 75.859,263.609 75.638 C 263.343 75.417,263.125 75.067,263.125 74.861 C 263.125 74.359,257.511 68.664,256.022 67.655 C 255.374 67.216,254.402 66.545,253.863 66.163 C 252.538 65.226,250.978 64.338,249.844 63.875 C 246.480 62.502,243.397 61.488,242.188 61.356 C 241.414 61.272,240.648 61.073,240.484 60.914 C 240.321 60.755,239.932 60.625,239.621 60.625 C 238.768 60.625,237.836 60.017,235.938 58.222 C 233.526 55.942,233.503 55.938,224.559 55.938 C 217.303 55.938,216.617 55.984,216.142 56.509 M142.409 110.547 C 142.316 111.020,142.142 111.934,142.023 112.578 L 141.805 113.750 143.740 113.750 L 145.675 113.750 145.470 114.766 C 145.034 116.931,145.097 116.875,143.110 116.875 C 141.451 116.875,141.245 116.947,141.096 117.578 C 140.794 118.853,139.063 127.592,139.063 127.839 C 139.063 128.506,140.154 129.063,141.464 129.063 L 142.883 129.063 142.661 130.547 C 142.357 132.578,142.492 132.501,139.278 132.489 C 133.136 132.465,132.702 130.611,135.783 117.578 C 135.935 116.936,135.838 116.875,134.669 116.875 C 133.390 116.875,133.388 116.873,133.592 115.859 C 134.009 113.786,134.039 113.750,135.314 113.750 C 136.502 113.750,136.528 113.725,136.727 112.395 C 137.007 110.529,137.113 110.424,139.063 110.072 C 142.208 109.504,142.603 109.560,142.409 110.547 M231.699 114.356 C 235.817 118.226,229.650 125.625,222.307 125.625 C 221.237 125.625,221.158 126.081,221.943 127.714 C 222.808 129.512,226.387 129.479,230.316 127.636 C 233.438 126.170,233.297 125.991,232.339 130.220 C 231.998 131.724,223.157 133.178,220.229 132.211 C 213.312 129.929,216.037 117.275,224.131 114.089 C 226.557 113.134,230.548 113.275,231.699 114.356 M262.991 114.159 C 264.351 115.328,264.324 116.989,262.826 124.536 C 262.110 128.143,261.453 131.340,261.366 131.641 C 261.088 132.603,255.866 132.448,256.087 131.484 C 258.838 119.500,258.927 117.089,256.545 119.152 C 253.724 121.594,251.036 125.727,250.470 128.493 C 250.213 129.752,249.928 131.098,249.839 131.484 C 249.685 132.146,249.517 132.188,247.019 132.188 C 244.422 132.188,244.367 132.172,244.536 131.484 C 244.632 131.098,245.447 126.984,246.348 122.344 L 247.987 113.906 250.666 113.817 L 253.345 113.727 252.783 116.629 C 252.059 120.366,252.051 120.291,252.998 118.872 C 256.137 114.166,260.570 112.076,262.991 114.159 M195.079 117.792 C 192.421 119.717,189.828 127.162,191.720 127.434 C 193.573 127.699,199.274 121.028,199.443 118.395 L 199.531 117.031 197.957 116.939 C 196.619 116.861,196.187 116.989,195.079 117.792 M224.758 117.541 C 223.763 118.178,222.468 120.059,222.043 121.484 C 221.597 122.978,225.317 122.173,226.918 120.429 C 229.209 117.934,227.569 115.741,224.758 117.541 M117.257 182.139 C 112.399 195.696,112.522 195.056,114.384 197.082 C 114.990 197.741,115.811 198.742,116.208 199.304 L 116.928 200.328 121.954 200.242 L 126.980 200.156 131.447 187.500 C 133.904 180.539,136.330 173.684,136.838 172.266 L 137.761 169.688 129.740 169.688 L 121.719 169.689 117.257 182.139 M378.261 177.656 C 378.366 178.344,378.643 181.138,378.875 183.865 L 379.299 188.824 385.117 194.648 L 390.935 200.472 311.887 279.520 C 268.410 322.996,232.893 358.622,232.960 358.689 C 233.123 358.852,236.741 358.035,241.875 356.676 L 246.094 355.560 323.047 278.639 L 400.000 201.719 400.000 199.999 L 400.000 198.278 389.035 187.342 C 378.438 176.773,378.077 176.448,378.261 177.656 M29.594 185.249 L 25.000 189.851 25.002 199.535 C 25.015 274.027,69.952 339.013,139.337 364.883 C 147.051 367.759,163.077 372.339,163.600 371.817 C 163.670 371.747,160.955 368.938,157.567 365.576 L 151.406 359.461 145.705 357.539 C 73.755 333.277,25.648 258.556,34.048 184.108 C 34.249 182.328,34.363 180.821,34.301 180.760 C 34.239 180.698,32.121 182.718,29.594 185.249 M365.263 242.746 L 359.462 248.594 357.539 254.295 C 337.445 313.884,283.072 357.926,220.313 365.449 C 208.518 366.863,190.263 367.014,182.500 365.761 C 181.473 365.595,181.711 365.892,186.406 370.630 L 191.406 375.676 202.500 375.525 C 277.447 374.511,342.645 326.659,366.238 255.350 C 368.237 249.307,371.448 237.281,371.143 236.976 C 371.100 236.933,368.454 239.530,365.263 242.746 M203.101 268.984 C 203.087 269.285,202.696 270.727,202.231 272.188 L 201.386 274.844 199.656 274.740 C 197.076 274.586,194.274 277.051,190.162 283.092 C 188.942 284.884,187.188 290.736,187.188 293.012 C 187.188 293.074,185.631 293.125,183.729 293.125 C 180.582 293.125,180.285 293.076,180.432 292.578 C 180.521 292.277,181.602 286.863,182.834 280.547 L 185.073 269.063 188.474 269.063 C 190.345 269.063,191.875 269.184,191.875 269.332 C 191.875 269.480,191.523 271.328,191.094 273.438 C 190.664 275.547,190.313 277.358,190.313 277.462 C 190.313 277.566,190.907 276.742,191.633 275.630 C 193.334 273.027,196.134 270.235,198.035 269.245 C 199.933 268.257,203.140 268.092,203.101 268.984 M261.511 268.930 C 264.942 269.112,265.049 269.139,264.893 269.793 C 264.805 270.165,263.718 275.566,262.477 281.797 L 260.220 293.125 256.829 293.125 C 254.964 293.125,253.438 293.074,253.438 293.012 C 253.438 292.949,253.789 291.172,254.219 289.063 C 254.648 286.953,255.000 285.089,255.000 284.921 C 255.000 284.754,254.414 285.494,253.698 286.566 C 244.229 300.746,233.092 292.262,241.760 277.473 C 245.422 271.224,249.843 268.292,255.156 268.587 C 256.703 268.672,259.563 268.827,261.511 268.930 M156.163 273.843 C 151.817 276.474,149.678 286.905,153.108 288.741 C 157.094 290.874,162.131 285.057,162.227 278.206 C 162.291 273.647,159.639 271.739,156.163 273.843 M251.528 274.017 C 248.167 276.149,243.904 286.547,246.052 287.371 C 248.866 288.451,258.645 276.048,257.034 273.442 C 256.581 272.710,253.000 273.084,251.528 274.017 M214.844 273.750 C 214.950 273.922,215.310 274.063,215.643 274.063 C 215.977 274.063,216.250 273.922,216.250 273.750 C 216.250 273.578,215.890 273.438,215.450 273.438 C 214.997 273.438,214.734 273.573,214.844 273.750 " stroke="none" fill="#000000" fill-rule="evenodd"></path></g></svg>