<svg id="svg" version="1.1" xmlns="http://www.w3.org/2000/svg" xmlns:xlink="http://www.w3.org/1999/xlink" width="400" height="400" viewBox="0, 0, 400,400"><g id="svgg"><path id="path0" d="" stroke="none" fill="#000000" fill-rule="evenodd"></path><path id="path1" d="M187.967 10.353 C 182.296 16.047,177.820 20.616,178.020 20.507 C 178.220 20.398,178.433 20.454,178.492 20.633 C 178.566 20.854,180.168 20.823,183.535 20.537 L 188.470 20.117 194.003 14.591 L 199.535 9.065 279.220 88.752 C 323.048 132.579,358.962 168.269,359.031 168.063 C 359.100 167.856,359.002 167.636,358.814 167.574 C 358.626 167.511,358.540 167.284,358.622 167.070 C 358.790 166.632,357.962 162.866,356.518 157.500 L 355.550 153.906 278.635 76.953 L 201.719 -0.000 199.998 -0.000 L 198.278 0.000 187.967 10.353 M188.438 24.587 C 118.780 29.693,60.018 73.679,35.823 138.824 C 32.690 147.261,28.747 161.111,29.247 161.921 C 29.362 162.106,29.265 162.375,29.033 162.518 C 28.802 162.661,28.685 162.851,28.774 162.940 C 28.863 163.029,31.546 160.470,34.737 157.254 L 40.538 151.406 42.461 145.705 C 66.343 74.884,138.563 27.334,212.484 33.761 C 218.735 34.304,218.704 34.494,213.262 29.043 L 208.602 24.375 199.223 24.430 C 194.064 24.460,189.211 24.531,188.438 24.587 M242.333 34.364 L 248.433 40.469 253.826 42.279 C 318.615 64.027,364.362 125.493,366.518 193.691 C 366.741 200.730,366.474 211.469,365.970 215.748 C 365.512 219.638,365.509 219.639,370.508 214.648 L 375.000 210.164 374.998 200.473 C 374.985 125.973,330.051 60.988,260.663 35.117 C 252.336 32.012,238.711 28.146,237.601 28.572 C 237.356 28.666,237.236 28.612,237.334 28.453 C 237.433 28.293,237.226 28.185,236.874 28.211 C 236.389 28.248,237.714 29.740,242.333 34.364 M164.219 41.775 C 163.188 42.011,160.445 42.707,158.125 43.322 L 153.906 44.440 76.953 121.361 L 0.000 198.281 -0.000 200.001 L -0.000 201.722 10.625 212.344 C 16.469 218.186,21.252 222.755,21.255 222.498 C 21.259 222.085,21.295 222.085,21.567 222.500 C 21.791 222.841,21.829 222.714,21.706 222.031 C 21.614 221.516,21.350 218.861,21.120 216.133 L 20.701 211.172 14.881 205.352 L 9.062 199.533 88.135 120.459 C 136.673 71.921,166.993 41.377,166.651 41.365 C 166.345 41.354,165.250 41.538,164.219 41.775 M202.036 106.016 C 201.964 106.230,201.597 107.988,201.221 109.922 L 200.537 113.438 198.131 113.438 C 193.603 113.438,189.773 116.340,187.150 121.759 C 182.291 131.797,189.777 136.892,196.400 128.055 C 197.257 126.913,197.983 126.004,198.016 126.037 C 198.048 126.069,197.810 127.361,197.487 128.907 C 197.164 130.453,196.894 131.824,196.887 131.953 C 196.881 132.082,198.060 132.188,199.509 132.188 L 202.143 132.188 202.483 130.547 C 202.670 129.645,203.852 123.668,205.108 117.266 L 207.393 105.625 204.780 105.625 C 202.969 105.625,202.128 105.745,202.036 106.016 M111.744 107.192 C 108.090 108.619,105.945 112.479,106.878 115.951 C 107.271 117.414,108.362 118.624,112.577 122.274 C 117.951 126.926,113.618 131.230,106.241 128.569 C 103.645 127.633,103.842 127.555,103.440 129.676 C 102.968 132.165,102.923 132.095,105.240 132.509 C 114.122 134.096,120.924 130.772,120.924 124.844 C 120.924 121.973,120.354 121.192,114.582 116.154 C 109.766 111.949,113.446 108.317,120.176 110.632 C 121.187 110.979,122.178 111.200,122.380 111.123 C 122.669 111.012,123.284 108.237,123.184 107.500 C 123.051 106.527,114.067 106.285,111.744 107.192 M139.063 110.072 C 137.113 110.424,137.007 110.529,136.727 112.395 C 136.528 113.725,136.502 113.750,135.314 113.750 C 134.039 113.750,134.009 113.786,133.592 115.859 C 133.388 116.873,133.390 116.875,134.669 116.875 C 135.838 116.875,135.935 116.936,135.783 117.578 C 132.702 130.611,133.136 132.465,139.278 132.489 C 142.492 132.501,142.357 132.578,142.661 130.547 L 142.883 129.063 141.464 129.063 C 140.154 129.063,139.063 128.506,139.063 127.839 C 139.063 127.592,140.794 118.853,141.096 117.578 C 141.245 116.947,141.451 116.875,143.110 116.875 C 145.097 116.875,145.034 116.931,145.470 114.766 L 145.675 113.750 143.740 113.750 L 141.805 113.750 142.023 112.578 C 142.142 111.934,142.316 111.020,142.409 110.547 C 142.603 109.560,142.208 109.504,139.063 110.072 M281.875 110.072 C 279.926 110.424,279.820 110.529,279.540 112.395 C 279.340 113.725,279.314 113.750,278.127 113.750 C 276.852 113.750,276.822 113.786,276.405 115.859 C 276.201 116.873,276.203 116.875,277.481 116.875 C 278.650 116.875,278.747 116.936,278.596 117.578 C 275.514 130.611,275.949 132.465,282.091 132.489 C 285.304 132.501,285.170 132.578,285.474 130.547 L 285.696 129.063 284.277 129.063 C 282.966 129.063,281.875 128.506,281.875 127.839 C 281.875 127.592,283.607 118.853,283.908 117.578 C 284.057 116.947,284.264 116.875,285.922 116.875 C 287.910 116.875,287.847 116.931,288.283 114.766 L 288.487 113.750 286.553 113.750 L 284.618 113.750 284.835 112.578 C 284.955 111.934,285.128 111.020,285.221 110.547 C 285.416 109.560,285.020 109.504,281.875 110.072 M224.131 114.089 C 216.037 117.275,213.312 129.929,220.229 132.211 C 223.157 133.178,231.998 131.724,232.339 130.220 C 233.297 125.991,233.438 126.170,230.316 127.636 C 226.387 129.479,222.808 129.512,221.943 127.714 C 221.158 126.081,221.237 125.625,222.307 125.625 C 229.650 125.625,235.817 118.226,231.699 114.356 C 230.548 113.275,226.557 113.134,224.131 114.089 M257.813 114.052 C 256.551 114.728,254.177 117.105,252.998 118.872 C 252.051 120.291,252.059 120.366,252.783 116.629 L 253.345 113.727 250.666 113.817 L 247.987 113.906 246.348 122.344 C 245.447 126.984,244.632 131.098,244.536 131.484 C 244.367 132.172,244.422 132.188,247.019 132.188 C 249.517 132.188,249.685 132.146,249.839 131.484 C 249.928 131.098,250.213 129.752,250.470 128.493 C 251.036 125.727,253.724 121.594,256.545 119.152 C 258.927 117.089,258.838 119.500,256.087 131.484 C 255.866 132.448,261.088 132.603,261.366 131.641 C 262.217 128.700,264.103 117.720,263.979 116.429 C 263.710 113.625,260.742 112.481,257.813 114.052 M158.172 115.234 C 154.909 130.519,155.011 132.500,159.061 132.500 C 161.661 132.500,163.903 130.914,166.524 127.219 C 167.061 126.462,167.500 125.926,167.500 126.026 C 167.500 126.216,166.689 130.245,166.401 131.484 C 166.178 132.448,171.400 132.603,171.679 131.641 C 171.766 131.340,172.557 127.438,173.438 122.969 C 174.318 118.500,175.109 114.598,175.196 114.297 C 175.338 113.806,175.079 113.750,172.683 113.750 C 170.168 113.750,170.003 113.791,169.855 114.453 C 169.769 114.840,169.485 116.115,169.224 117.287 C 168.222 121.786,161.250 130.291,161.250 127.015 C 161.250 126.574,163.245 116.124,163.648 114.453 C 163.814 113.766,163.758 113.750,161.154 113.750 L 158.489 113.750 158.172 115.234 M199.443 118.395 C 199.274 121.028,193.573 127.699,191.720 127.434 C 189.828 127.162,192.421 119.717,195.079 117.792 C 196.187 116.989,196.619 116.861,197.957 116.939 L 199.531 117.031 199.443 118.395 M227.819 117.512 C 228.800 119.345,225.844 122.188,222.958 122.188 C 221.937 122.188,221.852 122.122,222.043 121.484 C 223.047 118.116,226.772 115.555,227.819 117.512 M107.279 154.766 C 106.767 156.184,103.409 165.675,99.815 175.858 L 93.281 194.372 86.711 194.373 C 66.191 194.379,53.190 200.616,47.534 213.169 C 41.580 226.381,49.079 235.938,65.401 235.938 C 83.560 235.938,96.606 226.663,106.173 206.953 L 108.486 202.188 116.382 202.188 L 124.278 202.188 119.825 214.609 L 115.373 227.031 124.140 227.114 C 128.962 227.160,132.956 227.148,133.017 227.087 C 133.122 226.982,141.875 202.468,141.875 202.278 C 141.875 202.228,148.951 202.188,157.600 202.188 C 174.838 202.188,175.224 202.152,177.740 200.329 C 179.202 199.270,180.572 197.131,180.838 195.492 L 181.019 194.375 162.853 194.375 C 152.862 194.375,144.688 194.336,144.688 194.289 C 144.688 194.241,147.430 186.495,150.781 177.075 C 154.133 167.655,156.875 159.817,156.875 159.657 C 156.875 159.481,153.362 159.398,148.051 159.448 L 139.227 159.531 133.105 176.875 L 126.984 194.219 118.961 194.302 C 114.220 194.351,110.938 194.268,110.938 194.098 C 110.938 193.838,124.382 156.165,125.476 153.359 L 125.932 152.188 117.070 152.188 L 108.208 152.188 107.279 154.766 M173.050 160.078 C 171.819 161.962,166.250 171.216,166.250 171.378 C 166.250 171.479,171.242 171.563,177.344 171.563 C 186.387 171.563,188.438 171.640,188.438 171.980 C 188.438 172.560,183.818 223.523,183.580 225.573 L 183.386 227.239 188.967 227.135 C 198.651 226.955,197.585 227.988,213.286 203.569 L 225.156 185.108 225.237 206.175 L 225.317 227.242 230.237 227.137 C 239.504 226.938,237.624 229.283,257.868 192.656 C 266.798 176.500,274.593 162.402,275.192 161.328 L 276.281 159.375 270.250 159.387 L 264.219 159.399 252.969 180.246 L 241.719 201.094 241.638 180.206 L 241.558 159.318 236.951 159.425 C 228.728 159.615,229.820 158.483,214.242 182.959 C 207.728 193.193,202.354 201.521,202.300 201.466 C 202.245 201.411,202.979 194.204,203.932 185.449 C 205.843 167.878,205.875 166.594,204.463 163.977 C 202.166 159.720,200.753 159.375,185.604 159.375 L 173.509 159.375 173.050 160.078 M278.138 160.859 C 277.633 161.676,275.961 164.383,274.423 166.875 L 271.627 171.406 298.079 171.582 C 326.560 171.771,326.520 171.768,329.201 173.427 C 334.611 176.776,333.959 184.675,327.872 189.520 C 324.775 191.985,321.200 193.636,312.188 196.767 C 309.174 197.814,307.372 198.596,307.418 198.837 C 307.563 199.590,318.145 222.544,318.874 223.686 C 319.857 225.226,320.857 226.118,322.260 226.704 C 323.626 227.274,346.157 227.427,348.129 226.879 C 351.329 225.990,354.146 223.218,354.582 220.529 L 354.768 219.384 345.186 219.301 L 335.604 219.219 331.396 210.186 C 326.499 199.675,326.817 200.847,328.672 200.161 C 339.564 196.134,349.435 188.914,352.498 182.734 C 356.342 174.976,353.487 166.262,345.876 162.522 C 339.693 159.483,338.332 159.375,306.177 159.375 L 279.057 159.375 278.138 160.859 M378.294 177.969 C 378.386 178.484,378.650 181.139,378.880 183.867 L 379.299 188.828 385.119 194.648 L 390.938 200.467 311.812 279.594 C 247.105 344.301,232.854 358.699,233.609 358.601 C 235.046 358.414,237.297 357.891,241.875 356.678 L 246.094 355.560 323.047 278.639 L 400.000 201.719 400.000 199.999 L 400.000 198.278 389.375 187.656 C 383.531 181.814,378.748 177.245,378.745 177.502 C 378.741 177.915,378.705 177.915,378.433 177.500 C 378.209 177.159,378.171 177.286,378.294 177.969 M296.400 178.203 C 296.321 178.418,292.405 189.492,287.698 202.813 L 279.139 227.031 287.898 227.114 C 292.715 227.160,296.717 227.137,296.791 227.063 C 296.912 226.942,314.375 178.123,314.375 177.905 C 314.375 177.562,296.526 177.858,296.400 178.203 M29.443 185.400 L 25.000 189.852 25.002 199.535 C 25.015 274.027,69.952 339.013,139.337 364.883 C 147.664 367.988,161.289 371.854,162.399 371.428 C 162.644 371.334,162.764 371.388,162.666 371.547 C 162.567 371.707,162.774 371.815,163.126 371.789 C 163.611 371.752,162.286 370.260,157.667 365.636 L 151.567 359.531 146.174 357.721 C 81.385 335.973,35.638 274.507,33.482 206.309 C 33.259 199.255,33.526 188.529,34.033 184.228 C 34.486 180.374,34.451 180.383,29.443 185.400 M89.333 205.391 C 85.544 215.144,79.106 223.818,73.754 226.383 C 66.599 229.812,62.125 225.747,64.216 217.717 C 66.260 209.870,75.753 203.370,86.406 202.525 C 88.125 202.388,89.767 202.256,90.055 202.232 C 90.491 202.195,90.372 202.717,89.333 205.391 M40.938 231.953 C 40.938 232.254,41.074 232.500,41.240 232.500 C 41.407 232.500,41.472 232.684,41.386 232.910 C 41.210 233.366,42.018 237.061,43.482 242.500 L 44.450 246.094 121.365 323.047 L 198.281 400.000 200.002 400.000 L 201.722 400.000 212.033 389.647 C 217.704 383.953,222.180 379.384,221.980 379.493 C 221.780 379.602,221.567 379.546,221.508 379.367 C 221.434 379.146,219.831 379.177,216.462 379.464 L 211.525 379.884 205.997 385.411 L 200.470 390.938 120.704 311.173 C 74.940 265.409,40.938 231.640,40.938 231.953 M365.263 242.746 L 359.462 248.594 357.539 254.295 C 333.657 325.116,261.437 372.666,187.516 366.239 C 181.264 365.696,181.296 365.502,186.742 370.982 L 191.406 375.676 202.500 375.525 C 275.274 374.540,338.747 329.647,364.177 261.176 C 367.310 252.739,371.253 238.889,370.753 238.079 C 370.638 237.894,370.735 237.625,370.967 237.482 C 371.198 237.339,371.315 237.149,371.226 237.060 C 371.137 236.971,368.454 239.530,365.263 242.746 M282.708 259.141 C 282.614 259.527,281.123 267.016,279.397 275.781 C 277.670 284.547,276.182 292.035,276.091 292.422 C 275.927 293.119,275.957 293.125,279.369 293.125 C 281.263 293.125,282.813 293.086,282.813 293.039 C 282.813 292.991,284.359 285.226,286.250 275.781 C 288.141 266.337,289.688 258.571,289.688 258.524 C 289.688 257.928,282.857 258.531,282.708 259.141 M114.852 260.996 C 114.773 261.222,113.362 268.297,111.715 276.719 C 110.068 285.141,108.646 292.282,108.555 292.589 C 108.401 293.104,108.656 293.139,111.920 293.057 L 115.451 292.969 116.700 286.641 L 117.950 280.313 120.784 280.313 C 128.514 280.313,133.740 276.533,135.498 269.671 C 136.442 265.983,135.329 262.867,132.583 261.514 C 130.767 260.621,115.143 260.164,114.852 260.996 M220.625 264.327 L 217.969 264.844 217.531 266.953 L 217.094 269.063 215.454 269.063 L 213.814 269.063 213.470 271.041 C 213.280 272.130,213.125 273.114,213.125 273.229 C 213.125 273.344,213.828 273.438,214.688 273.438 C 215.547 273.438,216.250 273.481,216.250 273.534 C 216.250 273.587,215.617 276.715,214.844 280.486 C 212.581 291.518,213.266 293.471,219.481 293.700 C 223.756 293.857,224.447 293.601,224.892 291.699 C 225.570 288.797,225.557 288.770,223.589 288.973 C 221.438 289.195,220.625 288.620,220.625 286.879 C 220.625 285.912,222.273 277.096,222.977 274.297 C 223.189 273.450,223.230 273.438,225.653 273.438 C 228.401 273.438,228.076 273.746,228.698 270.547 L 228.987 269.063 226.525 269.063 C 223.595 269.063,223.724 269.420,224.852 264.453 C 225.049 263.588,224.501 263.572,220.625 264.327 M126.117 265.489 C 131.860 266.350,127.289 275.097,120.747 275.764 L 118.838 275.959 119.934 270.475 L 121.030 264.992 123.093 265.168 C 124.228 265.265,125.589 265.409,126.117 265.489 M155.359 269.045 C 146.380 272.364,140.989 285.613,146.344 291.199 C 148.992 293.962,155.449 294.650,159.688 292.622 C 167.837 288.722,172.331 276.126,167.406 270.988 C 165.031 268.511,159.304 267.587,155.359 269.045 M198.035 269.245 C 196.134 270.235,193.334 273.027,191.633 275.630 C 190.907 276.742,190.313 277.566,190.313 277.462 C 190.313 277.358,190.664 275.547,191.094 273.438 C 191.523 271.328,191.875 269.480,191.875 269.332 C 191.875 269.184,190.345 269.063,188.474 269.063 L 185.073 269.063 182.834 280.547 C 181.602 286.863,180.521 292.277,180.432 292.578 C 180.285 293.076,180.582 293.125,183.729 293.125 C 185.631 293.125,187.188 293.074,187.188 293.012 C 187.188 290.736,188.942 284.884,190.162 283.092 C 194.274 277.051,197.076 274.586,199.656 274.740 L 201.386 274.844 202.231 272.188 C 203.448 268.364,203.465 268.435,201.328 268.452 C 200.043 268.462,199.105 268.688,198.035 269.245 M250.539 269.184 C 247.052 270.638,244.170 273.359,241.760 277.473 C 233.092 292.262,244.229 300.746,253.698 286.566 C 254.414 285.494,255.000 284.754,255.000 284.921 C 255.000 285.089,254.648 286.953,254.219 289.063 C 253.789 291.172,253.438 292.949,253.438 293.012 C 253.438 293.074,254.964 293.125,256.829 293.125 L 260.220 293.125 262.477 281.797 C 263.718 275.566,264.805 270.165,264.893 269.793 C 265.049 269.139,264.942 269.112,261.511 268.930 C 259.563 268.827,256.703 268.672,255.156 268.587 C 252.680 268.449,252.128 268.521,250.539 269.184 M160.776 273.619 C 163.418 275.350,162.307 283.573,158.951 287.136 C 155.374 290.933,151.428 289.392,151.451 284.208 C 151.482 277.075,156.813 271.022,160.776 273.619 M257.034 273.442 C 258.645 276.048,248.866 288.451,246.052 287.371 C 243.904 286.547,248.167 276.149,251.528 274.017 C 253.000 273.084,256.581 272.710,257.034 273.442 M205.000 296.187 L 205.000 297.687 203.926 297.562 C 202.525 297.398,199.688 298.335,199.688 298.961 C 199.688 300.683,198.559 301.250,195.135 301.250 C 191.458 301.250,191.286 301.408,192.437 303.728 C 193.224 305.315,194.442 305.888,197.089 305.915 C 199.569 305.940,200.938 306.319,200.938 306.980 C 200.938 307.412,198.905 307.804,196.631 307.810 C 194.596 307.815,194.863 310.399,197.041 311.774 C 198.288 312.563,198.436 312.781,198.437 313.828 C 198.438 316.250,197.436 315.603,189.531 308.079 C 186.419 305.116,184.932 304.850,180.156 306.402 C 179.121 306.738,178.890 306.963,178.813 307.714 C 178.703 308.789,178.430 308.457,185.418 315.756 C 188.392 318.864,191.375 322.021,192.047 322.773 L 193.268 324.140 186.009 323.909 L 178.750 323.677 178.750 324.479 C 178.750 326.753,179.444 328.528,180.877 329.921 C 182.837 331.825,183.051 331.875,189.317 331.875 L 194.844 331.874 194.750 336.406 L 194.655 340.938 193.656 340.948 C 190.478 340.981,188.927 343.478,188.428 349.365 L 188.030 354.063 186.906 354.065 C 184.552 354.069,181.875 357.091,181.875 359.743 L 181.875 361.250 187.451 361.250 L 193.026 361.250 196.513 357.638 L 200.000 354.026 200.000 351.769 L 200.000 349.511 201.431 349.089 C 203.046 348.612,205.198 349.024,205.523 349.873 C 205.621 350.127,206.106 350.545,206.600 350.801 C 207.095 351.057,207.500 351.480,207.500 351.742 C 207.500 352.004,207.715 352.633,207.977 353.141 L 208.454 354.063 207.372 354.063 C 204.515 354.063,201.563 357.232,201.563 360.300 L 201.563 361.563 207.271 361.563 L 212.979 361.563 216.373 358.158 L 219.767 354.754 219.633 349.098 C 219.483 342.729,219.331 342.260,217.048 341.126 L 215.855 340.534 216.084 329.455 L 216.314 318.376 217.376 316.411 C 218.671 314.012,218.743 312.543,217.665 310.514 C 216.694 308.690,215.938 305.813,215.938 303.950 C 215.938 301.435,213.479 298.438,211.416 298.438 C 210.590 298.438,209.235 297.696,207.299 296.186 C 204.949 294.351,205.000 294.351,205.000 296.187 " stroke="none" fill="#d50c2f" fill-rule="evenodd"></path><path id="path2" d="M187.967 10.353 C 182.296 16.047,177.820 20.616,178.020 20.507 C 178.220 20.398,178.433 20.454,178.492 20.633 C 178.566 20.854,180.168 20.823,183.535 20.537 L 188.470 20.117 194.003 14.591 L 199.535 9.065 279.220 88.752 C 323.048 132.579,358.962 168.269,359.031 168.063 C 359.100 167.856,359.002 167.636,358.814 167.574 C 358.626 167.511,358.540 167.284,358.622 167.070 C 358.790 166.632,357.962 162.866,356.518 157.500 L 355.550 153.906 278.635 76.953 L 201.719 -0.000 199.998 -0.000 L 198.278 0.000 187.967 10.353 M188.438 24.587 C 118.780 29.693,60.018 73.679,35.823 138.824 C 32.690 147.261,28.747 161.111,29.247 161.921 C 29.362 162.106,29.265 162.375,29.033 162.518 C 28.802 162.661,28.685 162.851,28.774 162.940 C 28.863 163.029,31.546 160.470,34.737 157.254 L 40.538 151.406 42.461 145.705 C 66.343 74.884,138.563 27.334,212.484 33.761 C 218.735 34.304,218.704 34.494,213.262 29.043 L 208.602 24.375 199.223 24.430 C 194.064 24.460,189.211 24.531,188.438 24.587 M242.333 34.364 L 248.433 40.469 253.826 42.279 C 318.615 64.027,364.362 125.493,366.518 193.691 C 366.741 200.730,366.474 211.469,365.970 215.748 C 365.512 219.638,365.509 219.639,370.508 214.648 L 375.000 210.164 374.998 200.473 C 374.985 125.973,330.051 60.988,260.663 35.117 C 252.336 32.012,238.711 28.146,237.601 28.572 C 237.356 28.666,237.236 28.612,237.334 28.453 C 237.433 28.293,237.226 28.185,236.874 28.211 C 236.389 28.248,237.714 29.740,242.333 34.364 M164.219 41.775 C 163.188 42.011,160.445 42.707,158.125 43.322 L 153.906 44.440 76.953 121.361 L 0.000 198.281 -0.000 200.001 L -0.000 201.722 10.625 212.344 C 16.469 218.186,21.252 222.755,21.255 222.498 C 21.259 222.085,21.295 222.085,21.567 222.500 C 21.791 222.841,21.829 222.714,21.706 222.031 C 21.614 221.516,21.350 218.861,21.120 216.133 L 20.701 211.172 14.881 205.352 L 9.062 199.533 88.135 120.459 C 136.673 71.921,166.993 41.377,166.651 41.365 C 166.345 41.354,165.250 41.538,164.219 41.775 M202.036 106.016 C 201.964 106.230,201.597 107.988,201.221 109.922 L 200.537 113.438 198.131 113.438 C 193.603 113.438,189.773 116.340,187.150 121.759 C 182.291 131.797,189.777 136.892,196.400 128.055 C 197.257 126.913,197.983 126.004,198.016 126.037 C 198.048 126.069,197.810 127.361,197.487 128.907 C 197.164 130.453,196.894 131.824,196.887 131.953 C 196.881 132.082,198.060 132.188,199.509 132.188 L 202.143 132.188 202.483 130.547 C 202.670 129.645,203.852 123.668,205.108 117.266 L 207.393 105.625 204.780 105.625 C 202.969 105.625,202.128 105.745,202.036 106.016 M111.744 107.192 C 108.090 108.619,105.945 112.479,106.878 115.951 C 107.271 117.414,108.362 118.624,112.577 122.274 C 117.951 126.926,113.618 131.230,106.241 128.569 C 103.645 127.633,103.842 127.555,103.440 129.676 C 102.968 132.165,102.923 132.095,105.240 132.509 C 114.122 134.096,120.924 130.772,120.924 124.844 C 120.924 121.973,120.354 121.192,114.582 116.154 C 109.766 111.949,113.446 108.317,120.176 110.632 C 121.187 110.979,122.178 111.200,122.380 111.123 C 122.669 111.012,123.284 108.237,123.184 107.500 C 123.051 106.527,114.067 106.285,111.744 107.192 M139.063 110.072 C 137.113 110.424,137.007 110.529,136.727 112.395 C 136.528 113.725,136.502 113.750,135.314 113.750 C 134.039 113.750,134.009 113.786,133.592 115.859 C 133.388 116.873,133.390 116.875,134.669 116.875 C 135.838 116.875,135.935 116.936,135.783 117.578 C 132.702 130.611,133.136 132.465,139.278 132.489 C 142.492 132.501,142.357 132.578,142.661 130.547 L 142.883 129.063 141.464 129.063 C 140.154 129.063,139.063 128.506,139.063 127.839 C 139.063 127.592,140.794 118.853,141.096 117.578 C 141.245 116.947,141.451 116.875,143.110 116.875 C 145.097 116.875,145.034 116.931,145.470 114.766 L 145.675 113.750 143.740 113.750 L 141.805 113.750 142.023 112.578 C 142.142 111.934,142.316 111.020,142.409 110.547 C 142.603 109.560,142.208 109.504,139.063 110.072 M281.875 110.072 C 279.926 110.424,279.820 110.529,279.540 112.395 C 279.340 113.725,279.314 113.750,278.127 113.750 C 276.852 113.750,276.822 113.786,276.405 115.859 C 276.201 116.873,276.203 116.875,277.481 116.875 C 278.650 116.875,278.747 116.936,278.596 117.578 C 275.514 130.611,275.949 132.465,282.091 132.489 C 285.304 132.501,285.170 132.578,285.474 130.547 L 285.696 129.063 284.277 129.063 C 282.966 129.063,281.875 128.506,281.875 127.839 C 281.875 127.592,283.607 118.853,283.908 117.578 C 284.057 116.947,284.264 116.875,285.922 116.875 C 287.910 116.875,287.847 116.931,288.283 114.766 L 288.487 113.750 286.553 113.750 L 284.618 113.750 284.835 112.578 C 284.955 111.934,285.128 111.020,285.221 110.547 C 285.416 109.560,285.020 109.504,281.875 110.072 M224.131 114.089 C 216.037 117.275,213.312 129.929,220.229 132.211 C 223.157 133.178,231.998 131.724,232.339 130.220 C 233.297 125.991,233.438 126.170,230.316 127.636 C 226.387 129.479,222.808 129.512,221.943 127.714 C 221.158 126.081,221.237 125.625,222.307 125.625 C 229.650 125.625,235.817 118.226,231.699 114.356 C 230.548 113.275,226.557 113.134,224.131 114.089 M257.813 114.052 C 256.551 114.728,254.177 117.105,252.998 118.872 C 252.051 120.291,252.059 120.366,252.783 116.629 L 253.345 113.727 250.666 113.817 L 247.987 113.906 246.348 122.344 C 245.447 126.984,244.632 131.098,244.536 131.484 C 244.367 132.172,244.422 132.188,247.019 132.188 C 249.517 132.188,249.685 132.146,249.839 131.484 C 249.928 131.098,250.213 129.752,250.470 128.493 C 251.036 125.727,253.724 121.594,256.545 119.152 C 258.927 117.089,258.838 119.500,256.087 131.484 C 255.866 132.448,261.088 132.603,261.366 131.641 C 262.217 128.700,264.103 117.720,263.979 116.429 C 263.710 113.625,260.742 112.481,257.813 114.052 M158.172 115.234 C 154.909 130.519,155.011 132.500,159.061 132.500 C 161.661 132.500,163.903 130.914,166.524 127.219 C 167.061 126.462,167.500 125.926,167.500 126.026 C 167.500 126.216,166.689 130.245,166.401 131.484 C 166.178 132.448,171.400 132.603,171.679 131.641 C 171.766 131.340,172.557 127.438,173.438 122.969 C 174.318 118.500,175.109 114.598,175.196 114.297 C 175.338 113.806,175.079 113.750,172.683 113.750 C 170.168 113.750,170.003 113.791,169.855 114.453 C 169.769 114.840,169.485 116.115,169.224 117.287 C 168.222 121.786,161.250 130.291,161.250 127.015 C 161.250 126.574,163.245 116.124,163.648 114.453 C 163.814 113.766,163.758 113.750,161.154 113.750 L 158.489 113.750 158.172 115.234 M199.443 118.395 C 199.274 121.028,193.573 127.699,191.720 127.434 C 189.828 127.162,192.421 119.717,195.079 117.792 C 196.187 116.989,196.619 116.861,197.957 116.939 L 199.531 117.031 199.443 118.395 M227.819 117.512 C 228.800 119.345,225.844 122.188,222.958 122.188 C 221.937 122.188,221.852 122.122,222.043 121.484 C 223.047 118.116,226.772 115.555,227.819 117.512 M107.279 154.766 C 106.767 156.184,103.409 165.675,99.815 175.858 L 93.281 194.372 86.711 194.373 C 66.191 194.379,53.190 200.616,47.534 213.169 C 41.580 226.381,49.079 235.938,65.401 235.938 C 83.560 235.938,96.606 226.663,106.173 206.953 L 108.486 202.188 116.382 202.188 L 124.278 202.188 119.825 214.609 L 115.373 227.031 124.140 227.114 C 128.962 227.160,132.956 227.148,133.017 227.087 C 133.122 226.982,141.875 202.468,141.875 202.278 C 141.875 202.228,148.951 202.188,157.600 202.188 C 174.838 202.188,175.224 202.152,177.740 200.329 C 179.202 199.270,180.572 197.131,180.838 195.492 L 181.019 194.375 162.853 194.375 C 152.862 194.375,144.688 194.336,144.688 194.289 C 144.688 194.241,147.430 186.495,150.781 177.075 C 154.133 167.655,156.875 159.817,156.875 159.657 C 156.875 159.481,153.362 159.398,148.051 159.448 L 139.227 159.531 133.105 176.875 L 126.984 194.219 118.961 194.302 C 114.220 194.351,110.938 194.268,110.938 194.098 C 110.938 193.838,124.382 156.165,125.476 153.359 L 125.932 152.188 117.070 152.188 L 108.208 152.188 107.279 154.766 M173.050 160.078 C 171.819 161.962,166.250 171.216,166.250 171.378 C 166.250 171.479,171.242 171.563,177.344 171.563 C 186.387 171.563,188.438 171.640,188.438 171.980 C 188.438 172.560,183.818 223.523,183.580 225.573 L 183.386 227.239 188.967 227.135 C 198.651 226.955,197.585 227.988,213.286 203.569 L 225.156 185.108 225.237 206.175 L 225.317 227.242 230.237 227.137 C 239.504 226.938,237.624 229.283,257.868 192.656 C 266.798 176.500,274.593 162.402,275.192 161.328 L 276.281 159.375 270.250 159.387 L 264.219 159.399 252.969 180.246 L 241.719 201.094 241.638 180.206 L 241.558 159.318 236.951 159.425 C 228.728 159.615,229.820 158.483,214.242 182.959 C 207.728 193.193,202.354 201.521,202.300 201.466 C 202.245 201.411,202.979 194.204,203.932 185.449 C 205.843 167.878,205.875 166.594,204.463 163.977 C 202.166 159.720,200.753 159.375,185.604 159.375 L 173.509 159.375 173.050 160.078 M278.138 160.859 C 277.633 161.676,275.961 164.383,274.423 166.875 L 271.627 171.406 298.079 171.582 C 326.560 171.771,326.520 171.768,329.201 173.427 C 334.611 176.776,333.959 184.675,327.872 189.520 C 324.775 191.985,321.200 193.636,312.188 196.767 C 309.174 197.814,307.372 198.596,307.418 198.837 C 307.563 199.590,318.145 222.544,318.874 223.686 C 319.857 225.226,320.857 226.118,322.260 226.704 C 323.626 227.274,346.157 227.427,348.129 226.879 C 351.329 225.990,354.146 223.218,354.582 220.529 L 354.768 219.384 345.186 219.301 L 335.604 219.219 331.396 210.186 C 326.499 199.675,326.817 200.847,328.672 200.161 C 339.564 196.134,349.435 188.914,352.498 182.734 C 356.342 174.976,353.487 166.262,345.876 162.522 C 339.693 159.483,338.332 159.375,306.177 159.375 L 279.057 159.375 278.138 160.859 M378.294 177.969 C 378.386 178.484,378.650 181.139,378.880 183.867 L 379.299 188.828 385.119 194.648 L 390.938 200.467 311.812 279.594 C 247.105 344.301,232.854 358.699,233.609 358.601 C 235.046 358.414,237.297 357.891,241.875 356.678 L 246.094 355.560 323.047 278.639 L 400.000 201.719 400.000 199.999 L 400.000 198.278 389.375 187.656 C 383.531 181.814,378.748 177.245,378.745 177.502 C 378.741 177.915,378.705 177.915,378.433 177.500 C 378.209 177.159,378.171 177.286,378.294 177.969 M296.400 178.203 C 296.321 178.418,292.405 189.492,287.698 202.813 L 279.139 227.031 287.898 227.114 C 292.715 227.160,296.717 227.137,296.791 227.063 C 296.912 226.942,314.375 178.123,314.375 177.905 C 314.375 177.562,296.526 177.858,296.400 178.203 M29.443 185.400 L 25.000 189.852 25.002 199.535 C 25.015 274.027,69.952 339.013,139.337 364.883 C 147.664 367.988,161.289 371.854,162.399 371.428 C 162.644 371.334,162.764 371.388,162.666 371.547 C 162.567 371.707,162.774 371.815,163.126 371.789 C 163.611 371.752,162.286 370.260,157.667 365.636 L 151.567 359.531 146.174 357.721 C 81.385 335.973,35.638 274.507,33.482 206.309 C 33.259 199.255,33.526 188.529,34.033 184.228 C 34.486 180.374,34.451 180.383,29.443 185.400 M89.333 205.391 C 85.544 215.144,79.106 223.818,73.754 226.383 C 66.599 229.812,62.125 225.747,64.216 217.717 C 66.260 209.870,75.753 203.370,86.406 202.525 C 88.125 202.388,89.767 202.256,90.055 202.232 C 90.491 202.195,90.372 202.717,89.333 205.391 M40.938 231.953 C 40.938 232.254,41.074 232.500,41.240 232.500 C 41.407 232.500,41.472 232.684,41.386 232.910 C 41.210 233.366,42.018 237.061,43.482 242.500 L 44.450 246.094 121.365 323.047 L 198.281 400.000 200.002 400.000 L 201.722 400.000 212.033 389.647 C 217.704 383.953,222.180 379.384,221.980 379.493 C 221.780 379.602,221.567 379.546,221.508 379.367 C 221.434 379.146,219.831 379.177,216.462 379.464 L 211.525 379.884 205.997 385.411 L 200.470 390.938 120.704 311.173 C 74.940 265.409,40.938 231.640,40.938 231.953 M365.263 242.746 L 359.462 248.594 357.539 254.295 C 333.657 325.116,261.437 372.666,187.516 366.239 C 181.264 365.696,181.296 365.502,186.742 370.982 L 191.406 375.676 202.500 375.525 C 275.274 374.540,338.747 329.647,364.177 261.176 C 367.310 252.739,371.253 238.889,370.753 238.079 C 370.638 237.894,370.735 237.625,370.967 237.482 C 371.198 237.339,371.315 237.149,371.226 237.060 C 371.137 236.971,368.454 239.530,365.263 242.746 M282.708 259.141 C 282.614 259.527,281.123 267.016,279.397 275.781 C 277.670 284.547,276.182 292.035,276.091 292.422 C 275.927 293.119,275.957 293.125,279.369 293.125 C 281.263 293.125,282.813 293.086,282.813 293.039 C 282.813 292.991,284.359 285.226,286.250 275.781 C 288.141 266.337,289.688 258.571,289.688 258.524 C 289.688 257.928,282.857 258.531,282.708 259.141 M114.852 260.996 C 114.773 261.222,113.362 268.297,111.715 276.719 C 110.068 285.141,108.646 292.282,108.555 292.589 C 108.401 293.104,108.656 293.139,111.920 293.057 L 115.451 292.969 116.700 286.641 L 117.950 280.313 120.784 280.313 C 128.514 280.313,133.740 276.533,135.498 269.671 C 136.442 265.983,135.329 262.867,132.583 261.514 C 130.767 260.621,115.143 260.164,114.852 260.996 M220.625 264.327 L 217.969 264.844 217.531 266.953 L 217.094 269.063 215.454 269.063 L 213.814 269.063 213.470 271.041 C 213.280 272.130,213.125 273.114,213.125 273.229 C 213.125 273.344,213.828 273.438,214.688 273.438 C 215.547 273.438,216.250 273.481,216.250 273.534 C 216.250 273.587,215.617 276.715,214.844 280.486 C 212.581 291.518,213.266 293.471,219.481 293.700 C 223.756 293.857,224.447 293.601,224.892 291.699 C 225.570 288.797,225.557 288.770,223.589 288.973 C 221.438 289.195,220.625 288.620,220.625 286.879 C 220.625 285.912,222.273 277.096,222.977 274.297 C 223.189 273.450,223.230 273.438,225.653 273.438 C 228.401 273.438,228.076 273.746,228.698 270.547 L 228.987 269.063 226.525 269.063 C 223.595 269.063,223.724 269.420,224.852 264.453 C 225.049 263.588,224.501 263.572,220.625 264.327 M126.117 265.489 C 131.860 266.350,127.289 275.097,120.747 275.764 L 118.838 275.959 119.934 270.475 L 121.030 264.992 123.093 265.168 C 124.228 265.265,125.589 265.409,126.117 265.489 M155.359 269.045 C 146.380 272.364,140.989 285.613,146.344 291.199 C 148.992 293.962,155.449 294.650,159.688 292.622 C 167.837 288.722,172.331 276.126,167.406 270.988 C 165.031 268.511,159.304 267.587,155.359 269.045 M198.035 269.245 C 196.134 270.235,193.334 273.027,191.633 275.630 C 190.907 276.742,190.313 277.566,190.313 277.462 C 190.313 277.358,190.664 275.547,191.094 273.438 C 191.523 271.328,191.875 269.480,191.875 269.332 C 191.875 269.184,190.345 269.063,188.474 269.063 L 185.073 269.063 182.834 280.547 C 181.602 286.863,180.521 292.277,180.432 292.578 C 180.285 293.076,180.582 293.125,183.729 293.125 C 185.631 293.125,187.188 293.074,187.188 293.012 C 187.188 290.736,188.942 284.884,190.162 283.092 C 194.274 277.051,197.076 274.586,199.656 274.740 L 201.386 274.844 202.231 272.188 C 203.448 268.364,203.465 268.435,201.328 268.452 C 200.043 268.462,199.105 268.688,198.035 269.245 M250.539 269.184 C 247.052 270.638,244.170 273.359,241.760 277.473 C 233.092 292.262,244.229 300.746,253.698 286.566 C 254.414 285.494,255.000 284.754,255.000 284.921 C 255.000 285.089,254.648 286.953,254.219 289.063 C 253.789 291.172,253.438 292.949,253.438 293.012 C 253.438 293.074,254.964 293.125,256.829 293.125 L 260.220 293.125 262.477 281.797 C 263.718 275.566,264.805 270.165,264.893 269.793 C 265.049 269.139,264.942 269.112,261.511 268.930 C 259.563 268.827,256.703 268.672,255.156 268.587 C 252.680 268.449,252.128 268.521,250.539 269.184 M160.776 273.619 C 163.418 275.350,162.307 283.573,158.951 287.136 C 155.374 290.933,151.428 289.392,151.451 284.208 C 151.482 277.075,156.813 271.022,160.776 273.619 M257.034 273.442 C 258.645 276.048,248.866 288.451,246.052 287.371 C 243.904 286.547,248.167 276.149,251.528 274.017 C 253.000 273.084,256.581 272.710,257.034 273.442 M205.000 296.187 L 205.000 297.687 203.926 297.562 C 202.525 297.398,199.688 298.335,199.688 298.961 C 199.688 300.683,198.559 301.250,195.135 301.250 C 191.458 301.250,191.286 301.408,192.437 303.728 C 193.224 305.315,194.442 305.888,197.089 305.915 C 199.569 305.940,200.938 306.319,200.938 306.980 C 200.938 307.412,198.905 307.804,196.631 307.810 C 194.596 307.815,194.863 310.399,197.041 311.774 C 198.288 312.563,198.436 312.781,198.437 313.828 C 198.438 316.250,197.436 315.603,189.531 308.079 C 186.419 305.116,184.932 304.850,180.156 306.402 C 179.121 306.738,178.890 306.963,178.813 307.714 C 178.703 308.789,178.430 308.457,185.418 315.756 C 188.392 318.864,191.375 322.021,192.047 322.773 L 193.268 324.140 186.009 323.909 L 178.750 323.677 178.750 324.479 C 178.750 326.753,179.444 328.528,180.877 329.921 C 182.837 331.825,183.051 331.875,189.317 331.875 L 194.844 331.874 194.750 336.406 L 194.655 340.938 193.656 340.948 C 190.478 340.981,188.927 343.478,188.428 349.365 L 188.030 354.063 186.906 354.065 C 184.552 354.069,181.875 357.091,181.875 359.743 L 181.875 361.250 187.451 361.250 L 193.026 361.250 196.513 357.638 L 200.000 354.026 200.000 351.769 L 200.000 349.511 201.431 349.089 C 203.046 348.612,205.198 349.024,205.523 349.873 C 205.621 350.127,206.106 350.545,206.600 350.801 C 207.095 351.057,207.500 351.480,207.500 351.742 C 207.500 352.004,207.715 352.633,207.977 353.141 L 208.454 354.063 207.372 354.063 C 204.515 354.063,201.563 357.232,201.563 360.300 L 201.563 361.563 207.271 361.563 L 212.979 361.563 216.373 358.158 L 219.767 354.754 219.633 349.098 C 219.483 342.729,219.331 342.260,217.048 341.126 L 215.855 340.534 216.084 329.455 L 216.314 318.376 217.376 316.411 C 218.671 314.012,218.743 312.543,217.665 310.514 C 216.694 308.690,215.938 305.813,215.938 303.950 C 215.938 301.435,213.479 298.438,211.416 298.438 C 210.590 298.438,209.235 297.696,207.299 296.186 C 204.949 294.351,205.000 294.351,205.000 296.187 " stroke="none" fill="#d50c2f" fill-rule="evenodd"></path><path id="path3" d="M187.967 10.353 C 182.296 16.047,177.820 20.616,178.020 20.507 C 178.220 20.398,178.433 20.454,178.492 20.633 C 178.566 20.854,180.168 20.823,183.535 20.537 L 188.470 20.117 194.003 14.591 L 199.535 9.065 279.220 88.752 C 323.048 132.579,358.962 168.269,359.031 168.063 C 359.100 167.856,359.002 167.636,358.814 167.574 C 358.626 167.511,358.540 167.284,358.622 167.070 C 358.790 166.632,357.962 162.866,356.518 157.500 L 355.550 153.906 278.635 76.953 L 201.719 -0.000 199.998 -0.000 L 198.278 0.000 187.967 10.353 M188.438 24.587 C 118.780 29.693,60.018 73.679,35.823 138.824 C 32.690 147.261,28.747 161.111,29.247 161.921 C 29.362 162.106,29.265 162.375,29.033 162.518 C 28.802 162.661,28.685 162.851,28.774 162.940 C 28.863 163.029,31.546 160.470,34.737 157.254 L 40.538 151.406 42.461 145.705 C 66.343 74.884,138.563 27.334,212.484 33.761 C 218.735 34.304,218.704 34.494,213.262 29.043 L 208.602 24.375 199.223 24.430 C 194.064 24.460,189.211 24.531,188.438 24.587 M242.333 34.364 L 248.433 40.469 253.826 42.279 C 318.615 64.027,364.362 125.493,366.518 193.691 C 366.741 200.730,366.474 211.469,365.970 215.748 C 365.512 219.638,365.509 219.639,370.508 214.648 L 375.000 210.164 374.998 200.473 C 374.985 125.973,330.051 60.988,260.663 35.117 C 252.336 32.012,238.711 28.146,237.601 28.572 C 237.356 28.666,237.236 28.612,237.334 28.453 C 237.433 28.293,237.226 28.185,236.874 28.211 C 236.389 28.248,237.714 29.740,242.333 34.364 M164.219 41.775 C 163.188 42.011,160.445 42.707,158.125 43.322 L 153.906 44.440 76.953 121.361 L 0.000 198.281 -0.000 200.001 L -0.000 201.722 10.625 212.344 C 16.469 218.186,21.252 222.755,21.255 222.498 C 21.259 222.085,21.295 222.085,21.567 222.500 C 21.791 222.841,21.829 222.714,21.706 222.031 C 21.614 221.516,21.350 218.861,21.120 216.133 L 20.701 211.172 14.881 205.352 L 9.062 199.533 88.135 120.459 C 136.673 71.921,166.993 41.377,166.651 41.365 C 166.345 41.354,165.250 41.538,164.219 41.775 M202.036 106.016 C 201.964 106.230,201.597 107.988,201.221 109.922 L 200.537 113.438 198.131 113.438 C 193.603 113.438,189.773 116.340,187.150 121.759 C 182.291 131.797,189.777 136.892,196.400 128.055 C 197.257 126.913,197.983 126.004,198.016 126.037 C 198.048 126.069,197.810 127.361,197.487 128.907 C 197.164 130.453,196.894 131.824,196.887 131.953 C 196.881 132.082,198.060 132.188,199.509 132.188 L 202.143 132.188 202.483 130.547 C 202.670 129.645,203.852 123.668,205.108 117.266 L 207.393 105.625 204.780 105.625 C 202.969 105.625,202.128 105.745,202.036 106.016 M111.744 107.192 C 108.090 108.619,105.945 112.479,106.878 115.951 C 107.271 117.414,108.362 118.624,112.577 122.274 C 117.951 126.926,113.618 131.230,106.241 128.569 C 103.645 127.633,103.842 127.555,103.440 129.676 C 102.968 132.165,102.923 132.095,105.240 132.509 C 114.122 134.096,120.924 130.772,120.924 124.844 C 120.924 121.973,120.354 121.192,114.582 116.154 C 109.766 111.949,113.446 108.317,120.176 110.632 C 121.187 110.979,122.178 111.200,122.380 111.123 C 122.669 111.012,123.284 108.237,123.184 107.500 C 123.051 106.527,114.067 106.285,111.744 107.192 M139.063 110.072 C 137.113 110.424,137.007 110.529,136.727 112.395 C 136.528 113.725,136.502 113.750,135.314 113.750 C 134.039 113.750,134.009 113.786,133.592 115.859 C 133.388 116.873,133.390 116.875,134.669 116.875 C 135.838 116.875,135.935 116.936,135.783 117.578 C 132.702 130.611,133.136 132.465,139.278 132.489 C 142.492 132.501,142.357 132.578,142.661 130.547 L 142.883 129.063 141.464 129.063 C 140.154 129.063,139.063 128.506,139.063 127.839 C 139.063 127.592,140.794 118.853,141.096 117.578 C 141.245 116.947,141.451 116.875,143.110 116.875 C 145.097 116.875,145.034 116.931,145.470 114.766 L 145.675 113.750 143.740 113.750 L 141.805 113.750 142.023 112.578 C 142.142 111.934,142.316 111.020,142.409 110.547 C 142.603 109.560,142.208 109.504,139.063 110.072 M281.875 110.072 C 279.926 110.424,279.820 110.529,279.540 112.395 C 279.340 113.725,279.314 113.750,278.127 113.750 C 276.852 113.750,276.822 113.786,276.405 115.859 C 276.201 116.873,276.203 116.875,277.481 116.875 C 278.650 116.875,278.747 116.936,278.596 117.578 C 275.514 130.611,275.949 132.465,282.091 132.489 C 285.304 132.501,285.170 132.578,285.474 130.547 L 285.696 129.063 284.277 129.063 C 282.966 129.063,281.875 128.506,281.875 127.839 C 281.875 127.592,283.607 118.853,283.908 117.578 C 284.057 116.947,284.264 116.875,285.922 116.875 C 287.910 116.875,287.847 116.931,288.283 114.766 L 288.487 113.750 286.553 113.750 L 284.618 113.750 284.835 112.578 C 284.955 111.934,285.128 111.020,285.221 110.547 C 285.416 109.560,285.020 109.504,281.875 110.072 M224.131 114.089 C 216.037 117.275,213.312 129.929,220.229 132.211 C 223.157 133.178,231.998 131.724,232.339 130.220 C 233.297 125.991,233.438 126.170,230.316 127.636 C 226.387 129.479,222.808 129.512,221.943 127.714 C 221.158 126.081,221.237 125.625,222.307 125.625 C 229.650 125.625,235.817 118.226,231.699 114.356 C 230.548 113.275,226.557 113.134,224.131 114.089 M257.813 114.052 C 256.551 114.728,254.177 117.105,252.998 118.872 C 252.051 120.291,252.059 120.366,252.783 116.629 L 253.345 113.727 250.666 113.817 L 247.987 113.906 246.348 122.344 C 245.447 126.984,244.632 131.098,244.536 131.484 C 244.367 132.172,244.422 132.188,247.019 132.188 C 249.517 132.188,249.685 132.146,249.839 131.484 C 249.928 131.098,250.213 129.752,250.470 128.493 C 251.036 125.727,253.724 121.594,256.545 119.152 C 258.927 117.089,258.838 119.500,256.087 131.484 C 255.866 132.448,261.088 132.603,261.366 131.641 C 262.217 128.700,264.103 117.720,263.979 116.429 C 263.710 113.625,260.742 112.481,257.813 114.052 M158.172 115.234 C 154.909 130.519,155.011 132.500,159.061 132.500 C 161.661 132.500,163.903 130.914,166.524 127.219 C 167.061 126.462,167.500 125.926,167.500 126.026 C 167.500 126.216,166.689 130.245,166.401 131.484 C 166.178 132.448,171.400 132.603,171.679 131.641 C 171.766 131.340,172.557 127.438,173.438 122.969 C 174.318 118.500,175.109 114.598,175.196 114.297 C 175.338 113.806,175.079 113.750,172.683 113.750 C 170.168 113.750,170.003 113.791,169.855 114.453 C 169.769 114.840,169.485 116.115,169.224 117.287 C 168.222 121.786,161.250 130.291,161.250 127.015 C 161.250 126.574,163.245 116.124,163.648 114.453 C 163.814 113.766,163.758 113.750,161.154 113.750 L 158.489 113.750 158.172 115.234 M199.443 118.395 C 199.274 121.028,193.573 127.699,191.720 127.434 C 189.828 127.162,192.421 119.717,195.079 117.792 C 196.187 116.989,196.619 116.861,197.957 116.939 L 199.531 117.031 199.443 118.395 M227.819 117.512 C 228.800 119.345,225.844 122.188,222.958 122.188 C 221.937 122.188,221.852 122.122,222.043 121.484 C 223.047 118.116,226.772 115.555,227.819 117.512 M107.279 154.766 C 106.767 156.184,103.409 165.675,99.815 175.858 L 93.281 194.372 86.711 194.373 C 66.191 194.379,53.190 200.616,47.534 213.169 C 41.580 226.381,49.079 235.938,65.401 235.938 C 83.560 235.938,96.606 226.663,106.173 206.953 L 108.486 202.188 116.382 202.188 L 124.278 202.188 119.825 214.609 L 115.373 227.031 124.140 227.114 C 128.962 227.160,132.956 227.148,133.017 227.087 C 133.122 226.982,141.875 202.468,141.875 202.278 C 141.875 202.228,148.951 202.188,157.600 202.188 C 174.838 202.188,175.224 202.152,177.740 200.329 C 179.202 199.270,180.572 197.131,180.838 195.492 L 181.019 194.375 162.853 194.375 C 152.862 194.375,144.688 194.336,144.688 194.289 C 144.688 194.241,147.430 186.495,150.781 177.075 C 154.133 167.655,156.875 159.817,156.875 159.657 C 156.875 159.481,153.362 159.398,148.051 159.448 L 139.227 159.531 133.105 176.875 L 126.984 194.219 118.961 194.302 C 114.220 194.351,110.938 194.268,110.938 194.098 C 110.938 193.838,124.382 156.165,125.476 153.359 L 125.932 152.188 117.070 152.188 L 108.208 152.188 107.279 154.766 M173.050 160.078 C 171.819 161.962,166.250 171.216,166.250 171.378 C 166.250 171.479,171.242 171.563,177.344 171.563 C 186.387 171.563,188.438 171.640,188.438 171.980 C 188.438 172.560,183.818 223.523,183.580 225.573 L 183.386 227.239 188.967 227.135 C 198.651 226.955,197.585 227.988,213.286 203.569 L 225.156 185.108 225.237 206.175 L 225.317 227.242 230.237 227.137 C 239.504 226.938,237.624 229.283,257.868 192.656 C 266.798 176.500,274.593 162.402,275.192 161.328 L 276.281 159.375 270.250 159.387 L 264.219 159.399 252.969 180.246 L 241.719 201.094 241.638 180.206 L 241.558 159.318 236.951 159.425 C 228.728 159.615,229.820 158.483,214.242 182.959 C 207.728 193.193,202.354 201.521,202.300 201.466 C 202.245 201.411,202.979 194.204,203.932 185.449 C 205.843 167.878,205.875 166.594,204.463 163.977 C 202.166 159.720,200.753 159.375,185.604 159.375 L 173.509 159.375 173.050 160.078 M278.138 160.859 C 277.633 161.676,275.961 164.383,274.423 166.875 L 271.627 171.406 298.079 171.582 C 326.560 171.771,326.520 171.768,329.201 173.427 C 334.611 176.776,333.959 184.675,327.872 189.520 C 324.775 191.985,321.200 193.636,312.188 196.767 C 309.174 197.814,307.372 198.596,307.418 198.837 C 307.563 199.590,318.145 222.544,318.874 223.686 C 319.857 225.226,320.857 226.118,322.260 226.704 C 323.626 227.274,346.157 227.427,348.129 226.879 C 351.329 225.990,354.146 223.218,354.582 220.529 L 354.768 219.384 345.186 219.301 L 335.604 219.219 331.396 210.186 C 326.499 199.675,326.817 200.847,328.672 200.161 C 339.564 196.134,349.435 188.914,352.498 182.734 C 356.342 174.976,353.487 166.262,345.876 162.522 C 339.693 159.483,338.332 159.375,306.177 159.375 L 279.057 159.375 278.138 160.859 M378.294 177.969 C 378.386 178.484,378.650 181.139,378.880 183.867 L 379.299 188.828 385.119 194.648 L 390.938 200.467 311.812 279.594 C 247.105 344.301,232.854 358.699,233.609 358.601 C 235.046 358.414,237.297 357.891,241.875 356.678 L 246.094 355.560 323.047 278.639 L 400.000 201.719 400.000 199.999 L 400.000 198.278 389.375 187.656 C 383.531 181.814,378.748 177.245,378.745 177.502 C 378.741 177.915,378.705 177.915,378.433 177.500 C 378.209 177.159,378.171 177.286,378.294 177.969 M296.400 178.203 C 296.321 178.418,292.405 189.492,287.698 202.813 L 279.139 227.031 287.898 227.114 C 292.715 227.160,296.717 227.137,296.791 227.063 C 296.912 226.942,314.375 178.123,314.375 177.905 C 314.375 177.562,296.526 177.858,296.400 178.203 M29.443 185.400 L 25.000 189.852 25.002 199.535 C 25.015 274.027,69.952 339.013,139.337 364.883 C 147.664 367.988,161.289 371.854,162.399 371.428 C 162.644 371.334,162.764 371.388,162.666 371.547 C 162.567 371.707,162.774 371.815,163.126 371.789 C 163.611 371.752,162.286 370.260,157.667 365.636 L 151.567 359.531 146.174 357.721 C 81.385 335.973,35.638 274.507,33.482 206.309 C 33.259 199.255,33.526 188.529,34.033 184.228 C 34.486 180.374,34.451 180.383,29.443 185.400 M89.333 205.391 C 85.544 215.144,79.106 223.818,73.754 226.383 C 66.599 229.812,62.125 225.747,64.216 217.717 C 66.260 209.870,75.753 203.370,86.406 202.525 C 88.125 202.388,89.767 202.256,90.055 202.232 C 90.491 202.195,90.372 202.717,89.333 205.391 M40.938 231.953 C 40.938 232.254,41.074 232.500,41.240 232.500 C 41.407 232.500,41.472 232.684,41.386 232.910 C 41.210 233.366,42.018 237.061,43.482 242.500 L 44.450 246.094 121.365 323.047 L 198.281 400.000 200.002 400.000 L 201.722 400.000 212.033 389.647 C 217.704 383.953,222.180 379.384,221.980 379.493 C 221.780 379.602,221.567 379.546,221.508 379.367 C 221.434 379.146,219.831 379.177,216.462 379.464 L 211.525 379.884 205.997 385.411 L 200.470 390.938 120.704 311.173 C 74.940 265.409,40.938 231.640,40.938 231.953 M365.263 242.746 L 359.462 248.594 357.539 254.295 C 333.657 325.116,261.437 372.666,187.516 366.239 C 181.264 365.696,181.296 365.502,186.742 370.982 L 191.406 375.676 202.500 375.525 C 275.274 374.540,338.747 329.647,364.177 261.176 C 367.310 252.739,371.253 238.889,370.753 238.079 C 370.638 237.894,370.735 237.625,370.967 237.482 C 371.198 237.339,371.315 237.149,371.226 237.060 C 371.137 236.971,368.454 239.530,365.263 242.746 M282.708 259.141 C 282.614 259.527,281.123 267.016,279.397 275.781 C 277.670 284.547,276.182 292.035,276.091 292.422 C 275.927 293.119,275.957 293.125,279.369 293.125 C 281.263 293.125,282.813 293.086,282.813 293.039 C 282.813 292.991,284.359 285.226,286.250 275.781 C 288.141 266.337,289.688 258.571,289.688 258.524 C 289.688 257.928,282.857 258.531,282.708 259.141 M114.852 260.996 C 114.773 261.222,113.362 268.297,111.715 276.719 C 110.068 285.141,108.646 292.282,108.555 292.589 C 108.401 293.104,108.656 293.139,111.920 293.057 L 115.451 292.969 116.700 286.641 L 117.950 280.313 120.784 280.313 C 128.514 280.313,133.740 276.533,135.498 269.671 C 136.442 265.983,135.329 262.867,132.583 261.514 C 130.767 260.621,115.143 260.164,114.852 260.996 M220.625 264.327 L 217.969 264.844 217.531 266.953 L 217.094 269.063 215.454 269.063 L 213.814 269.063 213.470 271.041 C 213.280 272.130,213.125 273.114,213.125 273.229 C 213.125 273.344,213.828 273.438,214.688 273.438 C 215.547 273.438,216.250 273.481,216.250 273.534 C 216.250 273.587,215.617 276.715,214.844 280.486 C 212.581 291.518,213.266 293.471,219.481 293.700 C 223.756 293.857,224.447 293.601,224.892 291.699 C 225.570 288.797,225.557 288.770,223.589 288.973 C 221.438 289.195,220.625 288.620,220.625 286.879 C 220.625 285.912,222.273 277.096,222.977 274.297 C 223.189 273.450,223.230 273.438,225.653 273.438 C 228.401 273.438,228.076 273.746,228.698 270.547 L 228.987 269.063 226.525 269.063 C 223.595 269.063,223.724 269.420,224.852 264.453 C 225.049 263.588,224.501 263.572,220.625 264.327 M126.117 265.489 C 131.860 266.350,127.289 275.097,120.747 275.764 L 118.838 275.959 119.934 270.475 L 121.030 264.992 123.093 265.168 C 124.228 265.265,125.589 265.409,126.117 265.489 M155.359 269.045 C 146.380 272.364,140.989 285.613,146.344 291.199 C 148.992 293.962,155.449 294.650,159.688 292.622 C 167.837 288.722,172.331 276.126,167.406 270.988 C 165.031 268.511,159.304 267.587,155.359 269.045 M198.035 269.245 C 196.134 270.235,193.334 273.027,191.633 275.630 C 190.907 276.742,190.313 277.566,190.313 277.462 C 190.313 277.358,190.664 275.547,191.094 273.438 C 191.523 271.328,191.875 269.480,191.875 269.332 C 191.875 269.184,190.345 269.063,188.474 269.063 L 185.073 269.063 182.834 280.547 C 181.602 286.863,180.521 292.277,180.432 292.578 C 180.285 293.076,180.582 293.125,183.729 293.125 C 185.631 293.125,187.188 293.074,187.188 293.012 C 187.188 290.736,188.942 284.884,190.162 283.092 C 194.274 277.051,197.076 274.586,199.656 274.740 L 201.386 274.844 202.231 272.188 C 203.448 268.364,203.465 268.435,201.328 268.452 C 200.043 268.462,199.105 268.688,198.035 269.245 M250.539 269.184 C 247.052 270.638,244.170 273.359,241.760 277.473 C 233.092 292.262,244.229 300.746,253.698 286.566 C 254.414 285.494,255.000 284.754,255.000 284.921 C 255.000 285.089,254.648 286.953,254.219 289.063 C 253.789 291.172,253.438 292.949,253.438 293.012 C 253.438 293.074,254.964 293.125,256.829 293.125 L 260.220 293.125 262.477 281.797 C 263.718 275.566,264.805 270.165,264.893 269.793 C 265.049 269.139,264.942 269.112,261.511 268.930 C 259.563 268.827,256.703 268.672,255.156 268.587 C 252.680 268.449,252.128 268.521,250.539 269.184 M160.776 273.619 C 163.418 275.350,162.307 283.573,158.951 287.136 C 155.374 290.933,151.428 289.392,151.451 284.208 C 151.482 277.075,156.813 271.022,160.776 273.619 M257.034 273.442 C 258.645 276.048,248.866 288.451,246.052 287.371 C 243.904 286.547,248.167 276.149,251.528 274.017 C 253.000 273.084,256.581 272.710,257.034 273.442 M205.000 296.187 L 205.000 297.687 203.926 297.562 C 202.525 297.398,199.688 298.335,199.688 298.961 C 199.688 300.683,198.559 301.250,195.135 301.250 C 191.458 301.250,191.286 301.408,192.437 303.728 C 193.224 305.315,194.442 305.888,197.089 305.915 C 199.569 305.940,200.938 306.319,200.938 306.980 C 200.938 307.412,198.905 307.804,196.631 307.810 C 194.596 307.815,194.863 310.399,197.041 311.774 C 198.288 312.563,198.436 312.781,198.437 313.828 C 198.438 316.250,197.436 315.603,189.531 308.079 C 186.419 305.116,184.932 304.850,180.156 306.402 C 179.121 306.738,178.890 306.963,178.813 307.714 C 178.703 308.789,178.430 308.457,185.418 315.756 C 188.392 318.864,191.375 322.021,192.047 322.773 L 193.268 324.140 186.009 323.909 L 178.750 323.677 178.750 324.479 C 178.750 326.753,179.444 328.528,180.877 329.921 C 182.837 331.825,183.051 331.875,189.317 331.875 L 194.844 331.874 194.750 336.406 L 194.655 340.938 193.656 340.948 C 190.478 340.981,188.927 343.478,188.428 349.365 L 188.030 354.063 186.906 354.065 C 184.552 354.069,181.875 357.091,181.875 359.743 L 181.875 361.250 187.451 361.250 L 193.026 361.250 196.513 357.638 L 200.000 354.026 200.000 351.769 L 200.000 349.511 201.431 349.089 C 203.046 348.612,205.198 349.024,205.523 349.873 C 205.621 350.127,206.106 350.545,206.600 350.801 C 207.095 351.057,207.500 351.480,207.500 351.742 C 207.500 352.004,207.715 352.633,207.977 353.141 L 208.454 354.063 207.372 354.063 C 204.515 354.063,201.563 357.232,201.563 360.300 L 201.563 361.563 207.271 361.563 L 212.979 361.563 216.373 358.158 L 219.767 354.754 219.633 349.098 C 219.483 342.729,219.331 342.260,217.048 341.126 L 215.855 340.534 216.084 329.455 L 216.314 318.376 217.376 316.411 C 218.671 314.012,218.743 312.543,217.665 310.514 C 216.694 308.690,215.938 305.813,215.938 303.950 C 215.938 301.435,213.479 298.438,211.416 298.438 C 210.590 298.438,209.235 297.696,207.299 296.186 C 204.949 294.351,205.000 294.351,205.000 296.187 " stroke="none" fill="#d50c2f" fill-rule="evenodd"></path><path id="path4" d="M187.967 10.353 C 182.296 16.047,177.820 20.616,178.020 20.507 C 178.220 20.398,178.433 20.454,178.492 20.633 C 178.566 20.854,180.168 20.823,183.535 20.537 L 188.470 20.117 194.003 14.591 L 199.535 9.065 279.220 88.752 C 323.048 132.579,358.962 168.269,359.031 168.063 C 359.100 167.856,359.002 167.636,358.814 167.574 C 358.626 167.511,358.540 167.284,358.622 167.070 C 358.790 166.632,357.962 162.866,356.518 157.500 L 355.550 153.906 278.635 76.953 L 201.719 -0.000 199.998 -0.000 L 198.278 0.000 187.967 10.353 M188.438 24.587 C 118.780 29.693,60.018 73.679,35.823 138.824 C 32.690 147.261,28.747 161.111,29.247 161.921 C 29.362 162.106,29.265 162.375,29.033 162.518 C 28.802 162.661,28.685 162.851,28.774 162.940 C 28.863 163.029,31.546 160.470,34.737 157.254 L 40.538 151.406 42.461 145.705 C 66.343 74.884,138.563 27.334,212.484 33.761 C 218.735 34.304,218.704 34.494,213.262 29.043 L 208.602 24.375 199.223 24.430 C 194.064 24.460,189.211 24.531,188.438 24.587 M242.333 34.364 L 248.433 40.469 253.826 42.279 C 318.615 64.027,364.362 125.493,366.518 193.691 C 366.741 200.730,366.474 211.469,365.970 215.748 C 365.512 219.638,365.509 219.639,370.508 214.648 L 375.000 210.164 374.998 200.473 C 374.985 125.973,330.051 60.988,260.663 35.117 C 252.336 32.012,238.711 28.146,237.601 28.572 C 237.356 28.666,237.236 28.612,237.334 28.453 C 237.433 28.293,237.226 28.185,236.874 28.211 C 236.389 28.248,237.714 29.740,242.333 34.364 M164.219 41.775 C 163.188 42.011,160.445 42.707,158.125 43.322 L 153.906 44.440 76.953 121.361 L 0.000 198.281 -0.000 200.001 L -0.000 201.722 10.625 212.344 C 16.469 218.186,21.252 222.755,21.255 222.498 C 21.259 222.085,21.295 222.085,21.567 222.500 C 21.791 222.841,21.829 222.714,21.706 222.031 C 21.614 221.516,21.350 218.861,21.120 216.133 L 20.701 211.172 14.881 205.352 L 9.062 199.533 88.135 120.459 C 136.673 71.921,166.993 41.377,166.651 41.365 C 166.345 41.354,165.250 41.538,164.219 41.775 M202.036 106.016 C 201.964 106.230,201.597 107.988,201.221 109.922 L 200.537 113.438 198.131 113.438 C 193.603 113.438,189.773 116.340,187.150 121.759 C 182.291 131.797,189.777 136.892,196.400 128.055 C 197.257 126.913,197.983 126.004,198.016 126.037 C 198.048 126.069,197.810 127.361,197.487 128.907 C 197.164 130.453,196.894 131.824,196.887 131.953 C 196.881 132.082,198.060 132.188,199.509 132.188 L 202.143 132.188 202.483 130.547 C 202.670 129.645,203.852 123.668,205.108 117.266 L 207.393 105.625 204.780 105.625 C 202.969 105.625,202.128 105.745,202.036 106.016 M111.744 107.192 C 108.090 108.619,105.945 112.479,106.878 115.951 C 107.271 117.414,108.362 118.624,112.577 122.274 C 117.951 126.926,113.618 131.230,106.241 128.569 C 103.645 127.633,103.842 127.555,103.440 129.676 C 102.968 132.165,102.923 132.095,105.240 132.509 C 114.122 134.096,120.924 130.772,120.924 124.844 C 120.924 121.973,120.354 121.192,114.582 116.154 C 109.766 111.949,113.446 108.317,120.176 110.632 C 121.187 110.979,122.178 111.200,122.380 111.123 C 122.669 111.012,123.284 108.237,123.184 107.500 C 123.051 106.527,114.067 106.285,111.744 107.192 M139.063 110.072 C 137.113 110.424,137.007 110.529,136.727 112.395 C 136.528 113.725,136.502 113.750,135.314 113.750 C 134.039 113.750,134.009 113.786,133.592 115.859 C 133.388 116.873,133.390 116.875,134.669 116.875 C 135.838 116.875,135.935 116.936,135.783 117.578 C 132.702 130.611,133.136 132.465,139.278 132.489 C 142.492 132.501,142.357 132.578,142.661 130.547 L 142.883 129.063 141.464 129.063 C 140.154 129.063,139.063 128.506,139.063 127.839 C 139.063 127.592,140.794 118.853,141.096 117.578 C 141.245 116.947,141.451 116.875,143.110 116.875 C 145.097 116.875,145.034 116.931,145.470 114.766 L 145.675 113.750 143.740 113.750 L 141.805 113.750 142.023 112.578 C 142.142 111.934,142.316 111.020,142.409 110.547 C 142.603 109.560,142.208 109.504,139.063 110.072 M281.875 110.072 C 279.926 110.424,279.820 110.529,279.540 112.395 C 279.340 113.725,279.314 113.750,278.127 113.750 C 276.852 113.750,276.822 113.786,276.405 115.859 C 276.201 116.873,276.203 116.875,277.481 116.875 C 278.650 116.875,278.747 116.936,278.596 117.578 C 275.514 130.611,275.949 132.465,282.091 132.489 C 285.304 132.501,285.170 132.578,285.474 130.547 L 285.696 129.063 284.277 129.063 C 282.966 129.063,281.875 128.506,281.875 127.839 C 281.875 127.592,283.607 118.853,283.908 117.578 C 284.057 116.947,284.264 116.875,285.922 116.875 C 287.910 116.875,287.847 116.931,288.283 114.766 L 288.487 113.750 286.553 113.750 L 284.618 113.750 284.835 112.578 C 284.955 111.934,285.128 111.020,285.221 110.547 C 285.416 109.560,285.020 109.504,281.875 110.072 M224.131 114.089 C 216.037 117.275,213.312 129.929,220.229 132.211 C 223.157 133.178,231.998 131.724,232.339 130.220 C 233.297 125.991,233.438 126.170,230.316 127.636 C 226.387 129.479,222.808 129.512,221.943 127.714 C 221.158 126.081,221.237 125.625,222.307 125.625 C 229.650 125.625,235.817 118.226,231.699 114.356 C 230.548 113.275,226.557 113.134,224.131 114.089 M257.813 114.052 C 256.551 114.728,254.177 117.105,252.998 118.872 C 252.051 120.291,252.059 120.366,252.783 116.629 L 253.345 113.727 250.666 113.817 L 247.987 113.906 246.348 122.344 C 245.447 126.984,244.632 131.098,244.536 131.484 C 244.367 132.172,244.422 132.188,247.019 132.188 C 249.517 132.188,249.685 132.146,249.839 131.484 C 249.928 131.098,250.213 129.752,250.470 128.493 C 251.036 125.727,253.724 121.594,256.545 119.152 C 258.927 117.089,258.838 119.500,256.087 131.484 C 255.866 132.448,261.088 132.603,261.366 131.641 C 262.217 128.700,264.103 117.720,263.979 116.429 C 263.710 113.625,260.742 112.481,257.813 114.052 M158.172 115.234 C 154.909 130.519,155.011 132.500,159.061 132.500 C 161.661 132.500,163.903 130.914,166.524 127.219 C 167.061 126.462,167.500 125.926,167.500 126.026 C 167.500 126.216,166.689 130.245,166.401 131.484 C 166.178 132.448,171.400 132.603,171.679 131.641 C 171.766 131.340,172.557 127.438,173.438 122.969 C 174.318 118.500,175.109 114.598,175.196 114.297 C 175.338 113.806,175.079 113.750,172.683 113.750 C 170.168 113.750,170.003 113.791,169.855 114.453 C 169.769 114.840,169.485 116.115,169.224 117.287 C 168.222 121.786,161.250 130.291,161.250 127.015 C 161.250 126.574,163.245 116.124,163.648 114.453 C 163.814 113.766,163.758 113.750,161.154 113.750 L 158.489 113.750 158.172 115.234 M199.443 118.395 C 199.274 121.028,193.573 127.699,191.720 127.434 C 189.828 127.162,192.421 119.717,195.079 117.792 C 196.187 116.989,196.619 116.861,197.957 116.939 L 199.531 117.031 199.443 118.395 M227.819 117.512 C 228.800 119.345,225.844 122.188,222.958 122.188 C 221.937 122.188,221.852 122.122,222.043 121.484 C 223.047 118.116,226.772 115.555,227.819 117.512 M107.279 154.766 C 106.767 156.184,103.409 165.675,99.815 175.858 L 93.281 194.372 86.711 194.373 C 66.191 194.379,53.190 200.616,47.534 213.169 C 41.580 226.381,49.079 235.938,65.401 235.938 C 83.560 235.938,96.606 226.663,106.173 206.953 L 108.486 202.188 116.382 202.188 L 124.278 202.188 119.825 214.609 L 115.373 227.031 124.140 227.114 C 128.962 227.160,132.956 227.148,133.017 227.087 C 133.122 226.982,141.875 202.468,141.875 202.278 C 141.875 202.228,148.951 202.188,157.600 202.188 C 174.838 202.188,175.224 202.152,177.740 200.329 C 179.202 199.270,180.572 197.131,180.838 195.492 L 181.019 194.375 162.853 194.375 C 152.862 194.375,144.688 194.336,144.688 194.289 C 144.688 194.241,147.430 186.495,150.781 177.075 C 154.133 167.655,156.875 159.817,156.875 159.657 C 156.875 159.481,153.362 159.398,148.051 159.448 L 139.227 159.531 133.105 176.875 L 126.984 194.219 118.961 194.302 C 114.220 194.351,110.938 194.268,110.938 194.098 C 110.938 193.838,124.382 156.165,125.476 153.359 L 125.932 152.188 117.070 152.188 L 108.208 152.188 107.279 154.766 M173.050 160.078 C 171.819 161.962,166.250 171.216,166.250 171.378 C 166.250 171.479,171.242 171.563,177.344 171.563 C 186.387 171.563,188.438 171.640,188.438 171.980 C 188.438 172.560,183.818 223.523,183.580 225.573 L 183.386 227.239 188.967 227.135 C 198.651 226.955,197.585 227.988,213.286 203.569 L 225.156 185.108 225.237 206.175 L 225.317 227.242 230.237 227.137 C 239.504 226.938,237.624 229.283,257.868 192.656 C 266.798 176.500,274.593 162.402,275.192 161.328 L 276.281 159.375 270.250 159.387 L 264.219 159.399 252.969 180.246 L 241.719 201.094 241.638 180.206 L 241.558 159.318 236.951 159.425 C 228.728 159.615,229.820 158.483,214.242 182.959 C 207.728 193.193,202.354 201.521,202.300 201.466 C 202.245 201.411,202.979 194.204,203.932 185.449 C 205.843 167.878,205.875 166.594,204.463 163.977 C 202.166 159.720,200.753 159.375,185.604 159.375 L 173.509 159.375 173.050 160.078 M278.138 160.859 C 277.633 161.676,275.961 164.383,274.423 166.875 L 271.627 171.406 298.079 171.582 C 326.560 171.771,326.520 171.768,329.201 173.427 C 334.611 176.776,333.959 184.675,327.872 189.520 C 324.775 191.985,321.200 193.636,312.188 196.767 C 309.174 197.814,307.372 198.596,307.418 198.837 C 307.563 199.590,318.145 222.544,318.874 223.686 C 319.857 225.226,320.857 226.118,322.260 226.704 C 323.626 227.274,346.157 227.427,348.129 226.879 C 351.329 225.990,354.146 223.218,354.582 220.529 L 354.768 219.384 345.186 219.301 L 335.604 219.219 331.396 210.186 C 326.499 199.675,326.817 200.847,328.672 200.161 C 339.564 196.134,349.435 188.914,352.498 182.734 C 356.342 174.976,353.487 166.262,345.876 162.522 C 339.693 159.483,338.332 159.375,306.177 159.375 L 279.057 159.375 278.138 160.859 M378.294 177.969 C 378.386 178.484,378.650 181.139,378.880 183.867 L 379.299 188.828 385.119 194.648 L 390.938 200.467 311.812 279.594 C 247.105 344.301,232.854 358.699,233.609 358.601 C 235.046 358.414,237.297 357.891,241.875 356.678 L 246.094 355.560 323.047 278.639 L 400.000 201.719 400.000 199.999 L 400.000 198.278 389.375 187.656 C 383.531 181.814,378.748 177.245,378.745 177.502 C 378.741 177.915,378.705 177.915,378.433 177.500 C 378.209 177.159,378.171 177.286,378.294 177.969 M296.400 178.203 C 296.321 178.418,292.405 189.492,287.698 202.813 L 279.139 227.031 287.898 227.114 C 292.715 227.160,296.717 227.137,296.791 227.063 C 296.912 226.942,314.375 178.123,314.375 177.905 C 314.375 177.562,296.526 177.858,296.400 178.203 M29.443 185.400 L 25.000 189.852 25.002 199.535 C 25.015 274.027,69.952 339.013,139.337 364.883 C 147.664 367.988,161.289 371.854,162.399 371.428 C 162.644 371.334,162.764 371.388,162.666 371.547 C 162.567 371.707,162.774 371.815,163.126 371.789 C 163.611 371.752,162.286 370.260,157.667 365.636 L 151.567 359.531 146.174 357.721 C 81.385 335.973,35.638 274.507,33.482 206.309 C 33.259 199.255,33.526 188.529,34.033 184.228 C 34.486 180.374,34.451 180.383,29.443 185.400 M89.333 205.391 C 85.544 215.144,79.106 223.818,73.754 226.383 C 66.599 229.812,62.125 225.747,64.216 217.717 C 66.260 209.870,75.753 203.370,86.406 202.525 C 88.125 202.388,89.767 202.256,90.055 202.232 C 90.491 202.195,90.372 202.717,89.333 205.391 M40.938 231.953 C 40.938 232.254,41.074 232.500,41.240 232.500 C 41.407 232.500,41.472 232.684,41.386 232.910 C 41.210 233.366,42.018 237.061,43.482 242.500 L 44.450 246.094 121.365 323.047 L 198.281 400.000 200.002 400.000 L 201.722 400.000 212.033 389.647 C 217.704 383.953,222.180 379.384,221.980 379.493 C 221.780 379.602,221.567 379.546,221.508 379.367 C 221.434 379.146,219.831 379.177,216.462 379.464 L 211.525 379.884 205.997 385.411 L 200.470 390.938 120.704 311.173 C 74.940 265.409,40.938 231.640,40.938 231.953 M365.263 242.746 L 359.462 248.594 357.539 254.295 C 333.657 325.116,261.437 372.666,187.516 366.239 C 181.264 365.696,181.296 365.502,186.742 370.982 L 191.406 375.676 202.500 375.525 C 275.274 374.540,338.747 329.647,364.177 261.176 C 367.310 252.739,371.253 238.889,370.753 238.079 C 370.638 237.894,370.735 237.625,370.967 237.482 C 371.198 237.339,371.315 237.149,371.226 237.060 C 371.137 236.971,368.454 239.530,365.263 242.746 M282.708 259.141 C 282.614 259.527,281.123 267.016,279.397 275.781 C 277.670 284.547,276.182 292.035,276.091 292.422 C 275.927 293.119,275.957 293.125,279.369 293.125 C 281.263 293.125,282.813 293.086,282.813 293.039 C 282.813 292.991,284.359 285.226,286.250 275.781 C 288.141 266.337,289.688 258.571,289.688 258.524 C 289.688 257.928,282.857 258.531,282.708 259.141 M114.852 260.996 C 114.773 261.222,113.362 268.297,111.715 276.719 C 110.068 285.141,108.646 292.282,108.555 292.589 C 108.401 293.104,108.656 293.139,111.920 293.057 L 115.451 292.969 116.700 286.641 L 117.950 280.313 120.784 280.313 C 128.514 280.313,133.740 276.533,135.498 269.671 C 136.442 265.983,135.329 262.867,132.583 261.514 C 130.767 260.621,115.143 260.164,114.852 260.996 M220.625 264.327 L 217.969 264.844 217.531 266.953 L 217.094 269.063 215.454 269.063 L 213.814 269.063 213.470 271.041 C 213.280 272.130,213.125 273.114,213.125 273.229 C 213.125 273.344,213.828 273.438,214.688 273.438 C 215.547 273.438,216.250 273.481,216.250 273.534 C 216.250 273.587,215.617 276.715,214.844 280.486 C 212.581 291.518,213.266 293.471,219.481 293.700 C 223.756 293.857,224.447 293.601,224.892 291.699 C 225.570 288.797,225.557 288.770,223.589 288.973 C 221.438 289.195,220.625 288.620,220.625 286.879 C 220.625 285.912,222.273 277.096,222.977 274.297 C 223.189 273.450,223.230 273.438,225.653 273.438 C 228.401 273.438,228.076 273.746,228.698 270.547 L 228.987 269.063 226.525 269.063 C 223.595 269.063,223.724 269.420,224.852 264.453 C 225.049 263.588,224.501 263.572,220.625 264.327 M126.117 265.489 C 131.860 266.350,127.289 275.097,120.747 275.764 L 118.838 275.959 119.934 270.475 L 121.030 264.992 123.093 265.168 C 124.228 265.265,125.589 265.409,126.117 265.489 M155.359 269.045 C 146.380 272.364,140.989 285.613,146.344 291.199 C 148.992 293.962,155.449 294.650,159.688 292.622 C 167.837 288.722,172.331 276.126,167.406 270.988 C 165.031 268.511,159.304 267.587,155.359 269.045 M198.035 269.245 C 196.134 270.235,193.334 273.027,191.633 275.630 C 190.907 276.742,190.313 277.566,190.313 277.462 C 190.313 277.358,190.664 275.547,191.094 273.438 C 191.523 271.328,191.875 269.480,191.875 269.332 C 191.875 269.184,190.345 269.063,188.474 269.063 L 185.073 269.063 182.834 280.547 C 181.602 286.863,180.521 292.277,180.432 292.578 C 180.285 293.076,180.582 293.125,183.729 293.125 C 185.631 293.125,187.188 293.074,187.188 293.012 C 187.188 290.736,188.942 284.884,190.162 283.092 C 194.274 277.051,197.076 274.586,199.656 274.740 L 201.386 274.844 202.231 272.188 C 203.448 268.364,203.465 268.435,201.328 268.452 C 200.043 268.462,199.105 268.688,198.035 269.245 M250.539 269.184 C 247.052 270.638,244.170 273.359,241.760 277.473 C 233.092 292.262,244.229 300.746,253.698 286.566 C 254.414 285.494,255.000 284.754,255.000 284.921 C 255.000 285.089,254.648 286.953,254.219 289.063 C 253.789 291.172,253.438 292.949,253.438 293.012 C 253.438 293.074,254.964 293.125,256.829 293.125 L 260.220 293.125 262.477 281.797 C 263.718 275.566,264.805 270.165,264.893 269.793 C 265.049 269.139,264.942 269.112,261.511 268.930 C 259.563 268.827,256.703 268.672,255.156 268.587 C 252.680 268.449,252.128 268.521,250.539 269.184 M160.776 273.619 C 163.418 275.350,162.307 283.573,158.951 287.136 C 155.374 290.933,151.428 289.392,151.451 284.208 C 151.482 277.075,156.813 271.022,160.776 273.619 M257.034 273.442 C 258.645 276.048,248.866 288.451,246.052 287.371 C 243.904 286.547,248.167 276.149,251.528 274.017 C 253.000 273.084,256.581 272.710,257.034 273.442 M205.000 296.187 L 205.000 297.687 203.926 297.562 C 202.525 297.398,199.688 298.335,199.688 298.961 C 199.688 300.683,198.559 301.250,195.135 301.250 C 191.458 301.250,191.286 301.408,192.437 303.728 C 193.224 305.315,194.442 305.888,197.089 305.915 C 199.569 305.940,200.938 306.319,200.938 306.980 C 200.938 307.412,198.905 307.804,196.631 307.810 C 194.596 307.815,194.863 310.399,197.041 311.774 C 198.288 312.563,198.436 312.781,198.437 313.828 C 198.438 316.250,197.436 315.603,189.531 308.079 C 186.419 305.116,184.932 304.850,180.156 306.402 C 179.121 306.738,178.890 306.963,178.813 307.714 C 178.703 308.789,178.430 308.457,185.418 315.756 C 188.392 318.864,191.375 322.021,192.047 322.773 L 193.268 324.140 186.009 323.909 L 178.750 323.677 178.750 324.479 C 178.750 326.753,179.444 328.528,180.877 329.921 C 182.837 331.825,183.051 331.875,189.317 331.875 L 194.844 331.874 194.750 336.406 L 194.655 340.938 193.656 340.948 C 190.478 340.981,188.927 343.478,188.428 349.365 L 188.030 354.063 186.906 354.065 C 184.552 354.069,181.875 357.091,181.875 359.743 L 181.875 361.250 187.451 361.250 L 193.026 361.250 196.513 357.638 L 200.000 354.026 200.000 351.769 L 200.000 349.511 201.431 349.089 C 203.046 348.612,205.198 349.024,205.523 349.873 C 205.621 350.127,206.106 350.545,206.600 350.801 C 207.095 351.057,207.500 351.480,207.500 351.742 C 207.500 352.004,207.715 352.633,207.977 353.141 L 208.454 354.063 207.372 354.063 C 204.515 354.063,201.563 357.232,201.563 360.300 L 201.563 361.563 207.271 361.563 L 212.979 361.563 216.373 358.158 L 219.767 354.754 219.633 349.098 C 219.483 342.729,219.331 342.260,217.048 341.126 L 215.855 340.534 216.084 329.455 L 216.314 318.376 217.376 316.411 C 218.671 314.012,218.743 312.543,217.665 310.514 C 216.694 308.690,215.938 305.813,215.938 303.950 C 215.938 301.435,213.479 298.438,211.416 298.438 C 210.590 298.438,209.235 297.696,207.299 296.186 C 204.949 294.351,205.000 294.351,205.000 296.187 " stroke="none" fill="#d50c2f" fill-rule="evenodd"></path></g></svg>